<?xml version="1.0" encoding="UTF-8" standalone="no"?>
<!-- Created with Inkscape (http://www.inkscape.org/) -->

<svg
   version="1.1"
   id="svg132"
   width="1328.6947"
   height="1477.5229"
   viewBox="0 0 1328.6948 1477.5229"
   xml:space="preserve"
   xmlns="http://www.w3.org/2000/svg"
   xmlns:svg="http://www.w3.org/2000/svg"><defs
     id="defs136" /><g
     id="g138"
     transform="translate(-1068.1259,28.152348)"><path
       style="fill:#000000"
       d="m 2009.5675,41.71926 c -19.469,-3.53216 -25.3853,-29.41429 -9.443,-41.31009976 5.4254,-4.04826004 24.8424,-9.70738004 33.3071,-9.70738004 11.0602,0 14.6845,3.67472 18.8724,19.13504 5.2178,19.2628798 3.6364,26.7603498 -6.4186,30.4287098 -5.2326,1.90904 -28.6432,2.84611 -36.3179,1.45373 z"
       id="p9" /><path
       style="fill:#000000"
       d="m 1407.6129,43.67967 c -5.211,-4.09898 -9.1156,-16.87748 -9.16,-29.97789 -0.046,-13.71789976 1.5309,-17.4024598 8.9419,-20.8860498 8.5881,-4.0368602 29.108,-6.8770302 36.0765,-4.9933602 14.8905,4.0251402 20.7787,32.35298 8.8938,42.78807 -12.344,10.83818 -38.0462,18.34414 -44.7522,13.06923 z"
       id="p3" /><path
       style="fill:#000000"
       d="m 1221.4139,44.97936 c -6.3103,-1.911 -17.5244,-9.3623 -22.3631,-14.85941 -5.6894,-6.4634 -7.1369,-12.4947 -7.1369,-29.73581976 0,-16.92701024 1.1751,-21.39137024 6.4961,-24.67994024 3.2943,-2.036 3.2943,-2.036 11.1491,0.33233 4.3201,1.30257 10.5548,3.15561 13.8548,4.11785 7.8933,2.3016 19.8752,8.11344 30.9431,15.0090202 4.9188,3.06449 11.5841,6.53472 14.8118,7.71162 12.4594,4.54293 14.4725,9.6427198 7.1225,18.0433898 -6.6518,7.60262 -22.984,19.88538 -31.7085,23.84662 -5.1101,2.32016 -15.8861,2.41985 -23.1689,0.21434 z"
       id="p1" /><path
       style="fill:#000000"
       d="m 1524.4139,46.77362 c -6.6597,-1.60594 -16.4349,-7.1909 -20.3287,-11.6146 -8.1909,-9.30533 -10.5823,-18.40756 -9.9692,-37.9452298 0.7114,-22.6695202 4.9745,-28.8710402 16.2322,-23.6131002 2.2361,1.0444 6.4271,2.65519 9.3132,3.57954 14.4903,4.64083 54.8409,28.9962002 58.5025,35.31175 4.7137,8.13026 0.1736,14.08992 -19.75,25.92531 -14.8022,8.79305 -23.413,10.90935 -34,8.35633 z"
       id="p4" /><path
       style="fill:#000000"
       d="m 1811.7344,47.30679 c -9.3476,-2.51696 -16.8475,-10.69771 -24.7881,-27.03826 -10.5303,-21.6697098 -9.2279,-25.3995398 9.5841,-27.4468298 4.8859,-0.53173 12.2585,-1.72401 16.3835,-2.6495 5.9933,-1.3446702 10.4861,-1.5679902 22.3642,-1.1116102 8.8896,0.34155 16.824,0.15078 19.7402,-0.47462 14.9966,-3.21619 18.2387,6.1160202 10.5461,30.35606 -4.9597,15.62868 -12.3787,24.3287 -23.7697,27.87398 -7.127,2.21817 -22.7007,2.47244 -30.0603,0.49078 z"
       id="p7" /><path
       style="fill:#000000"
       d="m 1718.6124,47.66892 c -13.118,-3.30335 -23.7677,-13.03226 -32.4485,-29.6429 -9.1186,-17.44834976 -7.7882,-20.2820798 12.4416,-26.5000598 17.0402,-5.2376002 41.1532,-7.2556302 53.9694,-4.5167302 4.3114,0.92138 10.4174,2.15916 13.5689,2.75062 12.7657,2.3958602 12.8748,12.9444602 0.3815,36.89211 -3.8043,7.29221 -14.5892,17.14169 -21.4296,19.57093 -5.5219,1.96098 -21.0677,2.8098 -26.4833,1.44603 z"
       id="p6" /><path
       style="fill:#000000"
       d="m 2211.9139,49.08159 c -0.825,-0.30637 -4.65,-1.71659 -8.5,-3.13383 -8.2685,-3.04373 -19.659,-10.25612 -22.5011,-14.24754 -4.7516,-6.67289 -4.3999,-7.52489 9.0523,-21.9314798 17.621,-18.87118 28.9243,-25.7537802 45.4937,-27.7011902 10.8693,-1.27746 12.6664,0.80892 15.5807,18.08851024 4.4903,26.62415976 0.4348,39.06951976 -15.1256,46.41725976 -5.4136,2.55635 -19.817,4.06166 -24,2.50827 z"
       id="p11" /><path
       style="fill:#000000"
       d="m 2114.4139,49.71856 c -6.8455,-1.77639 -15.6597,-6.70199 -27.288,-15.24916 -6.2408,-4.5872 -15.212,-17.5683 -15.212,-22.01141 0,-8.2713598 5.3149,-11.58757976 20.5,-12.79077976 5.5,-0.4358 11.8,-1.24211004 14,-1.79180004 8.1225,-2.02948 24.6512,-5.17363 27.1975,-5.17363 6.7593,0 21.6553,5.92214 23.4821,9.33568 2.4317,4.54367 -2.2799,22.6642198 -9.5333,36.6643198 -4.5373,8.75773 -20.8975,14.19533 -33.1463,11.01678 z"
       id="p10" /><path
       style="fill:#000000"
       d="m 1910.9139,49.74242 c -7.888,-1.15553 -19.3219,-5.72343 -22.4196,-8.95667 -4.2321,-4.41742 -4.3462,-8.58335 -0.4165,-15.20611 1.8349,-3.09218 4.816,-8.10935 6.6247,-11.14928 5.2425,-8.8109898 16.9386,-18.0494498 33.2114,-26.23277 3.025,-1.52122 6.5732,-3.6051 7.8848,-4.63083 4.4879,-3.50956 11.0011,-1.73251 13.5816,3.70559 4.1606,8.7677602 8.573,35.20623 7.1379,42.7692 -0.979,5.15942 -7.2568,11.80878 -15.5024,16.41999 -7.1707,4.01009 -17.465,5.13209 -30.1019,3.28088 z"
       id="p8" /><path
       style="fill:#000000"
       d="m 1615.3668,48.8386 c -14.2829,-4.87571 -28.4529,-21.29514 -28.4529,-32.96955 0,-4.67557 3.8926,-11.0333898 10.4124,-17.0063798 7.1673,-6.56627 11.8809,-8.24359 24.9277,-8.8703002 21.2806,-1.02222 42.6599,8.4976002 42.6599,18.9956602 0,3.4915098 -4.5708,16.9918898 -8.0852,23.8807598 -7.7723,15.23497 -24.6131,21.72148 -41.4619,15.96981 z"
       id="p5" /><path
       style="fill:#000000"
       d="m 1320.8979,53.21882 c -22.3263,-4.21846 -32.9932,-16.17807 -32.9803,-36.97714 0.01,-8.1051398 2.3704,-12.0225898 8.1985,-13.5779098 2.3638,-0.63083 5.7755,-1.78033996 7.5817,-2.55446996 6.9228,-2.96717004 30.8367,-1.37086004 38.3823,2.56208996 2.6285,1.37009 5.8117,2.03039 9.7878,2.03039 4.8804,0 6.421,0.4447 8.9692,2.5889 3.8762,3.2615598 3.9626,6.2544998 0.4876,16.8940298 -8.5893,26.2984 -18.2365,33.22689 -40.4268,29.03411 z"
       id="p2" /><path
       style="fill:#000000"
       d="m 1811.3519,143.82741 c -9.7304,-2.52991 -24.117,-14.98438 -26.5012,-22.94201 -2.3097,-7.70922 0.5122,-10.05452 20.0632,-16.6747 5.225,-1.76925 15.8236,-6.20753 23.5526,-9.86286 23.6271,-11.17428 26.1742,-9.38352 25.2538,17.75519 -0.6487,19.12734 -3.8437,24.72681 -16.9973,29.78934 -5.7707,2.221 -20.0751,3.31199 -25.3711,1.93504 z"
       id="p18" /><path
       style="fill:#000000"
       d="m 1507.1307,143.14108 c -6.9324,-4.85565 -9.0818,-24.70171 -3.4991,-32.30746 1.6438,-2.23942 11.4914,-9.64583 22.7823,-17.13459 6.6732,-4.42609 11.6879,-2.50722 18.8171,7.20047 2.5456,3.46625 6.8733,8.07964 9.617,10.25198 6.0253,4.77042 7.8091,8.34168 6.1579,12.32802 -1.4962,3.61225 -3.0898,4.55492 -18.592,10.99814 -26.4848,11.0079 -30.5211,11.99896 -35.2832,8.66344 z"
       id="p15" /><path
       style="fill:#000000"
       d="m 1715.7502,143.78294 c -7.8131,-2.49871 -11.7001,-5.10643 -18.4954,-12.40809 -12.8689,-13.82792 -18.9079,-32.86687 -12.0592,-38.0185 2.5619,-1.92707 4.7348,-2.16205 27.5,-2.97388 50.2902,-1.79339 52.0284,-1.68024 55.2456,3.59615 7.5261,12.34354 -8.3285,43.41538 -25.3148,49.61191 -7.3392,2.67729 -18.8486,2.75969 -26.8762,0.19241 z"
       id="p17" /><path
       style="fill:#000000"
       d="m 1423.0729,143.21096 c -20.8372,-7.27031 -29.0923,-17.22133 -27.9167,-33.65188 0.5933,-8.29255 5.2569,-18.65248 9.8777,-21.94274 4.218,-3.00349 10.6272,-2.21867 16.2213,1.98633 6.6001,4.96113 10.8639,6.90467 25.4643,11.60723 26.2628,8.45884 29.3029,15.24247 13.7367,30.65199 -12.9766,12.84597 -23.7335,16.11161 -37.3833,11.34907 z"
       id="p14" /><path
       style="fill:#000000"
       d="m 1913.7581,145.36193 c -15.3617,-5.71347 -27.0562,-22.03229 -29.8549,-41.66015 -1.8227,-12.78333 5.176,-15.91359 28.0107,-12.5281 30.6205,4.53982 29.5996,4.45285 34.6005,2.94782 10.1,-3.03967 20.7123,-1.00577 22.0242,4.22104 0.9364,3.73122 -1.3256,16.66016 -3.8051,21.74845 -4.045,8.30066 -5.4205,10.26929 -10.3196,14.76929 -10.1838,9.35407 -14.6059,11.28861 -26.5,11.59281 -7.0054,0.17917 -11.7167,-0.18399 -14.1558,-1.09116 z"
       id="p19" /><path
       style="fill:#000000"
       d="m 1315.7062,146.35948 c -14.1196,-3.98011 -21.265,-15.28049 -21.2824,-33.6577 -0.014,-15.00754 3.0031,-23.05938 10.2207,-27.27469 4.3945,-2.56651 18.3843,-1.04036 24.6461,2.68864 6.8244,4.06402 16.9055,13.97606 20.5617,20.21694 1.8912,3.22801 5.1005,7.52227 7.132,9.54281 10.2961,10.24088 6.0404,22.55948 -9.482,27.44696 -6.8573,2.1591 -25.6421,2.77177 -31.7961,1.03704 z"
       id="p13" /><path
       style="fill:#000000"
       d="m 2105.4139,147.73562 c -15.6981,-3.98435 -29.5135,-14.87544 -29.495,-23.25172 0.01,-3.74123 6.9383,-11.78168 12.995,-15.07713 16.9161,-9.20412 29.4941,-17.44977 32.8699,-21.54829 6.8144,-8.27306 8.8151,-9.9948 12.8893,-11.09187 5.6087,-1.51027 8.0654,-0.16682 12.347,6.75215 12.3479,19.954 12.9656,40.13385 1.5926,52.02849 -10.1665,10.63268 -28.7122,15.86526 -43.1988,12.18837 z"
       id="p21" /><path
       style="fill:#000000"
       d="m 2018.9139,148.98662 c -6.162,-0.93757 -13.1842,-4.68563 -17.1652,-9.16187 -9.0983,-10.22998 -10.4521,-18.66014 -6.0107,-37.427 5.9259,-25.0393 10.5138,-29.34653 23.1355,-21.72037 3.7807,2.28432 9.084,4.99305 11.7851,6.01938 9.2547,3.51653 16.9261,8.7284 19.929,13.53963 1.5545,2.49051 4.0611,6.20157 5.5702,8.2468 7.7541,10.50834 8.153,11.31388 8.2051,16.56849 0.084,8.52177 -1.549,10.95704 -10.1676,15.15968 -14.9067,7.26879 -26.3979,10.12691 -35.2814,8.77526 z"
       id="p20" /><path
       style="fill:#000000"
       d="m 1223.2074,148.14001 c -20.956,-4.59352 -33.6983,-21.08716 -36.7587,-47.58038 -0.781,-6.76069 0.976,-11.83597 5.0131,-14.48118 2.6183,-1.7156 3.1105,-1.7003 13.8335,0.43004 6.1152,1.21491 14.4936,2.66832 18.6186,3.22979 4.125,0.56147 13.125,2.14123 20,3.51058 33.4687,6.66624 34.9766,8.83997 21.5387,31.04889 -5.1599,8.52776 -15.8498,19.50972 -21.5387,22.12723 -6.0246,2.77193 -13.1808,3.36465 -20.7065,1.71503 z"
       id="p12" /><path
       style="fill:#000000"
       d="m 2211.9139,150.82325 c -19.3211,-4.2331 -27.8585,-13.20073 -31.0016,-32.5638 -3.0882,-19.02507 0.7799,-23.53642 20.2195,-23.58153 5.6551,-0.0131 12.0821,-0.47171 14.2821,-1.01909 12.8788,-3.20435 43.3875,-1.88934 46.631,2.00994 6.5991,7.93314 -0.679,39.35449 -11.202,48.36182 -8.9152,7.63104 -23.4926,10.17464 -38.929,6.79266 z"
       id="p22" /><path
       style="fill:#000000"
       d="m 1616.802,153.3411 c -16.4173,-4.86043 -26.2383,-15.13849 -31.1876,-32.63932 -3.5049,-12.39329 -3.0985,-18.8671 1.3949,-22.22192 2.2601,-1.68744 5.9063,-1.94636 39.8529,-2.83004 41.9425,-1.09181 40.9904,-1.22234 43.1282,5.91308 1.8254,6.0925 -2.6258,26.22656 -7.455,33.72128 -1.1669,1.81085 -3.2465,5.16669 -4.6215,7.45743 -7.3177,12.19126 -22.5073,16.10745 -41.1119,10.59949 z"
       id="p16" /><path
       style="fill:#000000"
       d="m 2105.9139,244.2629 c -14.4643,-3.07332 -25.9312,-12.77793 -27.5942,-23.35342 -0.5782,-3.67664 -0.3329,-4.65775 1.7096,-6.84007 2.1564,-2.30398 21.8075,-12.36763 24.15,-12.36763 2.7417,0 19.7243,-8.69631 24.3651,-12.47673 18.1808,-14.80999 28.8695,-7.22867 28.8695,20.47673 0,11.29897 -0.062,11.61363 -3.5633,18 -7.4534,13.59629 -28.1837,20.75817 -47.9367,16.56112 z"
       id="p32" /><path
       style="fill:#000000"
       d="m 1715.596,243.67094 c -12.4686,-4.13526 -22.0187,-13.96059 -26.8045,-27.57689 -3.7113,-10.55943 -1.1288,-15.13141 13.43,-23.77626 16.7959,-9.9732 27.4423,-10.21651 44.255,-1.01136 13.095,7.16964 16.4374,10.88233 16.4374,18.25846 0,2.9951 -0.7793,6.62493 -1.9013,8.8561 -1.0457,2.07943 -2.6392,5.39921 -3.5411,7.37728 -7.2136,15.82114 -25.0753,23.44457 -41.8755,17.87267 z"
       id="p28" /><path
       style="fill:#000000"
       d="m 1316.9139,245.32794 c -13.6225,-3.7503 -22.0864,-12.96773 -27.0373,-29.44451 -4.4031,-14.6534 -1.6345,-21.72208 10.3129,-26.33056 3.3523,-1.2931 7.4742,-2.88819 9.1597,-3.54465 3.868,-1.50644 16.7984,-1.63557 22.0647,-0.22036 6.0501,1.62586 27.8398,12.58228 30.3616,15.26658 3.3051,3.51816 3.6534,8.16422 1.1735,15.6565 -6.8434,20.676 -27.7262,33.65746 -46.0351,28.617 z"
       id="p24" /><path
       style="fill:#000000"
       d="m 2011.4139,247.29927 c -4.5483,-2.00765 -6.2189,-4.55512 -6.9497,-10.59749 -0.3659,-3.025 -1.4014,-9.1 -2.3011,-13.5 -2.521,-12.32927 -2.3557,-32.96764 0.3003,-37.48889 2.2257,-3.78867 11.0976,-8.96501 15.4158,-8.99436 3.9642,-0.0269 21.567,20.02074 28.4474,32.3986 1.5028,2.70345 4.9465,7.17658 7.6528,9.9403 10.5592,10.7833 8.406,13.88906 -16.6232,23.97793 -14.8561,5.98825 -20.0878,6.84814 -25.9423,4.26391 z"
       id="p31" /><path
       style="fill:#000000"
       d="m 1817.0336,246.75261 c -27.7723,-13.44646 -33.2512,-47.19827 -12.0214,-74.056 3.8168,-4.82856 4.1186,-4.99483 9.0678,-4.99483 7.322,0 14.3407,6.80176 15.4208,14.94412 0.8814,6.64395 1.4144,7.16937 16.3067,16.07422 11.8076,7.06036 12.2506,7.23138 16.8662,6.5111 7.2072,-1.12469 8.272,-0.89093 11.8827,2.60869 4.2844,4.15263 4.8392,6.06965 3.3234,11.48364 -3.1758,11.34273 -30.5809,28.8629 -46.9185,29.99513 -6.9494,0.4816 -8.053,0.27827 -13.9277,-2.56607 z"
       id="p29" /><path
       style="fill:#000000"
       d="m 1604.6692,247.33743 c -12.8634,-4.6511 -25.4201,-12.998 -27.6492,-18.37937 -2.8031,-6.76724 4.0082,-14.7108 12.7254,-14.84084 3.1177,-0.0465 6.1923,-0.15901 6.8325,-0.25 0.6402,-0.091 6.4163,-5.89601 12.8359,-12.90004 11.6719,-12.73459 11.6719,-12.73459 11.0387,-17.80293 -0.5785,-4.62952 -0.3644,-5.41007 2.4719,-9.0154 10.8416,-13.78098 19.9386,-8.04531 28.4127,17.91436 8.4395,25.85379 3.0844,43.14598 -16.6206,53.66987 -8.7081,4.65075 -19.9603,5.25155 -30.0473,1.60435 z"
       id="p27" /><path
       style="fill:#000000"
       d="m 1919.4139,249.81197 c -22.5716,-5.91423 -32.8234,-32.4198 -21.3842,-55.28807 4.7234,-9.44281 7.3988,-10.31259 20.623,-6.70465 11.3576,3.09868 12.461,3.86467 27.5793,19.14469 13.9224,14.0714 15.6819,16.50844 15.6819,21.72115 0,4.56283 -0.8349,5.72328 -7.5803,10.53669 -11.7626,8.39364 -26.3819,12.82728 -34.9197,10.59019 z"
       id="p30" /><path
       style="fill:#000000"
       d="m 1206.6037,249.31019 c -7.4858,-2.70102 -10.0804,-4.20095 -16.4764,-9.52493 -4.2865,-3.56807 -4.2865,-3.56807 -4,-11.5751 0.2866,-8.00702 0.2866,-8.00702 4.8788,-10.5077 2.5257,-1.37537 8.3757,-5.98389 13,-10.24116 6.5537,-6.03352 10.904,-8.99221 19.7274,-13.41668 8.6595,-4.34226 12.1663,-6.70948 14.9225,-10.07305 9.5433,-11.64634 16.8747,-8.11459 21.6842,10.44595 2.9319,11.31433 1.4902,28.74368 -3.114,37.64712 -2.72,5.25988 -10.6333,12.769 -16.7961,15.93811 -8.5942,4.41948 -23.5947,4.99927 -33.8264,1.30744 z"
       id="p23" /><path
       style="fill:#000000"
       d="m 2207.6561,250.92156 c -7.888,-2.86881 -14.1988,-9.16248 -19.1039,-19.05233 -4.8301,-9.73833 -7.9466,-20.25514 -7.462,-25.18046 0.6507,-6.61225 10.0151,-9.94507 28.0171,-9.97137 8.8341,-0.0129 13.181,-0.62932 25,-3.54515 22.4047,-5.52738 25.4511,-4.20413 25.0854,10.89625 -0.5929,24.48845 -6.7535,38.6942 -19.6888,45.40075 -6.6863,3.46665 -24.1229,4.26179 -31.8478,1.45231 z"
       id="p33" /><path
       style="fill:#000000"
       d="m 1523.6483,251.68068 c -15.6911,-3.9758 -25.7344,-20.05154 -25.7344,-41.19174 0,-23.17947 21.1185,-49.6811 34.0674,-42.75109 2.1787,1.16605 3.836,4.6614 8.0432,16.96393 5.478,16.0187 11.2946,28.50764 18.0974,38.85741 9.3501,14.22536 9.8857,17.68114 3.4952,22.55537 -6.3078,4.81118 -28.252,8.02814 -37.9688,5.56612 z"
       id="p26" /><path
       style="fill:#000000"
       d="m 1416.841,251.54242 c -10.6308,-1.38198 -32.725,-11.43484 -37.4358,-17.03331 -5.2369,-6.22372 -2.2446,-11.2319 12.9835,-21.72988 28.975,-19.97502 30.2352,-21.02073 39.7359,-32.97397 10.3529,-13.02548 17.9847,-10.63302 26.9226,8.43986 9.57,20.42193 7.2369,35.33645 -7.8136,49.94924 -10.8434,10.52794 -22.1952,14.93368 -34.3926,13.34806 z"
       id="p25" /><path
       style="fill:#000000"
       d="m 1715.6817,341.29393 c -18.4436,-4.20472 -30.7465,-13.20947 -38.2528,-27.99791 -3.4199,-6.73787 -3.7574,-8.03025 -2.9393,-11.25716 1.8457,-7.27971 10.2773,-9.8436 24.0919,-7.32588 19.5737,3.5673 39.423,2.98225 51.7848,-1.52633 16.0836,-5.86601 21.867,3.03819 15.1242,23.28517 -2.9749,8.93256 -11.614,19.63717 -18.9401,23.46825 -5.1123,2.67338 -21.859,3.40787 -30.8687,1.35386 z"
       id="p39" /><path
       style="fill:#000000"
       d="m 2117.0955,345.58326 c -16.5288,-2.74957 -24.4749,-11.94863 -25.906,-29.991 -0.5164,-6.5102 -0.4688,-6.67085 3.1636,-10.69157 5.3335,-5.90354 9.3226,-6.96101 29.5608,-7.83636 27.2051,-1.17669 30.6956,-0.54304 32.9714,5.98542 1.5491,4.44379 1.3378,5.70282 -2.655,15.81921 -6.8716,17.41045 -12.1722,23.51834 -22.8155,26.29057 -6.502,1.69354 -6.6582,1.69816 -14.3193,0.42373 z"
       id="p43" /><path
       style="fill:#000000"
       d="m 1319.4139,345.76671 c -11.768,-2.8649 -22.1074,-15.49994 -30.134,-36.82467 -3.1461,-8.3584 -3.0854,-12.61182 0.2274,-15.92456 2.5121,-2.51216 2.8332,-2.56771 10.25,-1.77378 4.2111,0.45078 19.1316,0.88173 33.1566,0.95767 27.525,0.14905 28.8521,0.38001 31.4896,5.48039 2.4072,4.65506 1.8312,7.64205 -3.5262,18.2854 -13.16,26.14436 -24.1206,34.02164 -41.4634,29.79955 z"
       id="p35" /><path
       style="fill:#000000"
       d="m 1910.9139,346.33963 c -21.4714,-5.02695 -35.2611,-15.39865 -33.4326,-25.14568 0.9442,-5.03275 17.3443,-21.64676 24.6859,-25.00788 14.1104,-6.45992 32.2123,-7.67888 42.3804,-2.85381 8.7953,4.17363 13.3455,27.64926 7.558,38.99361 -5.8978,11.56078 -24.5562,17.90852 -41.1917,14.01376 z"
       id="p41" /><path
       style="fill:#000000"
       d="m 1222.9139,347.15366 c -12.333,-3.42641 -20.6868,-9.63471 -25.7521,-19.13807 -8.7481,-16.41315 -10.968,-42.73225 -4.1264,-48.92376 4.1119,-3.72122 14.2634,-1.01069 22.5146,6.01154 7.6931,6.54732 29.1865,16.55952 38.9371,18.13793 16.582,2.68428 23.8137,6.90773 25.0686,14.64051 1.4354,8.84528 -11.1062,21.59921 -27.4602,27.92518 -7.4061,2.86479 -21.3939,3.5103 -29.1816,1.34667 z"
       id="p34" /><path
       style="fill:#000000"
       d="m 1610.4139,348.05939 c -15.2537,-3.22363 -27.8223,-14.00231 -25.8598,-22.17701 2.0029,-8.34287 6.2547,-12.91438 17.5138,-18.8309 7.1451,-3.75461 18.9537,-14.45614 27.1539,-24.60823 7.7575,-9.60386 18.0513,-7.78126 24.194,4.28375 12.5489,24.64743 6.4198,48.79621 -14.857,58.53707 -9.7574,4.46709 -16.8848,5.17497 -28.1449,2.79532 z"
       id="p38" /><path
       style="fill:#000000"
       d="m 1525.2606,348.67161 c -30.2616,-5.43505 -34.4733,-21.65147 -18.769,-72.26641 3.2121,-10.3524 4.88,-13.37165 8.3895,-15.18649 8.4258,-4.35713 16.7634,0.1579 19.8067,10.72588 1.0748,3.73218 3.0881,7.55245 5.3361,10.12536 7.2663,8.31675 11.89,20.69394 11.89,31.82848 0,5.80798 0.4697,7.666 3.1298,12.37931 7.599,13.46473 1.3832,21.9185 -16.8374,22.89976 -4.2858,0.23081 -10.1114,0.003 -12.9457,-0.50589 z"
       id="p37" /><path
       style="fill:#000000"
       d="m 1413.9139,348.37121 c -12.9084,-2.50901 -15.0676,-4.76699 -16.2461,-16.98933 -0.4868,-5.04905 -1.1206,-11.51474 -1.4085,-14.36818 -1.0493,-10.40235 3.4215,-20.77708 13.418,-31.137 11.7335,-12.15996 16.211,-12.45408 26.0306,-1.70987 18.1727,19.88383 23.1437,34.80978 16.3308,49.03495 -6.4327,13.43122 -19.7685,18.73736 -38.1248,15.16943 z"
       id="p36" /><path
       style="fill:#000000"
       d="m 2016.0228,349.18715 c -15.0385,-4.23056 -19.8349,-9.25664 -22.1318,-23.19195 -2.2583,-13.70153 3.8532,-28.47108 17.7619,-42.92441 7.1928,-7.47436 11.2748,-9.77659 15.8222,-8.92351 4.0772,0.7649 8.4388,5.67064 8.4388,9.49168 0,2.9592 3.1723,8.24875 8.5053,14.18199 4.3471,4.83628 7.3594,13.26692 8.3966,23.49951 0.6546,6.45826 1.4618,9.33249 3.4753,12.37522 3.3602,5.07756 3.3021,6.9811 -0.3191,10.45042 -5.6714,5.43353 -28.3716,8.29799 -39.9492,5.04105 z"
       id="p42" /><path
       style="fill:#000000"
       d="m 2218.9139,350.41409 c -2.475,-0.70309 -7.3756,-3.05391 -10.8903,-5.22406 -20.9683,-12.947 -26.3943,-43.12598 -11.3161,-62.93981 4.6089,-6.0565 7.5342,-8.24976 13.2379,-9.92545 6.3224,-1.85745 9.7423,-0.6 16.6633,6.12695 3.2538,3.16253 8.3474,7.10006 11.3192,8.75006 5.563,3.08876 15.1345,13.51254 18.9703,20.65967 3.5732,6.65757 9.0006,24.1749 9.0083,29.07455 0.01,6.41558 -3.4953,10.37772 -11.0154,12.4508 -7.4304,2.04833 -30.1039,2.69574 -35.9772,1.02729 z"
       id="p44" /><path
       style="fill:#000000"
       d="m 1827.9139,353.96594 c -4.1045,-1.98222 -16.1373,-13.60705 -21.493,-20.76416 -2.0578,-2.75 -5.6397,-7.025 -7.9598,-9.5 -5.8401,-6.23003 -10.5472,-13.82753 -10.5472,-17.02356 0,-7.44462 10.7155,-14.86728 22.6936,-15.7199 17.8709,-1.27208 50.0474,18.89322 54.4081,34.09799 1.7879,6.23405 -0.2956,9.76074 -10.8784,18.41374 -15.761,12.88701 -18.7746,14.09319 -26.2233,10.49589 z"
       id="p40" /><path
       style="fill:#000000"
       d="m 1198.1534,442.7108 c -10.2586,-2.18706 -12.2395,-5.20574 -12.2395,-18.6517 0,-16.60055 3.8957,-19.35441 28.1891,-19.92649 17.8687,-0.42079 21.6308,-1.15824 28.8719,-5.65957 13.0988,-8.14263 23.3187,-1.67373 23.2693,14.72874 -0.036,11.99155 -5.9842,20.77235 -16.5981,24.50286 -11.232,3.94773 -42.2928,6.96749 -51.4927,5.00616 z"
       id="p45" /><path
       style="fill:#000000"
       d="m 2115.4139,444.29653 c -14.4684,-3.57414 -26.0641,-14.12511 -31.0865,-28.28579 -2.9623,-8.35245 0.6812,-13.76867 10.9875,-16.33314 2.2544,-0.56095 4.774,-1.47119 5.599,-2.02274 12.9165,-8.63532 32.4794,-10.35585 47.3468,-4.16409 7.6695,3.19411 11.0325,13.61027 7.241,22.42708 -0.7768,1.80616 -2.1451,5.37193 -3.0407,7.92393 -5.8242,16.59464 -20.3058,24.59038 -37.0471,20.45475 z"
       id="path2002" /><path
       style="fill:#000000"
       d="m 1323.9139,444.18886 c -25.6098,-6.84073 -37.9547,-19.15396 -36.8348,-36.74044 0.4606,-7.23422 3.022,-11.75788 8.1629,-14.41634 5.7521,-2.97451 8.155,-2.52525 44.6344,8.34513 33.541,9.99477 39.6992,19.28751 22.6828,34.22876 -12.8228,11.25901 -21.4519,13.17549 -38.6453,8.58289 z"
       id="p46" /><path
       style="fill:#000000"
       d="m 1918.4139,445.82134 c -23.4867,-8.49416 -31.6286,-22.99614 -27.5772,-49.11956 1.3588,-8.76221 3.5129,-13.59334 7.2918,-16.35434 3.8639,-2.82301 7.8471,-1.37962 22.4477,8.13428 9.5561,6.2269 13.8378,8.34729 21.3925,10.59401 18.2843,5.43761 21.788,6.75103 24.3546,9.12969 6.2763,5.81664 1.2702,16.54994 -13.0914,28.06843 -13.8599,11.11623 -23.313,13.70837 -34.818,9.54749 z"
       id="path1994" /><path
       style="fill:#000000"
       d="m 2200.7841,446.79339 c -8.036,-2.57046 -17.1549,-8.41783 -25.5215,-16.36525 -12.6731,-12.0383 -12.125,-17.27945 2.2585,-21.59378 35.0499,-10.51318 39.3065,-12.12215 42.1525,-15.93342 10.9786,-14.70222 22.5177,-18.12933 32.7661,-9.73153 6.1477,5.03758 7.9349,11.22967 7.2142,24.99497 -0.6804,12.99616 -2.356,17.0152 -10.117,24.26649 -14.7077,13.74193 -33.4404,19.26054 -48.7528,14.36252 z"
       id="path1990" /><path
       style="fill:#000000"
       d="m 1508.6765,447.24935 c -5.0703,-1.94563 -11.4169,-6.47886 -16.3909,-11.70775 -13.8827,-14.59398 -14.1156,-23.22564 -0.7981,-29.57631 1.7219,-0.82111 3.8939,-2.78495 4.8267,-4.36408 6.2085,-10.5102 26.0535,-15.56318 51.4905,-13.11071 11.0628,1.0666 14.9898,8.70123 13.7392,26.71128 -1.1095,15.9787 -7.6331,25.275 -21.4775,30.60572 -7.2872,2.80592 -25.6385,3.64886 -31.3899,1.44185 z"
       id="path1986" /><path
       style="fill:#000000"
       d="m 1806.4139,448.77317 c -11.3407,-1.37495 -23.5,-8.71203 -23.5,-14.18023 0,-4.17979 7.6303,-16.88384 11.4812,-19.1157 0.6876,-0.39849 3.8688,-3.99849 7.0693,-8 8.6843,-10.85779 17.4518,-19.66594 21.9495,-22.05128 5.7541,-3.05174 16.3038,-2.78659 28.4777,0.71576 14.685,4.22475 20.0223,7.71975 20.0223,13.11112 0,2.65685 -5.1252,10.46327 -9.3113,14.18233 -1.7538,1.55818 -5.2137,5.48705 -7.6887,8.73083 -16.9652,22.23485 -29.2003,28.94705 -48.5,26.60717 z"
       id="path1982" /><path
       style="fill:#000000"
       d="m 1724.4139,449.00178 c -17.7838,-2.37316 -39.2618,-16.01171 -40.9499,-26.00313 -1.4307,-8.46828 2.1801,-14.39097 15.0644,-24.70947 9.5973,-7.68612 21.5828,-10.30431 34.562,-7.54995 7.6335,1.61996 21.3742,10.44871 27.2077,17.48171 11.7306,14.14264 -0.8183,36.3171 -22.8581,40.39138 -5.9008,1.09082 -7.4282,1.13648 -13.0261,0.38946 z"
       id="path1978" /><path
       style="fill:#000000"
       d="m 1430.9139,452.01616 c -16.4934,-2.51849 -33.401,-16.381 -38.0165,-31.16972 -5.856,-18.76318 2.7112,-48.14466 14.0383,-48.14466 4.0055,0 11.981,5.75612 15.7131,11.34047 1.9159,2.86675 5.5857,6.36468 9,8.57852 3.1708,2.05592 9.6685,6.89248 14.4393,10.74793 6.4161,5.18504 10.6559,7.73266 16.2867,9.78632 12.1412,4.42815 16.3351,12.40705 10.6891,20.33609 -7.0056,9.83838 -30.7359,20.26795 -42.15,18.52505 z"
       id="path1974" /><path
       style="fill:#000000"
       d="m 1619.9139,452.35705 c -1.925,-0.7588 -4.7669,-1.89168 -6.3153,-2.51752 -4.5406,-1.83524 -13.5404,-11.59286 -16.4817,-17.8695 -2.57,-5.48445 -2.6975,-6.48166 -2.5912,-20.26825 0.1178,-15.28361 2.3307,-30.66205 5.0068,-34.79463 3.8533,-5.95033 9.3978,-4.63053 19.6836,4.68544 12.6488,11.45608 33.1035,25.72835 41.7066,29.10082 10.9688,4.29982 13.9851,10.85806 8.3235,18.09734 -3.4647,4.43025 -21.2779,17.91718 -28.3128,21.43658 -6.5503,3.27691 -15.7456,4.20859 -21.0195,2.12972 z"
       id="path1970" /><path
       style="fill:#000000"
       d="m 2002.7116,452.58463 c -2.6424,-2.81443 -6.4308,-8.40815 -8.4187,-12.43048 -8.4983,-17.19506 -2.7497,-31.52774 19.4908,-48.59525 24.0385,-18.44743 37.116,-14.8042 41.7922,11.64288 1.6613,9.39583 1.0374,12.97565 -4.1761,23.96215 -4.2506,8.95727 -17.1449,22.00805 -22.7906,23.06719 -1.8976,0.35598 -5.6095,2.1825 -8.2487,4.05895 -7.3928,5.25607 -11.4843,4.8607 -17.6489,-1.70544 z"
       id="path1966" /><path
       style="fill:#000000"
       d="m 1913.45,540.65013 c -12.3532,-4.38451 -17.9079,-11.48355 -17.3354,-22.15525 0.4689,-8.74097 3.3705,-12.93821 15.2085,-21.99949 12.2495,-9.37624 13.3583,-9.19508 27.6782,4.52232 5.2732,5.05124 12.1251,11.43407 15.2266,14.18407 9.4847,8.40993 9.7881,12.94256 1.2294,18.37029 -12.051,7.64257 -31.2855,10.8835 -42.0073,7.07806 z"
       id="path1962" /><path
       style="fill:#000000"
       d="m 1311.4139,546.82873 c -6.4162,-1.66948 -15.6914,-6.58089 -18.5269,-9.81039 -6.9037,-7.86288 -0.5249,-25.81225 14.047,-39.52669 23.8252,-22.42331 27.2619,-23.82125 34.4663,-14.01956 8.6506,11.76931 15.3423,30.30156 13.9538,38.64447 -1.5348,9.22182 -8.6837,17.96987 -18.2923,22.38389 -6.0094,2.76064 -19.3366,3.97047 -25.6479,2.32828 z"
       id="path1958" /><path
       style="fill:#000000"
       d="m 2194.1022,547.01893 c -9.3976,-3.32372 -18.6019,-15.75996 -23.8365,-32.2062 -5.2208,-16.40303 -2.9079,-19.10753 16.3485,-19.11637 6.6099,-0.003 17.8657,-0.89597 25.5915,-2.03021 12.7994,-1.8791 18.7037,-3.52016 37.2082,-10.34169 7.5663,-2.78926 13.3917,-3.33094 15.3,-1.42268 1.6795,1.67954 1.5191,27.48484 -0.2213,35.59874 -3.5578,16.58637 -14.5787,24.29579 -41.7177,29.18258 -13.0989,2.35867 -22.6374,2.47039 -28.6727,0.33583 z"
       id="path1954" /><path
       style="fill:#000000"
       d="m 1720.1836,547.7111 c -9.9987,-2.12322 -16.6812,-6.87301 -22.4472,-15.9551 -4.7277,-7.4466 -2.8308,-16.49311 5.7417,-27.38275 14.1469,-17.97091 36.7655,-14.59697 49.1297,7.32853 7.8348,13.89344 7.9924,19.83855 0.7272,27.42103 -7.6211,7.95378 -20.4673,11.28175 -33.1514,8.58829 z"
       id="path1950" /><path
       style="fill:#000000"
       d="m 1625.9139,547.98674 c -10.5206,-1.86289 -21.4927,-10.59035 -26.2309,-20.86462 -3.4442,-7.46828 -3.1477,-26.84018 0.6326,-41.33388 4.2091,-16.13809 6.9495,-20.09813 13.8872,-20.06843 5.4391,0.0233 7.9421,2.96958 17.1995,20.24582 7.2516,13.53319 8.8011,15.24201 21.5116,23.72433 12.9974,8.6738 16.3259,13.85531 13.4242,20.89732 -0.8192,1.98797 -2.0372,4.0645 -2.7068,4.6145 -0.6696,0.55 -2.9259,3.12628 -5.014,5.72508 -5.4653,6.80209 -18.3955,9.5934 -32.7034,7.05988 z"
       id="path1946" /><path
       style="fill:#000000"
       d="m 1230.4139,550.02216 c -17.5621,-3.93057 -31.9234,-13.67872 -37.7835,-25.64666 -3.8119,-7.78478 -6.9522,-24.33615 -6.5478,-34.51032 0.4972,-12.51093 5.1328,-15.58435 17.4031,-11.53844 6.0848,2.00631 8.4301,4.14661 9.319,8.50445 0.6876,3.37059 0.6876,3.37059 18.1484,8.74739 17.4608,5.3768 17.4608,5.3768 21.1589,3.25 4.777,-2.74728 8.0904,-2.6713 14.5445,0.33354 10.3604,4.8235 10.5658,14.19876 0.65,29.66563 -12.3011,19.1875 -21.7096,24.59253 -36.8926,21.19441 z"
       id="path1942" /><path
       style="fill:#000000"
       d="m 2107.1142,550.29955 c -9.2674,-2.33231 -28.9471,-19.00244 -29.3558,-24.86651 -0.6408,-9.19192 5.2677,-15.28781 16.7107,-17.24082 5.066,-0.86464 25.2679,-6.16392 30.3976,-7.97381 2.4065,-0.84906 6.4441,-3.94417 10.3751,-7.95331 9.2359,-9.41956 15.1476,-9.23494 20.2855,0.6335 4.4856,8.61566 5.9009,29.87215 2.4892,37.38416 -5.7995,12.76938 -34.6383,24.10993 -50.9023,20.01679 z"
       id="path1938" /><path
       style="fill:#000000"
       d="m 2028.4139,550.30889 c -2.9302,-1.28402 -8.1757,-6.58924 -13.799,-13.95619 -1.5395,-2.01679 -4.9165,-4.73988 -7.5044,-6.05131 -6.2984,-3.19161 -15.6719,-11.01449 -18.3074,-15.27888 -2.9376,-4.75312 -2.1172,-9.73049 2.7573,-16.72813 7.1017,-10.19507 14.4682,-11.14088 29.7394,-3.81836 4.4627,2.13987 11.1646,4.69456 14.8929,5.67708 6.3212,1.66579 14.3635,6.144 21.0336,11.71212 6.1002,5.09248 4.9612,14.10931 -3.254,25.75907 -9.1094,12.91797 -16.5729,16.62208 -25.5584,12.6846 z"
       id="path1934" /><path
       style="fill:#000000"
       d="m 1514.7454,550.9934 c -1.7201,-0.26348 -5.2753,-3.14192 -10.0044,-8.10017 -4.0348,-4.2303 -9.5127,-9.43575 -12.1731,-11.56767 -6.3396,-5.08043 -8.6535,-9.00661 -8.6185,-14.62378 0.048,-7.7204 3.1513,-9.66156 29.3794,-18.37839 20.0762,-6.67228 23.2542,-6.89621 36.2805,-2.5565 15.5611,5.18419 17.782,8.22335 13.6152,18.63179 -3.0613,7.64694 -7.777,12.73571 -16.1702,17.4494 -3.1022,1.74225 -9.0619,6.45811 -13.2437,10.47968 -9.3641,9.00533 -11.2503,9.86263 -19.0652,8.66564 z"
       id="path1930" /><path
       style="fill:#000000"
       d="m 1819.9139,551.76665 c -13.3087,-4.06298 -21.6861,-15.56039 -24.0119,-32.95452 -3.7036,-27.69983 16.2088,-63.55184 30.1796,-54.33777 7.8241,5.16019 12.118,13.70241 10.4191,20.72742 -0.6541,2.70473 -0.018,3.83659 6.4658,11.5 3.9552,4.675 9.2739,11.31249 11.8193,14.74999 3.6236,4.89353 5.1956,6.24998 7.2432,6.25 5.4295,3e-5 10.8849,6.81877 10.8849,13.60519 0,11.2499 -36.727,25.42767 -53,20.45969 z"
       id="path1926" /><path
       style="fill:#000000"
       d="m 1429.9139,551.30488 c -14.897,-3.81041 -15.5871,-4.18839 -22.5536,-12.35313 -16.4623,-19.29376 -16.2022,-31.38641 1.0708,-49.77163 9.2893,-9.88747 23.6613,-8.33092 35.7299,3.8697 18.8912,19.09778 21.0909,48.54784 4.387,58.73336 -3.9094,2.38387 -7.8387,2.28301 -18.6341,-0.4783 z"
       id="path1922" /><path
       style="fill:#000000"
       d="m 2112.8645,643.64086 c -17.3606,-2.556 -28.3338,-12.49848 -33.9869,-30.79442 -5.2449,-16.97464 1.5444,-23.345 21.5363,-20.20727 18.7268,2.93919 29.8725,2.43842 44.3553,-1.99286 10.6053,-3.24487 16.6466,-1.97545 19.1298,4.01961 2.7361,6.60537 -2.5015,20.63721 -12.3749,33.15346 -11.7606,14.90853 -20.5179,18.49248 -38.6596,15.82148 z"
       id="path1918" /><path
       style="fill:#000000"
       d="m 1613.1999,643.31092 c -6.3944,-2.08929 -12.7013,-6.1256 -18.6568,-11.94002 -8.9686,-8.75616 -8.7976,-14.17333 0.758,-24.01539 6.7821,-6.98532 12.343,-10.26356 22.9681,-13.53985 8.4182,-2.5958 11.1321,-2.63083 18.4262,-0.23782 3.1452,1.03183 8.8895,2.81699 12.7651,3.96702 17.4013,5.1635 20.6412,13.80479 9.757,26.02362 -13.3812,15.02196 -33.7369,23.755 -46.0176,19.74244 z"
       id="path1914" /><path
       style="fill:#000000"
       d="m 1919.8963,645.3479 c -21.8188,-5.88702 -34.3751,-30.79303 -26.0373,-51.64612 4.1459,-10.36903 8.8249,-13.05163 18.2362,-10.45526 2.9253,0.80701 8.8626,2.12848 13.1941,2.9366 13.2837,2.47831 23.9985,9.53051 28.6887,18.88218 1.6928,3.37506 4.0087,7.34046 5.1465,8.81199 1.2199,1.57781 2.2709,4.78066 2.5617,7.80657 0.4875,5.07417 0.4389,5.18198 -4.3897,9.72341 -7.805,7.34098 -15.7078,11.98071 -23.3779,13.72524 -8.0008,1.81975 -8.072,1.82084 -14.0223,0.21539 z"
       id="path1910" /><path
       style="fill:#000000"
       d="m 1315.2662,645.64678 c -17.7161,-2.3094 -27.3552,-13.40327 -26.1479,-30.09405 1.0534,-14.56371 9.4147,-18.2014 39.5303,-17.19821 21.7995,0.72616 22.6251,0.99445 28.0245,9.10714 8.7399,13.1318 8.1059,20.52478 -2.6851,31.3125 -7.8145,7.81204 -17.8506,9.59332 -38.7218,6.87262 z"
       id="path1906" /><path
       style="fill:#000000"
       d="m 1214.4139,645.67977 c -11.0109,-2.21011 -21.8128,-8.2316 -25.5776,-14.25823 -2.2274,-3.56557 -1.9711,-11.22812 0.5808,-17.36616 2.4434,-5.87704 22.995,-18.69636 34.9569,-21.8048 31.8999,-8.28957 48.7176,15.58902 27.404,38.90951 -11.1963,12.25051 -23.9595,17.21027 -37.3641,14.51968 z"
       id="path1902" /><path
       style="fill:#000000"
       d="m 2204.9953,646.17787 c -13.5412,-3.802 -28.0814,-18.24834 -28.0814,-27.89999 0,-4.21764 0.3221,-4.79772 4.25,-7.65276 2.3375,-1.69906 5.7611,-3.72422 7.608,-4.50036 1.8468,-0.77613 5.5253,-3.00217 8.1744,-4.94676 4.8989,-3.59612 18.225,-10.13455 25.4543,-12.48911 2.1927,-0.71415 6.2427,-2.34901 9,-3.63301 5.2887,-2.46281 12.3234,-3.06127 15.5687,-1.32446 3.6438,1.95009 7.461,13.26286 8.6274,25.56803 0.6973,7.35669 -2.2911,18.27758 -6.4882,23.71038 -8.5626,11.08366 -29.3921,17.30138 -44.1132,13.16804 z"
       id="path1898" /><path
       style="fill:#000000"
       d="m 1814.4139,646.50637 c -11.814,-1.47332 -31.6891,-14.22613 -35.1755,-22.57029 -2.8098,-6.72491 4.0664,-12.16504 34.6755,-27.43342 5.9963,-2.9911 12.1902,-7.11159 16.7944,-11.17258 8.0211,-7.07469 10.9632,-8.33439 14.9698,-6.40956 6.0554,2.90914 12.1755,23.81504 10.917,37.29196 -1.8121,19.40514 -20.7032,32.97241 -42.1812,30.29389 z"
       id="path1894" /><path
       style="fill:#000000"
       d="m 1516.1757,646.33727 c -19.7963,-7.53726 -30.137,-28.53039 -23.194,-47.08719 7.9701,-21.30212 25.718,-28.18419 36.438,-14.12952 1.442,1.89048 4.9555,5.20225 7.808,7.35949 8.2835,6.2647 16.3954,14.93975 19.2068,20.54019 1.4307,2.84985 4.1488,7.42639 6.0403,10.1701 5.7059,8.27663 4.6366,11.20651 -6.5609,17.9772 -12.4326,7.51753 -28.1882,9.56725 -39.7382,5.16973 z"
       id="path1890" /><path
       style="fill:#000000"
       d="m 1716.6264,649.2274 c -22.3959,-4.66333 -33.7125,-18.95916 -33.7125,-42.58784 0,-14.51382 4.9218,-17.81985 20.1449,-13.53162 19.9145,5.60975 31.4186,6.63681 45.8551,4.09384 12.7351,-2.24329 17.2419,-2.00874 20.9232,1.08889 10.1621,8.5508 -5.7213,40.66208 -24.219,48.96334 -7.3543,3.30045 -18.8579,4.08346 -28.9917,1.97339 z"
       id="path1886" /><path
       style="fill:#000000"
       d="m 1994.9139,655.73881 c -4.2221,-3.23999 -4.2627,-22.98761 -0.077,-37.58762 1.6948,-5.91217 3.6205,-11.4694 4.2794,-12.3494 3.2394,-4.32667 6.923,-7.78827 13.4829,-12.67056 4.4765,-3.3317 8.7075,-7.58964 11.2242,-11.29557 4.5811,-6.74609 7.9378,-9.72171 11.9641,-10.60604 7.7899,-1.71095 11.5262,4.2486 13.2514,21.13637 3.2328,31.64686 -1.5457,42.12369 -25.7688,56.49734 -13.6511,8.10039 -23.6123,10.51569 -28.3558,6.87548 z"
       id="path1882" /><path
       style="fill:#000000"
       d="m 1436.4139,662.03428 c -17.9854,-4.84733 -29.7677,-10.45653 -35.3722,-16.83967 -4.3225,-4.92312 -5.4832,-10.20517 -4.7511,-21.6221 2.808,-43.78922 3.0907,-45.35624 8.8131,-48.8451 6.511,-3.96962 12.8158,-1.58772 19.7845,7.47437 3.4302,4.46076 6.1536,6.76962 10.6158,9 15.431,7.71304 16.7316,10.7498 13.7868,32.1898 -0.4236,3.08352 0.1425,6.30282 2.1439,12.1924 3.5835,10.54495 3.3005,19.751 -0.7309,23.78238 -2.6513,2.65135 -9.5633,3.94181 -14.2899,2.66792 z"
       id="path1878" /><path
       style="fill:#000000"
       d="m 1708.8432,741.33441 c -9.9089,-2.67174 -19.8207,-10.76012 -24.3679,-19.88518 -6.0814,-12.20378 -2.0064,-17.47203 19.0631,-24.64504 13.4645,-4.58393 24.1264,-5.08954 35.6406,-1.69016 4.8208,1.42326 9.6426,2.58775 10.715,2.58775 3.7983,0 11.5509,3.16464 13.7699,5.62093 4.6892,5.19071 2.8813,14.58339 -4.4613,23.1781 -11.6113,13.59107 -32.3317,19.69439 -50.3594,14.8336 z"
       id="path1874" /><path
       style="fill:#000000"
       d="m 2209.0563,741.70234 c -11.4514,-4.11944 -23.1424,-17.67508 -23.1424,-26.83358 0,-5.94606 8.3739,-11.99205 19.6538,-14.19016 7.2432,-1.41146 22.5731,1.87378 31.7877,6.8122 5.568,2.98403 10.5585,10.7848 10.5585,16.50414 0,13.01713 -22.8941,23.44996 -38.8576,17.7074 z"
       id="path1870" /><path
       style="fill:#000000"
       d="m 2097.8118,741.45178 c -1.9203,-1.27153 -4.4851,-4.43221 -5.8979,-7.26801 -1.375,-2.75991 -3.9749,-7.56126 -5.7775,-10.66967 -5.2865,-9.11624 -4.6108,-15.33028 2.0938,-19.25444 7.6705,-4.48946 45.693,-14.49537 55.2379,-14.53624 8.2413,-0.0353 13.9313,4.18322 15.4391,11.44636 2.0436,9.84386 0.219,15.74278 -7.5379,24.37035 -11.98,13.3246 -43.3775,22.65264 -53.5575,15.91165 z"
       id="path1866" /><path
       style="fill:#000000"
       d="m 1834.9139,748.33517 c -7.3492,-2.15859 -27.0818,-8.69074 -33,-10.92407 -14.7039,-5.54876 -16.5308,-12.10779 -6.3464,-22.78508 2.9727,-3.11653 7.0792,-7.94072 9.1256,-10.72042 18.1328,-24.63037 19.5625,-26.17171 24.9452,-26.89369 6.9446,-0.93146 11.4121,6.70864 20.4952,35.04978 8.8248,27.53537 2.9226,41.6022 -15.2196,36.27348 z"
       id="path1862" /><path
       style="fill:#000000"
       d="m 1319.4139,748.02759 c -1.65,-0.87676 -5.25,-3.68413 -8,-6.2386 -2.75,-2.55446 -8.9375,-7.9165 -13.75,-11.91562 -9.2895,-7.71942 -10.4558,-10.10035 -7.5867,-15.48733 2.1014,-3.94541 14.7636,-11.67195 27.8367,-16.98603 14.7863,-6.01049 19.0764,-5.68545 26.6685,2.02053 2.1073,2.13888 5.4715,5.11935 7.476,6.62328 8.6159,6.46438 7.7719,9.29587 -8.2773,27.77026 -14.8999,17.15128 -16.7775,18.24649 -24.3672,14.21351 z"
       id="path1858" /><path
       style="fill:#000000"
       d="m 1221.9381,749.09869 c -20.2902,-5.45248 -29.7267,-22.35942 -28.8623,-51.71143 0.5693,-19.33423 0.7305,-19.35828 40.8381,-6.09469 5.775,1.9098 15.45,4.95039 21.5,6.75688 16.7756,5.00909 19.5,6.91423 19.5,13.63625 0,4.57645 -2.3223,8.41365 -11.5858,19.14323 -15.8093,18.31157 -25.4306,22.55845 -41.39,18.26976 z"
       id="path1854" /><path
       style="fill:#000000"
       d="m 1607.5469,752.45178 c -1.8357,-1.7875 -4.8321,-6.60532 -6.6588,-10.70627 -3.298,-7.40393 -3.3134,-7.51046 -2.1962,-15.17554 1.3057,-8.95829 0.7065,-11.87973 -3.9132,-19.07884 -7.8552,-12.24126 -3.5722,-25.78935 8.1528,-25.78935 5.1454,0 27.3283,10.53247 40.9824,19.45851 3.575,2.33708 7.7576,5.01352 9.2946,5.94766 6.6362,4.03315 5.9006,8.14642 -3.253,18.18799 -3.7239,4.08516 -8.465,10.23518 -10.5357,13.6667 -9.2935,15.40083 -11.0461,16.73914 -21.9217,16.73914 -6.1102,0 -6.8676,-0.24738 -9.9512,-3.25 z"
       id="path1850" /><path
       style="fill:#000000"
       d="m 1997.2593,756.81797 c -4.3299,-2.70496 -4.9005,-6.24548 -2.283,-14.16429 3.4265,-10.36604 3.9834,-39.59708 0.9598,-50.3726 -3.1665,-11.28487 -0.7951,-18.5793 6.0402,-18.5793 8.1154,0 29.944,8.49951 38.5864,15.02465 8.9732,6.77482 10.8533,11.19334 10.8399,25.47535 -0.017,17.76224 -4.3424,27.96514 -14.8771,35.09067 -10.7168,7.24873 -32.9029,11.50079 -39.2662,7.52552 z"
       id="path1846" /><path
       style="fill:#000000"
       d="m 1498.2426,758.24402 c -6.2252,-2.70793 -6.8545,-9.34554 -1.9099,-20.14595 1.9227,-4.19975 3.1191,-9.33625 4.1676,-17.89352 0.8088,-6.60152 1.7268,-12.83327 2.0398,-13.84832 0.3131,-1.01505 1.1448,-7.96557 1.8482,-15.44559 1.1996,-12.75566 1.4454,-13.74311 3.9581,-15.90445 6.5352,-5.62137 20.3332,-0.51873 33.0445,12.22015 17.6817,17.72005 18.2896,38.26594 1.6075,54.32272 -6.7031,6.45182 -22.0775,14.22459 -32.7819,16.57342 -8.5139,1.86816 -7.9713,1.86265 -11.9739,0.12154 z"
       id="path1842" /><path
       style="fill:#000000"
       d="m 1441.4139,759.57176 c -16.3878,-3.80655 -32.2535,-9.975 -38.6971,-15.04514 -11.9125,-9.37337 -12.8257,-34.44964 -1.8084,-49.65861 7.5022,-10.35642 37.372,-25.04795 46.3463,-22.79553 5.8884,1.47789 6.8628,3.99136 6.2532,16.1293 -1.78,35.43606 -1.8248,47.19424 -0.2012,52.77932 2.5193,8.66625 2.1542,13.32751 -1.3159,16.7976 -3.0913,3.09125 -4.1877,3.27714 -10.5769,1.79306 z"
       id="path1838" /><path
       style="fill:#000000"
       d="m 1934.9139,761.31033 c -18.1688,-5.46397 -31.048,-14.24273 -36.8364,-25.10855 -2.4789,-4.65319 -2.6627,-5.86703 -2.6507,-17.5 0.021,-20.06135 4.2523,-28.54404 19.3166,-38.72267 14.9088,-10.07352 27.4144,-13.55205 32.6208,-9.0737 3.7606,3.23471 4.1761,8.28572 2.6135,31.76718 -1.3005,19.5418 -0.8374,24.91605 3.4496,40.02919 2.4062,8.48259 0.5212,15.57944 -5.0532,19.02456 -3.8896,2.40392 -4.1056,2.39724 -13.4602,-0.41601 z"
       id="path1834" /><path
       style="fill:#000000"
       d="m 1909.0108,842.22095 c -14.2431,-3.23876 -25.9826,-16.55201 -26.8368,-30.43428 -0.404,-6.56506 0.9351,-9.62594 5.5809,-12.75675 3.1956,-2.15351 4.0906,-2.22735 25.4854,-2.10259 22.1736,0.12931 22.1736,0.12931 28.6736,-3.04733 7.4138,-3.62324 12.1521,-3.99269 16.5797,-1.29275 9.489,5.78638 5.0555,26.93578 -8.6175,41.10842 -8.2084,8.50839 -25.2786,12.06956 -40.8653,8.52528 z"
       id="path1830" /><path
       style="fill:#000000"
       d="m 1713.9139,842.27081 c -14.9969,-4.17293 -29.4173,-21.38617 -33.1801,-39.60627 -2.0511,-9.93156 0.9322,-13.51163 12.8664,-15.44044 4.0535,-0.65513 11.3137,1.54668 11.3137,3.43111 0,2.1176 6.2695,3.20787 17.8871,3.11057 15.0687,-0.1262 16.5348,-0.45301 21.6129,-4.81774 3.7976,-3.2642 4.305,-3.41469 10.0294,-2.97505 6.5913,0.50623 13.8083,3.62276 15.4371,6.66631 5.938,11.09519 -16.6411,45.3804 -32.9701,50.06349 -4.7012,1.3483 -17.4597,1.10864 -22.9964,-0.43198 z"
       id="path1826" /><path
       style="fill:#000000"
       d="m 2116.4139,844.06406 c -19.6343,-4.88417 -27.4978,-14.05123 -28.2925,-32.98272 -0.518,-12.34054 1.038,-18.52433 6.8518,-27.23061 6.9132,-10.35248 19.2045,-21.14895 24.0773,-21.14895 3.4191,0 8.5713,5.79997 11.3401,12.76577 1.4722,3.70382 4.6212,10.33423 6.9979,14.73423 4.4085,8.16153 7.6962,17.44569 9.0301,25.5 0.4099,2.475 2.0305,6.3 3.6014,8.5 5.3276,7.46133 4.7169,14.91639 -1.497,18.27464 -3.0856,1.66761 -27.0285,2.85147 -32.1091,1.58764 z"
       id="path1822" /><path
       style="fill:#000000"
       d="m 1515.3668,842.8386 c -13.8402,-4.7246 -29.4529,-22.6904 -29.4529,-33.89194 0,-9.04641 5.6226,-11.51947 31.5,-13.85485 3.85,-0.34746 11.5,-1.70177 17,-3.00959 12.0341,-2.86154 13.7659,-2.8966 19.2876,-0.39052 6.0391,2.7409 7.6924,6.90936 6.2999,15.88395 -2.6947,17.36798 -10.4478,30.65897 -20.5653,35.25505 -5.2259,2.37394 -17.1269,2.37784 -24.0693,0.008 z"
       id="path1818" /><path
       style="fill:#000000"
       d="m 1208.0301,846.72247 c -4.0611,-1.09908 -10.5861,-3.71957 -14.5,-5.82332 l -7.1162,-3.82499 -0.2482,-9.43619 -0.2481,-9.43619 6.2481,-4.48877 c 3.4365,-2.46882 9.6269,-6.51882 13.7564,-9 11.9015,-7.15086 16.6015,-10.69839 20.5372,-15.50136 12.6482,-15.43544 24.4656,-9.50348 30.9739,15.54798 7.2063,27.73793 -19.1728,50.14422 -49.4031,41.96284 z"
       id="path1814" /><path
       style="fill:#000000"
       d="m 1320.6314,848.6102 c -15.791,-3.71834 -26.7286,-23.73057 -23.5972,-43.17501 1.9253,-11.95477 11.1776,-29.24782 17.6822,-33.04901 8.0658,-4.7135 12.274,-2.08179 19.8538,12.41616 4.0075,7.66518 7.8997,13.4116 12.387,18.28832 3.5988,3.91111 7.4238,8.27777 8.5,9.70367 1.0762,1.4259 4.5442,6.01444 7.7067,10.19677 3.4107,4.51065 5.75,8.61332 5.75,10.08465 0,8.50673 -33.016,19.12931 -48.2825,15.53445 z"
       id="path1810" /><path
       style="fill:#000000"
       d="m 2216.9139,849.32199 c -20.8039,-5.75485 -32.9083,-33.13331 -23.2902,-52.67935 4.8373,-9.83038 25.0202,-28.94086 30.565,-28.94086 2.6186,0 7.3342,5.25723 8.7771,9.78516 0.6511,2.04316 3.3723,7.1643 6.0472,11.38032 4.8575,7.65604 7.8904,14.2773 10.4949,22.91121 0.7593,2.51719 3.4113,8.92233 5.8933,14.23367 5.2978,11.33709 5.9259,17.01421 2.2627,20.4535 -4.034,3.78748 -30.6417,5.65253 -40.75,2.85635 z"
       id="path1806" /><path
       style="fill:#000000"
       d="m 1416.7,848.20523 c -15.7289,-5.50001 -22.7861,-11.04877 -22.7861,-17.91575 0,-6.0897 13.8009,-30.95175 19.74,-35.5611 3.2985,-2.56002 15.2438,-11.59076 19.6334,-14.84311 4.5476,-3.36936 13.883,-2.75502 22.1266,1.45608 10.9863,5.61216 11.9827,10.83066 5.7067,29.88831 -11.5186,34.97699 -22.9423,44.48601 -44.4206,36.97557 z"
       id="path1802" /><path
       style="fill:#000000"
       d="m 1804.7832,849.25875 c -4.3255,-2.93928 -13.0511,-14.45378 -15.9934,-21.10524 -7.1558,-16.17683 4.8106,-38.34544 25.1244,-46.54476 12.153,-4.90537 30.496,-2.23072 38.7159,5.64531 5.6342,5.39849 5.8332,9.58867 0.8309,17.49196 -1.8992,3.00067 -4.5331,7.70576 -5.8531,10.45576 -2.6583,5.53839 -13.0431,18.72165 -19.8174,25.15788 -2.407,2.28683 -5.8516,5.77433 -7.6546,7.75 -4.1514,4.54883 -9.7346,4.9667 -15.3527,1.14909 z"
       id="path1798" /><path
       style="fill:#000000"
       d="m 2016.2348,851.66058 c -17.1793,-8.93078 -18.1416,-10.52102 -19.9166,-32.91432 -2.6176,-33.02411 -2.0925,-36.92715 5.8305,-43.33494 6.787,-5.48906 10.1295,-6.14857 18.3432,-3.61922 8.8322,2.71984 11.5922,4.16599 16.6349,8.71625 5.3056,4.7875 6.3717,7.54676 7.8087,20.20987 1.03,9.07655 1.7123,11.43956 5.0841,17.60667 3.3777,6.17782 3.8938,7.96937 3.889,13.5 -0.011,13.05343 -3.5715,18.44907 -14.3382,21.73101 -12.319,3.75512 -12.4936,3.74093 -23.3356,-1.89532 z"
       id="path1794" /><path
       style="fill:#000000"
       d="m 1635.3032,865.54333 c -1.161,-0.5627 -4.6407,-5.36974 -7.7327,-10.68232 -3.092,-5.31258 -7.7627,-11.90923 -10.3794,-14.65923 -5.1495,-5.4118 -19.0047,-22.79934 -24.8847,-31.229 -6.5023,-9.32161 -4.8493,-17.08017 4.9943,-23.4424 8.3868,-5.42068 18.1697,-8.30917 28.1135,-8.30075 9.883,0.008 13.9806,1.93519 21.4156,10.07016 19.4283,21.25775 19.9327,46.72964 1.4349,72.47717 -4.939,6.87473 -7.9295,8.20516 -12.9615,5.76637 z"
       id="path1790" /><path
       style="fill:#000000"
       d="m 2207.6761,939.81848 c -11.012,-3.6327 -18.9072,-10.0742 -25.1973,-20.55787 -8.749,-14.58196 -1.5638,-26.11616 17.4354,-27.98886 3.575,-0.35238 9.2,-1.13469 12.5,-1.73847 15.3801,-2.814 34.5735,5.93858 39.1182,17.83871 7.5891,19.87189 -20.0307,40.30599 -43.8563,32.44649 z"
       id="path1786" /><path
       style="fill:#000000"
       d="m 1325.8206,940.19368 c -15.9409,-4.3722 -25.4696,-14.4108 -31.0327,-32.69358 -4.06,-13.34283 0.9691,-17.34797 16.4819,-13.12613 4.6657,1.26977 10.1042,1.64997 22.5984,1.57982 18.2743,-0.10259 20.8901,0.54335 23.0195,5.68417 1.5674,3.78399 0.905,7.51348 -3.7132,20.90481 -5.9192,17.16381 -12.8422,21.63111 -27.3539,17.65091 z"
       id="path1782" /><path
       style="fill:#000000"
       d="m 1910.9142,941.31798 c -13.0035,-2.5201 -21.1813,-8.9195 -26.9844,-21.1162 -4.1904,-8.8073 -5.326,-16.0808 -3.1992,-20.49211 2.5489,-5.28687 4.9093,-5.97353 20.6836,-6.01688 12.7575,-0.0351 14.5324,-0.26627 20,-2.60531 20.3342,-8.69907 29.3613,-9.84599 34.9425,-4.43953 3.4774,3.36861 3.5575,3.62151 3.5575,11.23804 0,14.63809 -7.4687,32.55139 -15.8976,38.12929 -7.8751,5.2115 -21.9439,7.4652 -33.1024,5.3027 z"
       id="path1778" /><path
       style="fill:#000000"
       d="m 2113.9142,942.28118 c -10.592,-3.0262 -16.8517,-8.0886 -24.923,-20.15615 -11.052,-16.5242 -11.8339,-30.51366 -2.0775,-37.17325 4.6506,-3.1745 7.4033,-2.91362 25.8171,2.44674 16.2273,4.72387 16.3725,4.79187 26.5362,12.42314 17.3399,13.0194 22.3833,24.09813 14.9771,32.89982 -6.8996,8.1998 -27.7723,13.1474 -40.3299,9.5597 z"
       id="path1774" /><path
       style="fill:#000000"
       d="m 1622.0349,945.59398 c -27.3555,-4.6428 -35.5171,-29.53584 -20.1418,-61.4333 5.201,-10.79 7.9545,-13.4589 13.8854,-13.4589 4.3391,0 4.9124,0.34232 10.4234,6.22439 3.2074,3.42341 7.0014,8.37341 8.4309,11 1.4296,2.62659 3.008,4.77561 3.5076,4.77561 1.1447,0 16.7738,16.07781 16.7738,17.25541 0,0.47851 2.8698,2.17128 6.3775,3.76171 11.0634,5.01638 16.0764,12.58878 12.2252,18.46648 -4.8455,7.3951 -37.2247,15.8284 -51.482,13.4086 z"
       id="path1770" /><path
       style="fill:#000000"
       d="m 1501.9142,944.14488 c -10.6646,-3.5024 -16.189,-6.6024 -18.3453,-10.2945 -3.2892,-5.6319 -0.6082,-9.32037 15.6665,-21.55381 10.3859,-7.80697 18.8058,-17.95417 24.142,-29.09479 8.9724,-18.73202 16.0594,-18.12998 25.7655,2.18876 8.8551,18.53734 9.6912,31.52752 2.7277,42.37914 -10.3502,16.1294 -30.5467,22.7496 -49.9564,16.3752 z"
       id="path1766" /><path
       style="fill:#000000"
       d="m 1215.2431,944.60918 c -10.5858,-4.0703 -19.2528,-17.0563 -21.4417,-32.12686 -1.363,-9.38372 -0.6695,-13.69795 2.7118,-16.87061 2.4979,-2.34372 2.9989,-2.4075 18.2347,-2.32146 15.2533,0.0861 16.0301,0.19534 29.4693,4.143 14.1194,4.14748 16.7891,5.61221 19.3876,10.63716 4.3316,8.37641 -9.48,28.83187 -24.1549,35.77437 -7.4663,3.5322 -16.2845,3.8107 -24.2068,0.7644 z"
       id="path1762" /><path
       style="fill:#000000"
       d="m 1812.9142,947.00498 c -10.2754,-1.7443 -27.1492,-8.4523 -31.0342,-12.3374 -5.023,-5.0229 -0.9597,-17.05901 6.9348,-20.54206 2.166,-0.95562 5.5221,-3.63243 7.4581,-5.94847 1.9359,-2.31604 7.7097,-7.59084 12.8306,-11.72176 12.2997,-9.92196 13.7371,-11.34314 17.6091,-17.41081 5.3497,-8.38327 12.2896,-10.34558 17.6457,-4.98946 7.4599,7.45989 12.228,38.44822 7.8796,51.21013 -4.5777,13.43463 -24.2339,24.30153 -39.3237,21.73983 z"
       id="path1758" /><path
       style="fill:#000000"
       d="m 1424.1648,946.15668 c -7.9284,-2.135 -12.6344,-4.9018 -19.1028,-11.2311 -13.3772,-13.08962 -15.3998,-27.89757 -6.5561,-47.99956 8.5891,-19.52331 17.5597,-20.76385 29.9083,-4.13601 12.1594,16.37314 24.0202,26.5944 37.468,32.28872 10.172,4.30727 13.032,7.066 13.032,12.57085 0,5.2371 -3.8204,8.4492 -15.1164,12.7093 -19.072,7.1926 -29.0385,8.6506 -39.633,5.7978 z"
       id="path1754" /><path
       style="fill:#000000"
       d="m 1723.6213,947.54508 c -9.6807,-1.307 -17.1181,-5.6225 -28.514,-16.5452 -10.2226,-9.7981 -10.2226,-9.7981 -10.2079,-15.21024 0.031,-11.42334 9.3396,-20.08373 24.8707,-23.1393 8.6629,-1.70432 24.1054,-0.68324 31.498,2.08268 17.2756,6.46361 28.0492,25.39405 19.9382,35.03346 -12.1467,14.4354 -23.2933,19.7081 -37.585,17.7786 z"
       id="path1750" /><path
       style="fill:#000000"
       d="m 1998.3045,949.70098 c -6.2352,-1.3819 -11.4016,-7.0729 -11.3469,-12.4992 0.056,-5.5968 10.2488,-33.73656 13.8369,-38.20145 7.4232,-9.23718 25.9991,-14.88271 35.6718,-10.84123 5.7276,2.39315 12.9354,9.16029 15.2452,14.31317 7.1024,15.84426 7.7631,18.73921 7.4045,32.44471 -0.1844,7.0488 -0.4675,8.0178 -3.2782,11.219 -4.0508,4.6136 -7.9062,5.2511 -19.371,3.2033 -10.4247,-1.862 -16.3569,-2.043 -23.2534,-0.7095 -7.9111,1.5296 -11.6334,1.7971 -14.9089,1.0712 z"
       id="path1746" /><path
       style="fill:#000000"
       d="m 1708.9142,1035.6192 c -14.4572,-2.5191 -22.4247,-13.6053 -23.6942,-32.9686 -0.6385,-9.73942 0.055,-11.12182 6.4779,-12.90552 6.7427,-1.8727 12.0422,-1.3342 14.659,1.4894 2.3473,2.5327 2.3473,2.5327 20.5596,1.9882 16.3916,-0.4902 18.4739,-0.7503 20.8282,-2.6022 4.3265,-3.4033 15.4851,0.089 18.0132,5.6377 4.427,9.71612 -7.3478,31.12302 -20.6489,37.54032 -5.3634,2.5876 -25.8723,3.6193 -36.1948,1.8207 z"
       id="path1742" /><path
       style="fill:#000000"
       d="m 2200.6768,1040.188 c -12.5346,-4.6042 -27.7626,-22.456 -27.7626,-32.5462 0,-2.6164 0.7453,-4.4126 2.601,-6.2683 3.0081,-3.00812 2.0998,-2.68672 18.681,-6.61072 14.8147,-3.5059 13.8548,-3.0722 28.4073,-12.8358 22.168,-14.8729 29.4098,-10.2458 29.384,18.77482 -0.021,23.7011 -6.0575,33.47 -24.1643,39.1054 -7.2544,2.2579 -21.4926,2.4576 -27.1464,0.3808 z"
       id="path1738" /><path
       style="fill:#000000"
       d="m 1406.9142,1040.7485 c -10.1842,-1.9793 -28,-17.6406 -28,-24.6138 0,-5.798 8.805,-12.0056 15.6905,-11.0618 3.8647,0.5297 5.4295,0.037 13.9379,-4.3872 5.2714,-2.74122 10.0428,-4.98392 10.603,-4.98392 3.3861,0 12.905,-5.5661 14.6886,-8.5889 4.4297,-7.5079 14.9799,-8.1853 18.4025,-1.1817 4.9729,10.176 5.4278,28.57542 0.9148,37.00092 -5.7902,10.8098 -31.4383,20.6927 -46.2373,17.8164 z"
       id="path1734" /><path
       style="fill:#000000"
       d="m 1804.1092,1041.2077 c -8.6142,-2.8229 -19.657,-10.9739 -21.7929,-16.0859 -1.817,-4.3487 -0.2683,-8.7215 4.0294,-11.3777 1.7901,-1.1063 4.9133,-3.3296 6.9405,-4.9406 2.0271,-1.611 7.7817,-5.0446 12.788,-7.6302 6.3697,-3.28982 11.3895,-6.87752 16.7211,-11.95082 12.7117,-12.0957 17.5848,-13.3378 24.6021,-6.2707 8.8846,8.9475 11.85,26.60212 6.2749,37.35762 -3.4673,6.6891 -11.1643,13.4954 -20.4529,18.0861 -8.6956,4.2976 -20.9617,5.4826 -29.1102,2.8122 z"
       id="path1730" /><path
       style="fill:#000000"
       d="m 1922.4142,1042.5399 c -13.8673,-5.1966 -25.4932,-19.5479 -26.3255,-32.4968 -0.8604,-13.38512 11.8586,-37.34132 19.8255,-37.34132 3.3332,0 9.957,6.8107 11.2213,11.5379 1.8318,6.8485 21.9367,29.48562 27.6588,31.14232 5.3661,1.5536 6.7523,2.679 9.193,7.4631 3.9228,7.6895 1.9003,10.1176 -13.1528,15.7901 -11.5303,4.345 -23.0294,5.9249 -28.4203,3.9047 z"
       id="path1726" /><path
       style="fill:#000000"
       d="m 2114.2832,1042.7899 c -7.0167,-3.2357 -15.5855,-12.584 -18.8712,-20.5881 -2.5201,-6.1389 -2.8812,-8.3017 -2.9357,-17.5826 -0.062,-10.58262 -0.062,-10.58262 4.6401,-20.00002 5.3129,-10.6406 16.2297,-23.2938 21.1248,-24.485 5.7527,-1.3998 10.2235,3.913 12.6795,15.0676 1.1713,5.3194 5.8179,14.4827 11.9168,23.5 2.046,3.02502 5.1822,8.25482 6.9693,11.62182 1.8542,3.4932 4.2934,6.5976 5.6807,7.2297 5.4973,2.5047 8.2121,11.7997 4.6767,16.012 -0.978,1.1652 -6.823,3.9059 -13.25,6.2129 -14.219,5.1038 -25.7801,6.1709 -32.631,3.0117 z"
       id="path1722" /><path
       style="fill:#000000"
       d="m 1203.1618,1042.822 c -12.1788,-4.2073 -15.985,-14.3314 -8.7568,-23.2925 6.593,-8.1735 17.0955,-22.33132 19.5303,-26.32772 4.7734,-7.8346 11.378,-12.4907 17.726,-12.4963 6.2209,-0.01 11.1923,4.8732 16.7299,16.418 14.6928,30.63142 3.7026,47.66632 -30.6744,47.54572 -6.3153,-0.022 -10.9893,-0.6154 -14.555,-1.8472 z"
       id="path1718" /><path
       style="fill:#000000"
       d="m 2019.4142,1049.1168 c -2.75,-0.7735 -8.15,-1.9055 -12,-2.5158 -3.85,-0.6102 -8.2577,-1.8462 -9.7949,-2.7465 -8.3218,-4.874 -12.6483,-30.0072 -7.1704,-41.6527 5.1906,-11.03462 19.8233,-19.72752 33.4165,-19.85202 15.7559,-0.1442 40.0753,17.2047 40.038,28.56222 -0.041,12.6064 -12.1187,30.2005 -25.2271,36.7508 -6.7702,3.3831 -11.2109,3.7183 -19.2621,1.454 z"
       id="path1714" /><path
       style="fill:#000000"
       d="m 1330.4142,1052.3472 c -2.75,-1.2842 -7.475,-3.8914 -10.5,-5.7936 -3.7245,-2.3421 -8.7283,-4.2178 -15.5,-5.8103 -10.449,-2.4574 -16.225,-4.8003 -18.4533,-7.4852 -2.0968,-2.5265 -1.5863,-8.6485 1.0669,-12.7951 1.3125,-2.0512 3.898,-6.0991 5.7456,-8.9953 6.1826,-9.6917 22.0638,-21.27542 30.7691,-22.44282 4.7508,-0.6371 13.352,2.9117 20.9372,8.6386 4.1576,3.13902 5.9723,5.54922 9.4233,12.51572 5.8938,11.8977 5.5136,15.0355 -4.2827,35.3429 -1.8989,3.9363 -8.4523,9.1806 -11.459,9.1699 -1.5109,-0.01 -4.9971,-1.0605 -7.7471,-2.3448 z"
       id="path1710" /><path
       style="fill:#000000"
       d="m 1622.37,1054.5873 c -8.892,-2.0268 -15.354,-11.3898 -19.4827,-28.229 -1.1926,-4.8639 -3.0269,-10.7845 -4.0763,-13.1569 -7.3114,-16.52862 -1.1648,-27.49962 15.4068,-27.49962 4.7789,0 9.4338,-0.7055 13.1964,-2 13.267,-4.5645 16.1638,-2.0616 18.5176,16 0.6092,4.67502 2.0472,12.10002 3.1954,16.50002 2.7122,10.3928 2.8763,20.802 0.402,25.5 -5.4423,10.3334 -16.1235,15.401 -27.1592,12.8855 z"
       id="path1706" /><path
       style="fill:#000000"
       d="m 1512.7133,1054.7734 c -8.1566,-1.6326 -16.4555,-10.1202 -19.5068,-19.9503 -0.8524,-2.7459 -1.6684,-11.2093 -2.0108,-20.8555 l -0.5764,-16.23412 4.4146,-4.4146 c 7.372,-7.372 22.6011,-9.5749 33.2419,-4.8085 10.5034,4.7048 21.4487,19.38862 23.756,31.87012 1.9024,10.2907 -3.8312,24.6337 -11.5862,28.9838 -6.9324,3.8886 -21.3142,6.6937 -27.7323,5.4091 z"
       id="path1702" /><path
       style="fill:#000000"
       d="m 2104.7142,1138.6902 c -11.7848,-1.8689 -19.5586,-7.974 -25.0233,-19.6518 -4.2908,-9.1693 -4.3215,-16.5672 -0.084,-20.3531 3.9781,-3.5544 14.3349,-5.9835 25.5116,-5.9835 4.57,0 9.8812,-0.4637 11.8026,-1.0305 5.8539,-1.7269 21.9814,-2.3353 28.0908,-1.0597 7.6716,1.6017 12.4669,6.0019 13.4125,12.3075 2.1212,14.1457 -7.9809,29.369 -22.4681,33.858 -7.5458,2.3381 -22.7073,3.2665 -31.2418,1.9131 z"
       id="path1698" /><path
       style="fill:#000000"
       d="m 1712.4142,1139.3678 c -19.5248,-5.07 -32.768,-25.4848 -25.5952,-39.4558 2.5225,-4.9133 5.8868,-6.7002 16.0952,-8.5489 23.881,-4.3247 45.4108,-2.2813 54.0716,5.132 7.022,6.0106 8.4722,13.4712 3.9279,20.2067 -0.9276,1.375 -2.9487,4.4203 -4.4911,6.7674 -9.0295,13.7395 -27.1346,20.2802 -44.0084,15.8986 z"
       id="path1694" /><path
       style="fill:#000000"
       d="m 1202.1498,1141.7228 c -5.2235,-1.239 -11.0221,-5.6822 -13.3369,-10.2194 -4.3448,-8.5165 0.2979,-24.8206 8.2185,-28.8614 13.0744,-6.6701 19.4673,-8.1496 38.3828,-8.8833 27.0392,-1.0487 28.8744,0.053 28.281,16.9764 -0.6099,17.3916 -6.0672,24.2477 -21.8388,27.4359 -17.5684,3.5514 -33.6453,4.9895 -39.7066,3.5518 z"
       id="path1690" /><path
       style="fill:#000000"
       d="m 1814.4142,1142.3529 c -11.0836,-2.8651 -19.0148,-9.8435 -25.0375,-22.0298 -4.9096,-9.9339 -5.5692,-16.6192 -2.6031,-26.3845 3.9342,-12.9525 10.8627,-19.2368 21.2085,-19.2368 5.852,0 8.8925,2.4351 14.4321,11.559 2.3519,3.8736 4.6918,5.9436 10.8317,9.5822 11.027,6.5348 12.8899,8.6689 18.6053,21.3139 5.2999,11.7258 5.719,13.4507 4.0333,16.6003 -3.1131,5.817 -30.3671,11.466 -41.4703,8.5957 z"
       id="path1686" /><path
       style="fill:#000000"
       d="m 2213.9142,1143.7647 c -10.2029,-3.123 -20.3367,-12.053 -24.5889,-21.668 -4.3741,-9.8905 -5.4729,-27.182 -2.3049,-36.2698 3.5156,-10.0848 21.8446,-8.8897 35.6681,2.3256 2.3593,1.9141 5.9435,3.7418 8,4.0793 18.2578,2.9968 30.101,11.8621 27.8465,20.8447 -0.8924,3.5554 -17.2483,22.1878 -22.5756,25.7177 -7.3725,4.8851 -15.9822,6.8263 -22.0452,4.9705 z"
       id="path1682" /><path
       style="fill:#000000"
       d="m 1998.9142,1143.7647 c -4.3026,-1.317 -13.2972,-6.1989 -17.994,-9.7665 -8.8364,-6.7119 -12.4833,-13.2832 -10.3937,-18.7285 1.3007,-3.3896 12.1151,-10.3658 19.5255,-12.5956 17.7836,-5.351 22.7834,-7.9716 25.5775,-13.4065 2.9355,-5.7099 16.2967,-18.4919 20.518,-19.6286 8.9317,-2.4051 13.5669,2.4307 19.2308,20.0628 5.8672,18.2647 -0.1847,34.4494 -17.2816,46.2172 -10.3624,7.1325 -29.1938,10.9031 -39.1825,7.8457 z"
       id="path1678" /><path
       style="fill:#000000"
       d="m 1608.0682,1142.8833 c -9.8512,-4.1265 -27.4873,-25.3818 -26.954,-32.4855 0.3958,-5.2729 3.2078,-7.2692 12.8,-9.087 15.4971,-2.9368 31.8745,-10.4521 43.8277,-20.1117 5.2168,-4.2158 9.782,-4.6592 12.8409,-1.2473 3.4932,3.8964 5.4561,28.2986 3.2403,40.2846 -2.0395,11.0327 -6.2851,16.4864 -16.4089,21.078 -7.9639,3.6119 -22.6005,4.3944 -29.346,1.5689 z"
       id="path1674" /><path
       style="fill:#000000"
       d="m 1411.1479,1145.2305 c -16.8361,-7.8382 -20.0807,-14.4652 -16.5905,-33.8854 1.9765,-10.9976 4.1262,-15.6039 9.0236,-19.3354 4.8557,-3.6996 18.9365,-3.8655 35.7935,-0.4217 26.5494,5.4239 28.7908,10.2176 15.8339,33.8643 -5.8277,10.6356 -14.0377,19.311 -19.9102,21.0386 -7.1699,2.1093 -18.1424,1.5366 -24.1503,-1.2604 z"
       id="path1670" /><path
       style="fill:#000000"
       d="m 1323.9142,1146.8136 c -17.4934,-5.8343 -30,-20.6431 -30,-35.5224 0,-12.7896 8.5274,-35.9805 14.8982,-40.5169 7.528,-5.3604 13.2208,-1.8704 19.9907,12.2556 7.6386,15.9384 17.9564,25.2264 31.2116,28.0962 17.7614,3.8455 25.465,18.2049 13.116,24.4481 -15.5247,7.8487 -41.5576,13.7937 -49.2165,11.2394 z"
       id="path1666" /><path
       style="fill:#000000"
       d="m 1501.9894,1147.6145 c -12.4446,-2.4415 -25.2763,-8.5696 -27.0844,-12.9348 -1.8936,-4.5716 -0.4361,-6.7605 13.9678,-20.9779 7.5224,-7.425 15.0687,-15.525 16.7695,-18 1.7008,-2.475 5.3758,-6.975 8.1667,-10 2.7909,-3.025 5.0813,-5.7834 5.0897,-6.1297 0.034,-1.4042 9.2202,-12.3653 11.7737,-14.0491 6.904,-4.5527 13.2594,0.049 20.2261,14.646 10.6469,22.3075 9.2295,38.7221 -4.5605,52.8154 -13.8314,14.1355 -26.1526,18.2001 -44.3486,14.6301 z"
       id="path1662" /><path
       style="fill:#000000"
       d="m 1939.9142,1156.054 c -21.2913,-3.1978 -37.2903,-11.2777 -42.578,-21.5031 -7.8328,-15.1469 -3.7564,-43.9836 7.7083,-54.5287 10.572,-9.7239 32.1569,-16.3096 38.6195,-11.7831 3.5036,2.454 5.2499,10.5152 6.2742,28.9627 1.0649,19.179 2.1892,29.2882 4.538,40.8043 3.1325,15.3582 -0.7156,20.1274 -14.562,18.0479 z"
       id="path1658" /><path
       style="fill:#000000"
       d="m 2105.3326,1238.8593 c -16.9082,-6.8014 -20.7621,-14.8219 -14.9507,-31.1148 3.5112,-9.8441 11.2162,-18.9064 17.8849,-21.0355 5.3469,-1.7071 9.4052,-0.8319 25.4705,5.4929 7.6836,3.0249 14.4817,5.4999 15.1068,5.4999 3.855,0 10.9009,5.1198 12.4812,9.0694 3.053,7.6302 0.5752,11.3243 -14.4111,21.4849 -18.8522,12.7818 -29.4484,15.4838 -41.5816,10.6032 z"
       id="path1654" /><path
       style="fill:#000000"
       d="m 2206.1313,1241.1922 c -12.1873,-2.8118 -26.2171,-21.4433 -26.2171,-34.816 0,-10.2506 5.7271,-15.9295 20.9283,-20.7519 22.5106,-7.1413 25.1471,-5.8683 36.9891,17.8589 9.2175,18.4686 8.9809,22.9119 -1.6305,30.6251 -10.1969,7.4119 -19.3263,9.5626 -30.0698,7.0839 z"
       id="path1650" /><path
       style="fill:#000000"
       d="m 2017.3749,1240.8959 c -18.1746,-7.6226 -30.9992,-27.9911 -27.4265,-43.5596 0.6481,-2.824 3.8159,-10.6174 7.0397,-17.3188 10.811,-22.4735 18.0174,-25.4263 29.3062,-12.0083 3.7312,4.435 4.0273,5.221 3.8212,10.1461 -0.2234,5.3387 -0.2234,5.3387 9.3659,16.6926 12.4818,14.7788 13.7858,15.9333 17.2202,15.2464 3.5002,-0.7 7.526,2.3414 10.3021,7.7831 4.2959,8.4206 0.4945,12.8578 -16.4937,19.2521 -14.0887,5.303 -26.1915,6.6787 -33.1351,3.7664 z"
       id="path1646" /><path
       style="fill:#000000"
       d="m 1817.4142,1242.0784 c -1.1,-0.2906 -3.7283,-0.9726 -5.8407,-1.5154 -4.9399,-1.2696 -12.1042,-7.8898 -15.4981,-14.3211 -2.3705,-4.492 -2.6598,-6.1369 -2.6605,-15.1268 -7e-4,-9.9473 0.05,-10.1615 3.6435,-15.5 7.7242,-11.4739 22.514,-23.8617 28.5289,-23.8955 6.1612,-0.035 13.5715,10.7089 19.3007,27.9822 1.9985,6.0254 5.1507,12.5887 8.6184,17.9448 9.8297,15.1825 8.5213,19.7983 -6.4315,22.6906 -7.424,1.436 -26.5631,2.5595 -29.6607,1.7412 z"
       id="path1642" /><path
       style="fill:#000000"
       d="m 1714.9142,1240.826 c -15.0233,-4.8301 -24.3304,-15.6979 -28.4651,-33.2382 -4.1696,-17.6882 0.892,-21.2171 24.0235,-16.749 10.1793,1.9663 14.3988,2.2577 28.5923,1.9745 22.2138,-0.4431 26.8493,1.2218 26.8493,9.6431 0,4.5373 -1.7197,8.2367 -8.7422,18.8058 -12.3977,18.6588 -25.7891,24.8586 -42.2578,19.5638 z"
       id="path1638" /><path
       style="fill:#000000"
       d="m 1617.5297,1241.2621 c -4.3,-1.5687 -11.2517,-7.8182 -12.2462,-11.009 -0.3516,-1.1282 -1.6301,-3.0517 -2.841,-4.2744 -1.211,-1.2227 -3.6862,-5.1476 -5.5004,-8.722 -6.6606,-13.1223 -1.6054,-19.3702 19.9721,-24.6842 12.8957,-3.1759 14.8916,-2.498 22.2488,7.5566 2.8464,3.89 6.6614,8.8488 8.4777,11.0196 9.1458,10.9306 5.8315,17.7967 -13.2265,27.4017 -7.5607,3.8105 -11.9434,4.5144 -16.8845,2.7117 z"
       id="path1634" /><path
       style="fill:#000000"
       d="m 1407.5222,1243.2355 c -12.2847,-3.513 -31.8667,-16.3443 -34.9909,-22.9281 -3.5138,-7.4048 1.7772,-14.5156 8.7034,-11.6969 7.1018,2.8902 6.7807,3.0473 18.5178,-9.0581 9.1,-9.3855 12.6636,-12.2875 20.5835,-16.7624 9.4504,-5.3397 9.5782,-5.4621 9.5782,-9.1775 0,-7.2357 7.4751,-10.2165 12.9422,-5.1607 4.2893,3.9666 13.7497,26.027 15.0287,35.0448 2.4361,17.177 -4.6401,29.9411 -20.7913,37.5038 -7.9059,3.7019 -20.9854,4.6905 -29.5716,2.2351 z"
       id="path1630" /><path
       style="fill:#000000"
       d="m 1217.7396,1243.3625 c -6.4163,-2.3977 -11.1236,-7.0478 -16.0882,-15.8926 -8.0388,-14.3214 -6.8435,-16.7356 14.7627,-29.816 22.378,-13.5477 22.4521,-13.5574 29.8058,-3.9156 8.3937,11.0057 11.1951,25.1659 6.7822,34.2818 -5.401,11.1569 -24.3735,19.4116 -35.2625,15.3424 z"
       id="path1626" /><path
       style="fill:#000000"
       d="m 1512.3715,1247.8389 c -8.386,-5.114 -16.4573,-21.3657 -16.4573,-33.1371 0,-8.4881 2.5852,-14.6503 8.8215,-21.027 7.2547,-7.4181 13.0822,-9.3602 27.6785,-9.2241 23.1402,0.2157 36.2144,6.7326 31.1216,15.5127 -6.2983,10.8583 -6.8488,12.3029 -8.0983,21.2485 -1.9654,14.0723 -8.9202,25.1175 -17.2767,27.4383 -6.5615,1.8222 -22.2817,1.3276 -25.7892,-0.8113 z"
       id="path1622" /><path
       style="fill:#000000"
       d="m 1326.9139,1251.365 c -1.375,-0.7285 -4.975,-2.9142 -8,-4.8571 -7.7035,-4.9478 -14.3605,-8.1531 -22.4875,-10.8277 -7.381,-2.429 -12.5125,-6.4463 -12.5125,-9.7957 0,-3.7838 5.1294,-7.8613 11.5453,-9.1777 7.6767,-1.5751 7.6326,-1.5303 11.4378,-11.6124 6.2998,-16.6916 16.9911,-22.8412 31.0725,-17.873 16.2884,5.7469 19.035,17.5437 9.812,42.1427 -7.7649,20.7101 -12.9619,26.1893 -20.8676,22.0009 z"
       id="path1618" /><path
       style="fill:#000000"
       d="m 1925.0547,1259.4518 c -1.6748,-1.7875 -7.9297,-8.2 -13.8999,-14.25 -7.5829,-7.6843 -12.6106,-13.8636 -16.6797,-20.5 -3.2036,-5.225 -7.9772,-11.7951 -10.608,-14.6003 -15.679,-16.7182 -2.0222,-28.1932 32.394,-27.2189 21.971,0.622 30.4119,6.5234 35.0762,24.5235 2.9575,11.4135 0.686,24.1025 -7.3131,40.8521 -7.0268,14.7139 -12.5936,17.9987 -18.9695,11.1936 z"
       id="path1614" /><path
       style="fill:#000000"
       d="m 2009.9139,1333.7826 c -5.7088,-1.1589 -7.7333,-2.7769 -12.3322,-9.8563 -6.2957,-9.6915 -6.8345,-10.9311 -6.8345,-15.7245 0,-8.0494 2.3547,-10.0029 16.2151,-13.4526 4.7017,-1.1702 11.0076,-3.6341 14.2617,-5.5725 9.3541,-5.5723 12.2727,-4.2828 20.3054,8.9716 10.0058,16.51 9.7361,18.8337 -3.1155,26.8448 -13.2419,8.2543 -20.3449,10.4449 -28.5,8.7895 z"
       id="path1610" /><path
       style="fill:#000000"
       d="m 2213.4139,1334.3473 c -5.7034,-1.867 -9.8601,-4.1704 -17.9251,-9.9335 -12.8322,-9.1695 -14.1877,-11.0906 -13.0764,-18.5329 1.3629,-9.1262 11.5684,-15.2055 28.5624,-17.0142 5.1915,-0.5525 12.0112,-1.5803 15.1549,-2.284 5.1593,-1.1549 6.1715,-1.0896 10.3971,0.6698 7.1651,2.9835 8.9147,6.0382 8.7533,15.2833 -0.3644,20.8892 -16.3826,36.8799 -31.8662,31.8115 z"
       id="path1606" /><path
       style="fill:#000000"
       d="m 1524.4139,1337.7749 c -21.3385,-7.9154 -25.1974,-13.7212 -27.5695,-41.4793 -1.5496,-18.1322 0.7062,-24.1743 8.9445,-23.9583 5.7786,0.1515 9.7768,2.7943 21.625,14.2939 6.05,5.872 13.4987,12.0974 16.5527,13.834 8.187,4.6556 15.5725,12.131 16.9165,17.1224 3.9092,14.5175 -18.4253,26.8806 -36.4692,20.1873 z"
       id="path1602" /><path
       style="fill:#000000"
       d="m 1416.2459,1339.8063 c -8.5645,-2.2124 -18.5816,-11.2156 -22.9248,-20.6045 -6.9837,-15.0968 -6.8023,-27.1758 0.4643,-30.9336 4.0112,-2.0742 5.0317,-2.0099 16.6736,1.0507 16.1488,4.2454 25.6668,5.3723 35.438,4.1955 23.2952,-2.8054 28.2069,2.588 17.7037,19.4397 -11.1827,17.9419 -22.846,26.6649 -36.5142,27.309 -4.2199,0.1988 -9.0982,-0.01 -10.8406,-0.4568 z"
       id="path1598" /><path
       style="fill:#000000"
       d="m 1319.9139,1339.2272 c -14.4684,-2.4905 -26.6445,-6.8843 -31.25,-11.2768 -6.4616,-6.1627 -1.8829,-13.2055 15.0599,-23.1645 8.8713,-5.2146 13.8889,-9.7619 22.4627,-20.3571 6.791,-8.392 16.3085,-8.3886 20.5918,0.01 5.147,10.089 7.601,30.7131 4.8006,40.346 -3.6531,12.5662 -14.3176,17.4312 -31.665,14.4451 z"
       id="path1594" /><path
       style="fill:#000000"
       d="m 1222.9139,1339.3264 c -15.1243,-4.3951 -21.4979,-12.4875 -27.059,-34.3564 -3.5635,-14.0134 -3.5827,-14.7174 -0.4865,-17.8137 3.1875,-3.1874 6.1073,-3.0959 14.865,0.4657 3.9493,1.6061 9.8613,3.6708 13.1378,4.5882 3.2765,0.9174 8.0336,2.7202 10.5714,4.0061 2.5377,1.286 7.5069,3.084 11.0427,3.9956 20.0098,5.159 22.3083,18.3949 5.5131,31.7472 -9.441,7.5057 -18.6471,9.9645 -27.5845,7.3673 z"
       id="path1590" /><path
       style="fill:#000000"
       d="m 2107.9139,1340.9068 c -7.2202,-2.0361 -7.9563,-4.0649 -8.6921,-23.9571 -0.5115,-13.8259 -1.0286,-17.9561 -2.9637,-23.6731 -4.1174,-12.1635 -2.0152,-19.2388 6.2776,-21.1281 1.583,-0.3606 6.3889,-1.7336 10.6798,-3.0512 16.3471,-5.0194 18.9132,-3.1809 20.1674,14.4496 0.4191,5.8924 1.2894,9.7181 2.9609,13.0167 2.8638,5.6514 4.5723,11.6319 5.6102,19.6382 0.4278,3.3 1.5393,8.1136 2.4699,10.6969 1.9854,5.511 1.1932,9.189 -2.5873,12.0115 -2.6398,1.9709 -28.5965,3.4986 -33.9227,1.9966 z"
       id="path1586" /><path
       style="fill:#000000"
       d="m 1901.8343,1340.6915 c -19.0181,-3.2189 -22.4728,-15.6604 -8.1003,-29.172 3.1111,-2.9248 7.3236,-7.5677 9.3612,-10.3177 2.0377,-2.75 5.079,-6.575 6.7586,-8.5 1.6796,-1.925 4.5177,-5.4832 6.307,-7.9071 8.9316,-12.1 21.563,-12.2661 27.9854,-0.368 14.316,26.5213 1.758,51.9829 -27.7323,56.2279 -7.8125,1.1245 -8.1483,1.1254 -14.5796,0.037 z"
       id="path1582" /><path
       style="fill:#000000"
       d="m 1811.3107,1343.7945 c -4.9721,-2.258 -13.808,-13.1199 -18.6136,-22.8814 -4.0314,-8.189 -4.6257,-19.0091 -1.4006,-25.5006 2.9078,-5.8529 10.2401,-13.4311 14.2877,-14.7669 7.756,-2.5597 18.9449,1.1758 24.8205,8.2866 1.4859,1.7983 5.6942,5.5288 9.3517,8.29 7.5944,5.7333 8.7512,7.6419 9.6851,15.9796 l 0.672,6 -9.4313,11 c -8.8699,10.3452 -9.8133,11.1339 -15.8498,13.2502 -7.7107,2.7032 -8.2911,2.7179 -13.5217,0.3425 z"
       id="path1578" /><path
       style="fill:#000000"
       d="m 1736.4139,1348.5976 c -2.2,-0.4809 -8.7742,-0.6091 -14.6093,-0.2849 -14.3523,0.7972 -21.3299,-0.6434 -23.9532,-4.9455 -3.4897,-5.7232 -2.066,-23.5958 2.8886,-36.2612 1.0551,-2.6973 2.7255,-9.1108 3.7118,-14.2522 2.1051,-10.9724 4.2874,-14.6716 10.5594,-17.8992 13.5426,-6.9691 23.3172,-2.9565 27.4517,11.2693 0.9555,3.2878 2.5964,7.9824 3.6463,10.4323 2.1286,4.9672 7.8019,36.1361 7.8036,42.8725 0,8.4965 -5.966,11.5895 -17.4989,9.0689 z"
       id="path1574" /><path
       style="fill:#000000"
       d="m 1620.7863,1357.0623 c -1.6845,-2.0122 -6.2658,-9.7413 -8.3172,-14.0319 -0.834,-1.7442 -3.7183,-6.0806 -6.4097,-9.6363 -2.6913,-3.5557 -5.6875,-8.6536 -6.6582,-11.3286 -0.9707,-2.6751 -2.8275,-7.2806 -4.1261,-10.2345 -5.5614,-12.6502 -2.451,-18.152 11.6654,-20.6339 8.7485,-1.5381 9.8486,-2.0759 19.7831,-9.6712 11.8447,-9.0558 16.9879,-5.4258 24.6091,17.3687 5.2696,15.7607 4.2154,24.2453 -4.9204,39.6036 -7.5367,12.67 -15.0542,20.2036 -20.1607,20.2036 -2.5681,0 -4.6041,-0.6108 -5.4653,-1.6395 z"
       id="path1570" /><path
       style="fill:#000000"
       d="m 1713.4139,1430.6706 c -2.2,-0.4996 -6.6123,-1.1824 -9.805,-1.5174 -9.6441,-1.0118 -14.2239,-6.8074 -20.8351,-26.3659 -4.6453,-13.7425 -3.6447,-14.5417 15.7296,-12.5644 22.8152,2.3285 29.9629,2.0032 44.4105,-2.0211 21.6741,-6.0373 24.1228,-4.5851 20.5466,12.1846 -1.78,8.3468 -5.9901,20.8171 -8.1312,24.0849 -2.9089,4.4395 -8.6073,6.0079 -23.9154,6.5823 -7.7,0.289 -15.8,0.1166 -18,-0.383 z"
       id="path1566" /><path
       style="fill:#000000"
       d="m 1219.1444,1433.6165 c -12.8698,-4.4113 -20.5685,-9.3946 -22.8131,-14.7665 -3.8082,-9.1144 0.5215,-17.7206 11.1269,-22.1171 9.8557,-4.0858 26.365,-3.6998 36.4557,0.8522 19.9102,8.9818 22.3958,16.2827 9.0971,26.7204 -13.2633,10.4099 -22.9173,13.0641 -33.8666,9.311 z"
       id="path1562" /><path
       style="fill:#000000"
       d="m 1427.6481,1437.1026 c -0.2013,-0.2012 -2.0947,-0.5872 -4.2075,-0.8577 -12.8955,-1.6511 -19.9099,-10.0456 -26.0346,-31.1572 -2.4623,-8.4876 -2.5752,-12.376 -0.4341,-14.9558 1.4556,-1.7539 59.345,-1.1704 61.5022,0.6199 6.1177,5.0772 -9.5448,37.744 -20.9247,43.6422 -3.2777,1.6988 -9.2715,3.3385 -9.9013,2.7086 z"
       id="path1558" /><path
       style="fill:#000000"
       d="m 2007.6365,1437.6632 c -13.3694,-2.2483 -23.7226,-14.7356 -23.7226,-28.6124 0,-17.4939 7.3911,-21.2699 42.8576,-21.8952 25.6285,-0.4518 27.1614,0.3021 27.1276,13.3433 -0.07,27.1268 -18.3982,41.8502 -46.2626,37.1643 z"
       id="path1554" /><path
       style="fill:#000000"
       d="m 2206.3928,1438.7865 c -11.3607,-1.8338 -18.4722,-8.6175 -22.5403,-21.5016 -3.6886,-11.6824 -1.462,-20.0735 9.2958,-35.0306 5.1057,-7.0986 8.4934,-9.268 15.8174,-10.1288 8.7823,-1.0322 12.3583,0.9986 16.0341,9.1056 1.6436,3.6247 4.2647,8.3524 5.8247,10.506 1.56,2.1535 4.5087,8.314 6.5526,13.6901 2.044,5.376 5.0991,12.7838 6.7893,16.4616 3.5088,7.6356 3.1684,11.6741 -1.2607,14.9555 -2.8651,2.1227 -27.3317,3.4241 -36.5129,1.9422 z"
       id="path1550" /><path
       style="fill:#000000"
       d="m 1313.9037,1437.4518 c -5.4269,-3.6935 -6.9369,-6.7237 -10.0455,-20.1578 -3.3791,-14.6038 -3.116,-17.5789 2.1411,-24.2076 8.1589,-10.2877 17.4687,-8.3735 33.6162,6.9118 13.2349,12.5283 15.8773,18.1553 11.2738,24.0078 -2.0795,2.6435 -11.5803,7.6958 -14.4721,7.6958 -0.8913,0 -3.3093,1.3571 -5.3732,3.0157 -6.5179,5.2379 -12.1432,6.1353 -17.1403,2.7343 z"
       id="path1546" /><path
       style="fill:#000000"
       d="m 2114.9139,1438.778 c -6.5474,-3.5627 -9.9466,-8.222 -13.6495,-18.7092 -5.7338,-16.2389 -5.4842,-18.2121 3.3581,-26.54 2.0853,-1.9639 5.5357,-5.6946 7.6676,-8.2903 7.8691,-9.5812 17.6912,-11.6693 24.2129,-5.1475 l 3.3892,3.3891 -0.2392,20.4402 c -0.2391,20.4401 -0.2391,20.4401 -3.2628,25.3299 -5.6595,9.1524 -14.7526,13.1864 -21.4763,9.5278 z"
       id="path1542" /><path
       style="fill:#000000"
       d="m 1597.1639,1438.7128 c -4.2097,-2.5667 -4.2361,-5.4915 -0.1424,-15.735 2.1252,-5.3178 3.5556,-11.3678 4.5246,-19.1378 0.7794,-6.249 1.8663,-12.2011 2.4153,-13.2271 2.4819,-4.6374 9.5775,-5.1423 18.9194,-1.3464 5.4955,2.233 7.1582,2.474 12.8579,1.8636 17.9005,-1.917 18.3828,-1.4577 17.8109,16.959 -0.4715,15.1837 -1.4066,17.945 -7.0521,20.8251 -2.2122,1.1286 -5.2288,2.9441 -6.7036,4.0344 -3.745,2.7688 -24.8833,7.754 -32.8592,7.7495 -4.7355,0 -7.4106,-0.5463 -9.7708,-1.9853 z"
       id="path1538" /><path
       style="fill:#000000"
       d="m 1913.9139,1443.3471 c -8.1274,-3.2164 -16.6231,-7.5713 -18.2261,-9.3427 -6.935,-7.6631 -6.3042,-29.7487 1.1434,-40.0298 7.2398,-9.9942 25.5518,-13.1161 39.0827,-6.6628 7.9242,3.7793 18.0944,11.3293 19.9621,14.8193 0.7567,1.4139 1.7728,2.5707 2.2579,2.5707 1.1967,0 3.78,6.3695 3.78,9.32 0,1.3113 -1.1082,3.9133 -2.4627,5.7821 -1.3545,1.8689 -3.7843,5.8729 -5.3998,8.8979 -3.8132,7.1407 -6.3568,9.407 -14.192,12.6447 -7.8027,3.2244 -20.3991,4.1957 -25.9455,2.0006 z"
       id="path1534" /><path
       style="fill:#000000"
       d="m 1820.5639,1446.3691 c -19.1828,-20.2951 -36.0606,-50.8102 -32.3876,-58.557 2.4779,-5.2264 7.567,-6.6103 24.3083,-6.6103 14.7865,0 15.1817,0.057 20.957,3.0104 11.1905,5.723 15.9512,15.5607 15.9646,32.9896 0.01,11.7504 -1.6994,16.504 -8.6532,24.0766 -7.8961,8.5988 -15.1455,10.4268 -20.1891,5.0907 z"
       id="path1530" /><path
       style="fill:#000000"
       d="m 1516.2719,1447.1867 c -2.828,-1.2932 -8.0878,-5.1069 -11.6884,-8.4751 -12.7823,-11.9572 -13.5497,-18.6909 -4.2605,-37.3853 10.4907,-21.1126 15.7432,-25.3609 25.302,-20.4649 12.1287,6.2123 23.6729,12.9792 24.8753,14.5811 4.2712,5.6903 2.8344,11.9205 -5.9371,25.746 -3.0715,4.8413 -6.3296,11.0998 -7.2401,13.9078 -4.4146,13.6148 -10.3112,17.0014 -21.0512,12.0904 z"
       id="path995" /><path
       style="fill:#000000;stroke-width:2.20909"
       d="m 2314.6053,47.257037 c -16.4812,-2.43262 -29.4918,-10.13396 -33.5927,-19.8844 -4.1823,-9.94431 -3.82,-10.33815 20.2434,-22.00207 29.9928,-14.53799 60.9906,-14.4245 72.0359,0.26375 19.9023,26.4667 -11.3239,48.61348 -58.6866,41.62272 z"
       id="path36579" /><path
       style="fill:#000000;stroke-width:2.20909"
       d="m 2304.717,142.33385 c -23.6733,-8.82285 -17.2141,-29.29485 9.4183,-29.85075 62.3243,-1.30089 77.7778,2.85579 66.9557,18.00973 -8.6143,12.06227 -15.7603,14.35598 -44.7268,14.35598 -17.6616,0 -26.8606,-0.73104 -31.6472,-2.51496 z"
       id="path36575" /><path
       style="fill:#000000;stroke-width:2.20909"
       d="m 2308.6032,249.22625 c -35.022,-8.35636 -43.5062,-20.19803 -20.4421,-28.53146 7.9118,-2.8587 21.9326,-8.87593 31.1572,-13.37161 21.8323,-10.64008 43.4075,-16.85353 50.3871,-14.51094 16.571,5.56184 24.2571,38.58483 10.76,46.22948 -17.7853,10.07332 -52.0037,14.92286 -71.8622,10.18453 z"
       id="path36571" /><path
       style="fill:#000000;stroke-width:2.20909"
       d="m 2317.165,341.54406 c -2.6856,-1.57905 -9.8031,-8.61566 -15.8166,-15.63691 -13.1505,-15.35466 -12.2763,-17.23564 11.9964,-25.80831 9.2735,-3.27524 17.6202,-6.60872 18.5482,-7.40774 3.9907,-3.43576 19.1489,-1.46125 24.2826,3.16307 2.8185,2.5387 9.3688,5.90445 14.5565,7.47944 12.6139,3.82969 26.0884,10.59014 26.0884,13.08915 0,3.02634 -60.9831,27.99228 -68.3753,27.99228 -3.5184,0 -8.5945,-1.29195 -11.2802,-2.87098 z"
       id="path36567" /><path
       style="fill:#000000;stroke-width:2.20909"
       d="m 2314.2128,442.72267 c -18.313,-6.15585 -27.1098,-17.48596 -23.5056,-30.27438 2.428,-8.61553 30.0376,-25.18247 45.3196,-27.19385 27.3333,-3.59752 71.4805,50.40412 46.923,57.39724 -13.3692,3.80711 -57.487,3.85266 -68.737,0.0709 z"
       id="path36563" /><path
       style="fill:#000000;stroke-width:2.20909"
       d="m 2318.6912,543.75403 c -14.0272,-2.08789 -18.4369,-7.75216 -21.5306,-27.65621 -4.1393,-26.62962 -4.2142,-26.24985 5.8046,-29.39892 11.8601,-3.7278 52.0841,-2.21803 59.6654,2.2395 11.5986,6.8194 16.863,43.13098 7.4305,51.25183 -4.5255,3.89625 -34.954,6.00723 -51.3699,3.5638 z"
       id="path36559" /><path
       style="fill:#000000;stroke-width:2.20909"
       d="m 2309.1379,651.50828 c -15.1374,-11.3115 -19.3916,-27.15148 -9.9803,-37.1604 10.4988,-11.16541 51.8014,-18.04695 73.1163,-12.18204 26.0003,7.15414 22.9843,35.10091 -4.6154,42.76707 -5.2124,1.44782 -13.8345,4.58331 -19.1603,6.96774 -13.8789,6.21403 -30.7445,6.04588 -39.3603,-0.39237 z"
       id="path36555" /><path
       style="fill:#000000;stroke-width:2.20909"
       d="m 2322.2312,747.69688 c -22.4909,-3.38949 -31.3093,-13.10742 -29.6955,-32.72442 1.3129,-15.95935 10.7054,-17.03734 60.7044,-6.9671 20.1744,4.0633 40.3462,22.6894 33.3811,30.82326 -6.3872,7.45919 -41.5788,12.30603 -64.39,8.86826 z"
       id="path36551" /><path
       style="fill:#000000;stroke-width:2.20909"
       d="m 2317.1323,830.50556 c -13.0376,-3.25207 -19.8118,-8.28321 -23.5324,-17.47737 -4.6456,-11.47998 5.5261,-15.36668 36.2237,-13.84137 13.1971,0.65572 24.0303,0.26002 32.2111,-1.1766 25.9656,-4.55969 36.2082,4.48324 22.7694,20.1024 -12.226,14.20976 -39.9985,19.29581 -67.6718,12.39294 z"
       id="path36547" /><path
       style="fill:#000000;stroke-width:2.20909"
       d="m 2298.5009,938.78479 c -19.3977,-5.2371 -19.3977,-5.2371 -20.3167,-13.75202 -0.9189,-8.51493 -0.9189,-8.51493 18.9587,-18.36768 10.9328,-5.41901 22.8099,-12.46437 26.3936,-15.65632 13.7188,-12.219 26.9063,-16.35664 35.1889,-11.04065 8.4986,5.45455 25.0978,23.18883 26.7026,28.52842 2.9992,9.98008 -17.5944,25.06905 -43.996,32.23582 -16.128,4.37802 -20.1831,4.19406 -42.9311,-1.94757 z"
       id="path36543" /><path
       style="fill:#000000;stroke-width:2.20909"
       d="m 2306.6967,1024.7784 c -37.1136,-4.7773 -13.7886,-31.18195 30.9787,-35.06895 24.6244,-2.13804 38.412,2.74543 41.7877,14.80085 4.3678,15.5983 -31.4783,25.5827 -72.7664,20.2681 z"
       id="path36539" /><path
       style="fill:#000000;stroke-width:2.20909"
       d="m 2305.4621,1146.136 c -3.5834,-3.4678 -8.5163,-42.4913 -6.0968,-48.2311 1.3772,-3.2674 4.9794,-4.0618 32.3435,-7.1335 23.446,-2.6319 31.7987,-0.4734 31.7987,8.2173 0,2.012 3.4071,8.4745 7.5711,14.361 8.3038,11.7386 9.859,24.4627 3.5511,29.0529 -8.8311,6.4262 -63.3448,9.3686 -69.1676,3.7334 z"
       id="path36535" /><path
       style="fill:#000000;stroke-width:2.20909"
       d="m 2305.1544,1234.5275 c -10.4253,-3.554 -23.2832,-17.1688 -21.717,-22.9955 1.5556,-5.7879 14.7514,-7.8274 49.6794,-7.6782 39.0021,0.1665 52.7342,2.5946 52.6659,9.3121 -0.077,7.5652 -7.6316,18.5413 -14.9241,21.6833 -10.2355,4.4101 -52.4299,4.2035 -65.7042,-0.3217 z"
       id="path36531" /><path
       style="fill:#000000;stroke-width:2.20909"
       d="m 2314.3039,1330.8591 c -24.9727,-6.5773 -36.2924,-17.2595 -27.6982,-26.1383 12.1073,-12.5084 27.4067,-14.7272 53.4023,-7.7449 28.8448,7.7477 36.7217,15.4339 26.5466,25.9036 -10.105,10.3977 -30.9712,13.5844 -52.2507,7.9796 z"
       id="path36527" /><path
       style="fill:#000000;stroke-width:2.20909"
       d="m 2306.6967,1438.7316 c -22.0817,-3.5426 -22.7134,-4.0504 -22.7134,-18.2555 0,-13.9857 8.9638,-23.004 29.0777,-29.2546 32.0321,-9.9542 79.9465,-1.3163 79.9465,14.4129 0,11.4417 -8.3675,21.0842 -22.3025,25.701 -6.8886,2.2823 -14.9626,5.5022 -17.9425,7.1554 -6.5967,3.6598 -24.1819,3.7517 -46.0658,0.2408 z"
       id="path36521" /><path
       style="fill:#000000;stroke-width:2.38986"
       d="m 1111.5041,43.315293 c -40.4681,-10.14832 -33.0242,-57.278645 9.0467,-57.278645 13.9044,0 15.6558,0.607269 31.6848,10.9866465 25.7652,16.6838695 29.9679,25.7241695 17.4089,37.4477585 -11.2244,10.47768 -36.3723,14.30315 -58.1404,8.84424 z"
       id="path36639" /><path
       style="fill:#000000;stroke-width:2.38986"
       d="m 1117.9705,143.33471 c -21.6694,-3.4819 -43.9312,-34.01911 -27.8534,-38.20752 7.7409,-2.01658 70.8531,-1.32385 76.8175,0.84317 11.3782,4.13396 3.4762,24.40453 -13.598,34.88217 -7.5404,4.62714 -17.6159,5.3343 -35.3661,2.48218 z"
       id="path36635" /><path
       style="fill:#000000;stroke-width:2.38986"
       d="m 1123.0792,257.23873 c -20.2493,-2.20125 -38.3214,-17.62204 -29.3888,-25.07711 3.4632,-2.89028 3.3521,-3.16131 -0.8572,-2.09164 -11.9116,3.02694 -11.2985,-16.34861 0.9134,-28.86472 19.1946,-19.67276 51.7813,-24.83939 51.7813,-8.20995 0,6.72068 15.4919,33.68752 22.2094,38.65996 13.4141,9.92946 7.6243,22.47445 -11.2946,24.4724 -6.8008,0.71818 -14.323,1.56275 -16.7159,1.87679 -2.3929,0.31404 -9.8844,-0.0305 -16.6476,-0.76573 z"
       id="path36631" /><path
       style="fill:#000000;stroke-width:2.38986"
       d="m 1110.6398,345.92113 c -20.3366,-6.25608 -29.0053,-15.18075 -29.0053,-29.86179 0,-24.60786 34.4227,-32.44381 79.5481,-18.10822 27.8112,8.83514 31.7178,21.35698 11.7015,37.50605 -11.48,9.26208 -46.8322,15.20514 -62.2443,10.46396 z"
       id="path36627" /><path
       style="fill:#000000;stroke-width:2.38986"
       d="m 1117.8059,442.50145 c -34.0973,-7.12281 -34.6262,-31.70469 -0.7244,-33.66533 52.2243,-3.02022 74.1914,11.29507 46.3432,30.20051 -11.0591,7.50778 -22.2106,8.35472 -45.6188,3.46482 z"
       id="path36623" /><path
       style="fill:#000000;stroke-width:2.38986"
       d="m 1127.1789,541.81819 c -6.2017,-3.37022 -10.9172,-6.98047 -10.4788,-8.02276 0.4383,-1.04227 -0.5964,-1.31044 -2.2994,-0.59589 -3.777,1.5847 -28.9532,-12.0508 -28.9532,-15.68115 0,-3.88576 42.9204,-28.6454 49.6563,-28.6454 7.645,0 15.7679,2.95642 30.8334,11.22215 14.8887,8.16869 15.5771,12.70869 3.6257,23.90908 -4.7859,4.48514 -8.7016,9.44989 -8.7016,11.03282 0,13.37736 -15.7205,16.54229 -33.6824,6.78115 z"
       id="path36619" /><path
       style="fill:#000000;stroke-width:2.38986"
       d="m 1118.3474,663.83122 c -28.2946,-2.27479 -32.3211,-26.81418 -8.7517,-53.33734 14.849,-16.7099 19.4281,-18.87772 37.0304,-17.53081 20.5511,1.57253 22.5262,4.11628 22.1963,28.58616 -0.2258,16.75779 -1.6077,23.40697 -6.7346,32.40613 -7.0278,12.3359 -8.6333,12.69839 -43.7404,9.87586 z"
       id="path36615" /><path
       style="fill:#000000;stroke-width:2.38986"
       d="m 1090.7668,747.3082 c -18.2536,-3.48844 -22.6409,-6.3386 -22.6409,-14.70827 0,-8.73737 9.6014,-18.5793 23.1544,-23.73459 10.7095,-4.07364 54.1253,-12.08214 65.4997,-12.08214 23.7267,0 25.2753,41.67531 1.8301,49.24959 -11.217,3.62381 -51.5842,4.38269 -67.8433,1.27541 z"
       id="path36611" /><path
       style="fill:#000000;stroke-width:2.38986"
       d="m 1132.85,856.65446 c -26.4601,-12.72595 -34.1301,-22.15204 -35.4108,-43.51788 -1.0109,-16.86358 0.8507,-18.56704 21.5313,-19.70191 35.9036,-1.97026 63.1886,11.89819 63.1886,32.11761 0,30.27413 -22.077,44.1994 -49.3091,31.10218 z"
       id="path36607" /><path
       style="fill:#000000;stroke-width:2.38986"
       d="m 1128.6107,947.58387 c -21.5837,-1.89085 -23.5219,-2.45564 -29.6598,-8.64266 -13.8566,-13.96757 -11.9028,-26.80347 7.0223,-46.13324 14.3809,-14.68837 32.2487,-18.41316 53.2142,-11.09328 10.3961,3.62972 13.9227,43.77693 5.3174,60.53494 -3.7623,7.32697 -7.2432,7.84425 -35.8941,5.33424 z"
       id="path36603" /><path
       style="fill:#000000;stroke-width:2.38986"
       d="m 1117.2858,1044.0696 c -21.6548,-16.0775 -25.2137,-43.7261 -6.4595,-50.18289 23.2777,-8.0142 55.5882,7.76119 55.3683,27.03319 -0.2484,21.7768 -31.0937,36.3765 -48.9088,23.1497 z"
       id="path36599" /><path
       style="fill:#000000;stroke-width:2.38986"
       d="m 1110.9656,1143.2406 c -11.2785,-1.1266 -25.8786,-13.5948 -24.8124,-21.1892 0.7323,-5.2159 3.4696,-6.7809 24.1074,-13.7836 12.8047,-4.3449 26.4738,-9.4504 30.3758,-11.3457 16.2832,-7.9089 29.2329,-1.6941 31.2733,15.0087 1.703,13.9416 -1.769,17.6079 -23.3006,24.6043 -20.8217,6.7657 -26.6491,7.8038 -37.6435,6.7055 z"
       id="path36595" /><path
       style="fill:#000000;stroke-width:2.38986"
       d="m 1082.7695,1237.7167 c -16.7925,-9.5925 -5.7517,-27.2118 21.5315,-34.3606 12.0669,-3.1618 56.3332,-2.4466 64.1641,1.0367 14.3241,6.3716 8.585,25.4675 -10.2081,33.9652 -15.5307,7.0225 -62.7738,6.6212 -75.4875,-0.6413 z"
       id="path36591" /><path
       style="fill:#000000;stroke-width:2.38986"
       d="m 1111.9653,1331.7219 c -9.6712,-2.9823 -13.3576,-5.8649 -21.0289,-16.4435 -16.8872,-23.2873 -13.8823,-25.143 40.7123,-25.143 46.8499,0 50.3813,1.0398 47.3951,13.9558 -6.3633,27.5226 -32.5067,38.2915 -67.0785,27.6307 z"
       id="path36587" /><path
       style="fill:#000000;stroke-width:2.38986"
       d="m 1136.9516,1444.4548 c -33.4416,-4.0108 -42.029,-10.2067 -52.2132,-37.6713 -6.4263,-17.3304 -2.8609,-23.1488 15.4738,-25.2517 51.3117,-5.8852 80.4966,6.578 80.4966,34.3753 0,24.178 -12.4526,32.3022 -43.7572,28.5477 z"
       id="path36581" /></g></svg>
