<?xml version="1.0" encoding="UTF-8" standalone="no"?>
<!-- Created with Inkscape (http://www.inkscape.org/) -->

<svg
   width="132.5649mm"
   height="225.02663mm"
   viewBox="0 0 132.56489 225.02663"
   version="1.1"
   id="svg18363"
   xml:space="preserve"
   xmlns="http://www.w3.org/2000/svg"
   xmlns:svg="http://www.w3.org/2000/svg"><defs
     id="defs18360" /><g
     id="layer1"
     transform="translate(-42.771881,-24.287236)"><path
       style="fill:#000000;stroke-width:0.264583"
       d="m 141.32365,31.760819 c -1.3224,-1.318884 -1.48725,-2.050296 -0.84749,-3.760212 1.06428,-2.844536 2.25535,-3.194095 6.26515,-1.838721 1.78624,0.603773 1.95134,1.147408 0.97753,3.218641 -1.53704,3.269202 -4.42584,4.344414 -6.39519,2.380292 z"
       id="path20522" /><path
       style="fill:#000000;stroke-width:0.264583"
       d="m 71.521173,32.743813 c -0.141764,-0.03453 -0.569394,-0.131027 -0.950286,-0.214448 -2.770147,-0.606697 -3.511211,-4.86037 -1.119751,-6.427314 1.318078,-0.863637 6.476029,0.482025 7.227144,1.885495 0.527542,0.985718 -0.347231,2.449965 -2.443136,4.089466 -0.460187,0.359979 -2.209281,0.789715 -2.713971,0.666801 z"
       id="path20514" /><path
       style="fill:#000000;stroke-width:0.264583"
       d="m 118.10186,32.836745 c -1.0564,-0.383302 -3.57906,-2.937333 -3.57906,-3.623559 0,-1.443447 3.29058,-3.986767 5.15813,-3.986767 2.21279,0 6.04689,2.807114 5.42394,3.971106 -1.34963,2.521813 -4.94018,4.387697 -7.00301,3.63922 z"
       id="path20506" /><path
       style="fill:#000000;stroke-width:0.264583"
       d="m 93.488418,32.668962 c -2.358408,-1.464749 -3.226895,-4.011198 -1.840793,-5.3973 3.043393,-3.043392 8.622415,-1.243081 8.899545,2.87182 0.14068,2.08897 -4.873238,3.882848 -7.058752,2.52548 z"
       id="path20502" /><path
       style="fill:#000000;stroke-width:0.264583"
       d="m 165.45509,32.83126 c -1.44565,-1.057217 -1.91457,-1.883476 -2.27468,-4.008091 -0.44597,-2.631108 0.72474,-3.277308 5.07227,-2.79978 4.40547,0.483893 4.95073,1.00884 4.32057,4.159651 -0.54382,2.719081 -4.83713,4.316355 -7.11816,2.64822 z"
       id="path20496" /><path
       style="fill:#000000;stroke-width:0.264583"
       d="m 106.38483,33.033193 c -2.75087,-1.195552 -3.26309,-2.265567 -2.30415,-4.813262 0.96247,-2.557039 1.44732,-2.993512 3.32528,-2.993512 1.92998,0 2.49258,0.617715 3.8368,4.212676 0.80132,2.143019 -2.52844,4.60651 -4.85793,3.594098 z"
       id="path20492" /><path
       style="fill:#000000;stroke-width:0.264583"
       d="m 45.25936,32.817936 c -1.7609,-1.175888 -2.62191,-4.195466 -1.51261,-5.304762 0.21828,-0.218282 0.39835,-0.494677 0.40015,-0.614212 0.005,-0.306562 1.67919,-1.355306 2.488337,-1.55839 0.846997,-0.212582 3.156638,0.591262 4.033337,1.403758 0.355336,0.329315 0.699464,0.598754 0.764726,0.598754 0.682037,0 1.475277,1.617438 1.277707,2.605281 -0.136083,0.680421 -1.69709,2.686386 -2.090499,2.686386 -0.09057,0 -0.343273,0.178594 -0.561555,0.396875 -0.646401,0.646401 -3.716282,0.509723 -4.799593,-0.21369 z"
       id="path20488" /><path
       style="fill:#000000;stroke-width:0.264583"
       d="m 152.05988,33.784411 c -0.56612,-0.682609 -0.34902,-5.175856 0.3018,-6.246038 2.24749,-3.695703 6.08195,-2.840039 6.08195,1.357194 0,3.315705 -4.702,6.916621 -6.38375,4.888844 z"
       id="path20472" /><path
       style="fill:#000000;stroke-width:0.264583"
       d="m 131.73988,33.763551 c -2.72922,-1.344186 -4.07638,-4.950137 -2.86352,-7.664788 0.71689,-1.604537 4.16271,-2.42661 5.3201,-1.269219 0.21828,0.218281 0.46491,0.396875 0.54807,0.396875 0.28865,0 1.07904,0.937332 1.40796,1.669723 0.87561,1.949691 -0.28676,5.625119 -2.14148,6.7714 -1.07277,0.663009 -1.11618,0.664842 -2.27113,0.09601 z"
       id="path20468" /><path
       style="fill:#000000;stroke-width:0.264583"
       d="m 81.13751,33.420458 c -0.589024,-0.796697 -1.144027,-2.431711 -1.442107,-4.248375 -0.18034,-1.099094 0.386133,-2.427369 1.428835,-3.350353 1.236104,-1.09418 5.005795,-0.578866 6.203815,0.848057 1.015206,1.20918 0.462439,4.67629 -0.973481,6.105963 -1.712415,1.704965 -4.20541,2.013041 -5.217062,0.644708 z"
       id="path20464" /><path
       style="fill:#000000;stroke-width:0.264583"
       d="m 60.255503,33.73989 c -2.624357,-1.689542 -3.406947,-2.861446 -3.4104,-5.106962 -0.004,-2.600594 0.757161,-3.365982 3.011239,-3.027962 1.663517,0.249459 2.178799,0.811905 2.573321,2.808864 0.185521,0.939059 0.552371,2.023416 0.815221,2.409682 0.596205,0.876138 0.604348,1.508736 0.03022,2.347679 -0.813816,1.189202 -1.774688,1.370169 -3.019605,0.568699 z"
       id="path20460" /><path
       style="fill:#000000;stroke-width:0.264583"
       d="m 152.42436,44.279318 c -0.69594,-0.424325 -0.85989,-0.694063 -0.85989,-1.414737 0,-1.054902 0.48148,-2.556913 0.81963,-2.556913 0.13128,0 0.2387,-0.127566 0.2387,-0.283482 0,-1.47338 3.36832,-2.561342 4.79179,-1.547741 4.04838,2.882699 -0.70809,8.413745 -4.99023,5.802873 z"
       id="path20430" /><path
       style="fill:#000000;stroke-width:0.264583"
       d="m 94.036222,44.398122 c -1.874239,-0.977369 -2.907498,-4.355037 -1.332246,-4.355037 0.213162,0 0.387567,-0.119062 0.387567,-0.264583 0,-0.145521 0.168672,-0.264584 0.374828,-0.264584 0.206152,0 0.417073,-0.126743 0.468709,-0.281651 0.185563,-0.556689 2.345407,-0.624925 3.311549,-0.104622 1.06988,0.576167 1.930331,2.251787 1.930331,3.759073 0,0.977927 -0.05253,1.039411 -1.256771,1.471034 -1.551948,0.556246 -2.868462,0.569931 -3.883967,0.04037 z"
       id="path20426" /><path
       style="fill:#000000;stroke-width:0.264583"
       d="m 143.66465,45.051396 c -0.71827,-0.287662 -2.41893,-1.914525 -2.41893,-2.313971 0,-0.147945 -0.13417,-0.313714 -0.29814,-0.368372 -0.16398,-0.05466 -0.35429,-0.68966 -0.4229,-1.411113 -0.23501,-2.470997 1.43573,-3.433651 4.06216,-2.340549 2.14747,0.893757 3.44162,3.336401 2.34742,4.430604 -0.21828,0.218281 -0.39688,0.513858 -0.39688,0.656839 0,0.347694 -1.54617,1.634344 -1.93853,1.613146 -0.17073,-0.0092 -0.59112,-0.129185 -0.9342,-0.266584 z"
       id="path20418" /><path
       style="fill:#000000;stroke-width:0.264583"
       d="m 106.66693,45.310035 c -0.88039,-0.25749 -1.44718,-0.920764 -2.41639,-2.8277 -0.75137,-1.478341 -0.73449,-1.638187 0.29944,-2.834262 0.86504,-1.000702 0.89775,-1.012516 2.84427,-1.027306 3.09478,-0.02352 4.57179,1.206138 3.9142,3.258667 -0.97173,3.033032 -2.39759,4.086894 -4.64152,3.430601 z"
       id="path20408" /><path
       style="fill:#000000;stroke-width:0.264583"
       d="m 60.812377,45.411944 c -3.681762,-0.566645 -5.428465,-3.539469 -3.72264,-6.335797 0.572555,-0.938583 1.849239,-1.371669 2.761832,-0.936887 0.310163,0.147767 1.102315,0.514987 1.760336,0.816044 1.563865,0.715491 2.110888,1.665983 2.110888,3.667807 0,2.218849 -0.915283,3.095895 -2.910416,2.788833 z"
       id="path20404" /><path
       style="fill:#000000;stroke-width:0.264583"
       d="m 45.98026,45.348449 c -2.89942,-0.8798 -3.12151,-3.836524 -0.46743,-6.222775 2.492528,-2.240997 4.590769,-1.650762 5.866937,1.65037 1.320831,3.416671 -1.456765,5.768793 -5.399507,4.572405 z"
       id="path20400" /><path
       style="fill:#000000;stroke-width:0.264583"
       d="m 166.24884,45.492838 c -1.32916,-0.586708 -2.31007,-2.266201 -2.61181,-4.471877 -0.27081,-1.979591 1.04142,-2.3154 5.9191,-1.514739 3.25188,0.533789 3.46529,0.919244 1.87298,3.382862 -1.5918,2.462826 -3.41896,3.381211 -5.18027,2.603754 z"
       id="path20390" /><path
       style="fill:#000000;stroke-width:0.264583"
       d="m 70.809303,45.623852 c -2.215575,-0.195506 -2.642034,-0.572125 -2.66896,-2.357041 -0.02695,-1.786554 0.682905,-3.416224 2.209091,-5.071571 0.617736,-0.670017 0.777666,-0.714708 1.931162,-0.539652 1.811819,0.274966 1.892035,0.409157 2.828877,4.73237 0.416714,1.922986 -0.509217,3.542514 -1.963507,3.434331 -0.307798,-0.02289 -1.359294,-0.112194 -2.336663,-0.198437 z"
       id="path20386" /><path
       style="fill:#000000;stroke-width:0.264583"
       d="m 128.88163,45.323991 c -1.27438,-1.245946 -1.92341,-2.711265 -1.92341,-4.342495 0,-2.619962 3.79415,-4.989693 6.62905,-4.140338 2.48901,0.745728 4.26625,4.336132 2.76366,5.583177 -0.21829,0.181158 -0.39688,0.484915 -0.39688,0.675016 0,0.394615 -1.40015,1.917798 -2.37398,2.582574 -1.1809,0.806138 -3.70443,0.613892 -4.69844,-0.357934 z"
       id="path20382" /><path
       style="fill:#000000;stroke-width:0.264583"
       d="m 117.43599,45.648561 c -1.70351,-0.823092 -1.85486,-1.064747 -1.85486,-2.961614 0,-1.917909 -0.29178,-1.509257 3.30729,-4.631965 2.08219,-1.806586 2.48399,-1.760381 3.17389,0.364985 1.42705,4.396319 0.36509,7.729649 -2.45046,7.691615 -0.68893,-0.0093 -1.66807,-0.217667 -2.17586,-0.463021 z"
       id="path20378" /><path
       style="fill:#000000;stroke-width:0.264583"
       d="m 81.582168,45.678382 c -2.643436,-1.056177 -3.117336,-1.81647 -2.223865,-3.567819 1.620557,-3.17655 5.806578,-5.353817 7.154251,-3.721124 3.254111,3.942321 -0.269316,9.151258 -4.930386,7.288943 z"
       id="path20374" /><path
       style="fill:#000000;stroke-width:0.264583"
       d="m 166.91242,56.892366 c -0.78448,-0.3722 -1.58962,-1.133692 -1.58962,-1.503447 0,-0.145521 -0.10983,-0.264583 -0.24406,-0.264583 -0.41837,0 -0.86614,-1.80734 -0.66955,-2.702444 0.23296,-1.060662 1.10525,-2.265913 1.97194,-2.724655 2.036,-1.077659 5.39318,3.407431 4.67937,6.251488 -0.29403,1.171487 -2.57444,1.690256 -4.14808,0.943641 z"
       id="path20344" /><path
       style="fill:#000000;stroke-width:0.264583"
       d="m 142.11151,56.912824 c -1.82762,-0.586714 -2.55773,-4.219655 -1.11766,-5.561293 2.48852,-2.318407 5.68369,-1.919727 6.58857,0.822095 0.45626,1.382479 0.22049,2.192668 -0.98133,3.372207 -1.59826,1.56863 -2.7598,1.922296 -4.48958,1.366991 z"
       id="path20340" /><path
       style="fill:#000000;stroke-width:0.264583"
       d="m 129.53326,56.956023 c -1.06915,-0.564351 -2.57504,-2.412717 -2.57504,-3.160668 0,-0.999342 1.09105,-2.907681 1.90222,-3.327157 0.90251,-0.466704 4.66353,-0.09667 5.3236,0.523772 0.17314,0.16275 0.76129,0.629388 1.30699,1.036976 3.02378,2.258478 -2.44509,6.78124 -5.95777,4.927077 z"
       id="path20326" /><path
       style="fill:#000000;stroke-width:0.264583"
       d="m 105.34407,56.740599 c -1.94684,-1.410285 -3.05176,-4.164648 -2.06607,-5.15034 0.21828,-0.218281 0.39688,-0.464913 0.39688,-0.548066 0,-0.745839 2.86547,-2.532441 4.0617,-2.532441 1.783,0 5.72789,2.747431 5.72789,3.989208 0,0.292259 -0.56555,1.14998 -1.25678,1.906048 -2.92468,3.19904 -4.79369,3.83504 -6.86362,2.335591 z"
       id="path20322" /><path
       style="fill:#000000;stroke-width:0.264583"
       d="m 82.158376,56.818212 c -0.975558,-0.90459 -1.237665,-1.66287 -1.237665,-3.580578 0,-1.973498 0.219265,-2.391103 1.576911,-3.003314 1.85837,-0.83801 3.836371,0.382074 4.867897,3.00265 1.056899,2.685037 -3.094506,5.540188 -5.207143,3.581242 z"
       id="path20318" /><path
       style="fill:#000000;stroke-width:0.264583"
       d="m 68.824882,57.031834 c -1.151456,-0.359371 -1.40747,-0.5549 -1.544717,-1.179785 -0.410422,-1.868634 0.536863,-4.677607 1.857528,-5.508105 1.284036,-0.807466 4.374685,-0.867484 4.374685,-0.08496 0,0.202087 0.107301,0.36743 0.238447,0.36743 0.131149,0 0.482767,0.414089 0.781379,0.920197 2.495452,4.229476 -0.501621,7.109915 -5.707322,5.485218 z"
       id="path20314" /><path
       style="fill:#000000;stroke-width:0.264583"
       d="m 57.901961,56.895973 c -3.941696,-3.533088 -2.825361,-6.449426 2.328669,-6.083454 2.335131,0.165809 3.492164,0.713444 3.492164,1.652876 0,0.262707 0.178594,0.905084 0.396875,1.427506 0.512916,1.227582 0.506601,1.293353 -0.198437,2.066717 -1.541939,1.691372 -4.639374,2.173208 -6.019271,0.936355 z"
       id="path20310" /><path
       style="fill:#000000;stroke-width:0.264583"
       d="m 119.02072,57.553653 c -0.90259,-0.246108 -1.85209,-0.902468 -1.85209,-1.280287 0,-0.171151 -0.13706,-0.35687 -0.30458,-0.412711 -0.58766,-0.195887 -0.57774,-2.883043 0.0155,-4.207094 1.41275,-3.152908 5.55722,-3.120422 6.60139,0.05174 0.76852,2.33472 0.17669,5.800283 -0.99054,5.800283 -0.26699,0 -1.00807,0.05139 -1.64685,0.114213 -0.63877,0.06282 -1.45906,0.03305 -1.82287,-0.06615 z"
       id="path20302" /><path
       style="fill:#000000;stroke-width:0.264583"
       d="m 94.523099,57.393577 c -1.584219,-0.689734 -3.559469,-3.196709 -3.539808,-4.492704 0.0218,-1.436638 0.526476,-1.618237 4.304102,-1.548755 4.469048,0.0822 4.837247,0.287459 4.771357,2.659883 -0.08707,3.134958 -2.590114,4.663998 -5.535651,3.381576 z"
       id="path20298" /><path
       style="fill:#000000;stroke-width:0.264583"
       d="m 47.839451,57.521186 c -3.071841,-0.933294 -3.801331,-4.434385 -1.477957,-7.093205 0.648234,-0.741825 1.17684,-0.748117 2.553806,-0.0304 2.505519,1.305949 4.204319,6.696152 2.273678,7.214262 -0.765384,0.205399 -2.532515,0.157573 -3.349527,-0.09065 z"
       id="path20294" /><path
       style="fill:#000000;stroke-width:0.264583"
       d="m 154.16,56.910273 c -2.80133,-4.345302 -1.77633,-7.909057 1.92646,-6.697935 2.25126,0.736351 3.35429,2.344627 3.55033,5.176581 0.0811,1.171652 -2.09715,2.910417 -3.64606,2.910417 -0.83811,0 -1.02822,-0.144248 -1.83073,-1.389063 z"
       id="path20280" /><path
       style="fill:#000000;stroke-width:0.264583"
       d="m 106.10109,68.180587 c -2.95728,-0.642897 -1.86909,-5.392097 1.23216,-5.377524 1.44915,0.0068 3.32146,0.781016 3.72862,1.541801 0.39222,0.73287 0.36,2.747865 -0.053,3.312629 -0.35044,0.479248 -3.54384,0.819613 -4.90781,0.523094 z"
       id="path20234" /><path
       style="fill:#000000;stroke-width:0.264583"
       d="m 81.778325,68.532036 c -1.210207,-0.672108 -1.908635,-2.64241 -1.405644,-3.965382 0.808974,-2.127763 4.305726,-3.917487 5.395574,-2.761589 1.195959,1.268445 1.63835,5.426586 0.685273,6.441089 -0.68695,0.731223 -3.557275,0.90674 -4.675203,0.285882 z"
       id="path20226" /><path
       style="fill:#000000;stroke-width:0.264583"
       d="m 141.10669,67.890482 c -3.22626,-4.072927 -2.85735,-4.971137 2.00809,-4.889309 4.45538,0.07493 5.74743,0.71833 4.6527,2.316895 -0.19657,0.287041 -0.43029,0.822743 -0.51938,1.190448 -0.38986,1.609034 -1.95264,2.903321 -3.50559,2.903321 -1.42564,0 -1.435,-0.0054 -2.63582,-1.521355 z"
       id="path20202" /><path
       style="fill:#000000;stroke-width:0.264583"
       d="m 129.82259,68.958838 c -3.21307,-1.993323 0.26824,-8.329475 3.83205,-6.974515 2.07147,0.78757 2.66863,5.810893 0.83371,7.013181 -0.86805,0.568767 -3.72478,0.545095 -4.66576,-0.03867 z"
       id="path20198" /><path
       style="fill:#000000;stroke-width:0.264583"
       d="m 71.334877,68.97008 c -2.275202,-0.663419 -4.090313,-3.111405 -3.350204,-4.518321 0.980982,-1.864813 3.44003,-3.207023 4.054379,-2.212983 0.07998,0.129399 0.473954,0.313235 0.875512,0.408522 2.393444,0.567946 5.55939,2.838667 5.246756,3.763145 -0.524724,1.55163 -4.793752,3.152341 -6.826443,2.559637 z"
       id="path20194" /><path
       style="fill:#000000;stroke-width:0.264583"
       d="m 44.03001,68.793111 c -1.35154,-1.351542 -1.18416,-4.559893 0.3076,-5.896153 1.18767,-1.063865 5.871947,-1.589799 5.895659,-0.661945 0.0024,0.09095 0.359513,0.568452 0.79375,1.061114 1.03233,1.171224 1.123659,3.4363 0.184697,4.580742 -1.327467,1.617967 -5.896996,2.200948 -7.181706,0.916242 z"
       id="path20190" /><path
       style="fill:#000000;stroke-width:0.264583"
       d="m 95.308519,69.310866 c -2.690196,-1.218221 -2.927094,-4.673002 -0.487704,-7.112394 2.047391,-2.047391 5.149895,1.006774 5.149895,5.069655 0,1.091361 -0.123973,1.652638 -0.419137,1.897602 -0.606248,0.503142 -3.252579,0.593662 -4.243054,0.145137 z"
       id="path20182" /><path
       style="fill:#000000;stroke-width:0.264583"
       d="m 117.49127,69.518485 c -0.4774,-0.208645 -0.98313,-0.645417 -1.12385,-0.970606 -0.14072,-0.325188 -0.36308,-0.769845 -0.49412,-0.988126 -1.80649,-3.009059 -0.6957,-4.724765 3.07592,-4.751025 2.86875,-0.01998 4.63737,1.091501 5.3056,3.334269 0.59659,2.002279 0.2016,2.322047 -4.33876,3.512476 -1.30828,0.343014 -1.32921,0.341831 -2.42479,-0.136988 z"
       id="path20176" /><path
       style="fill:#000000;stroke-width:0.264583"
       d="m 166.77801,70.015647 c -1.40526,-0.341391 -3.83646,-3.549912 -3.83646,-5.063082 0,-1.154928 3.54058,-3.334547 5.42396,-3.339047 1.66719,-0.004 4.32684,1.633429 4.35682,2.682274 0.015,0.525222 -1.56947,3.423902 -2.32045,4.245065 -0.56151,0.613984 -2.73533,1.784784 -3.03391,1.634038 -0.0334,-0.01688 -0.29892,-0.08854 -0.58996,-0.159248 z"
       id="path20166" /><path
       style="fill:#000000;stroke-width:0.264583"
       d="m 58.249316,69.610274 c -2.802642,-3.097541 0.250758,-10.480707 3.107089,-7.512987 1.499933,1.558428 2.221942,6.644923 1.088784,7.670417 -0.781952,0.707657 -3.50561,0.605464 -4.195873,-0.15743 z"
       id="path20162" /><path
       style="fill:#000000;stroke-width:0.264583"
       d="m 151.63061,69.96779 c -0.72537,-1.203603 -0.15638,-4.844424 0.98359,-6.29366 0.29577,-0.37601 0.53777,-0.897083 0.53777,-1.157939 0,-1.309986 2.30519,-1.896287 3.46041,-0.880118 0.22974,0.202086 0.50081,0.36743 0.60237,0.36743 0.5019,0 2.06419,1.797105 2.32813,2.678062 0.43259,1.443861 -0.0788,3.111754 -1.18325,3.859062 -2.28089,1.543341 -6.16281,2.366661 -6.72902,1.427163 z"
       id="path20154" /><path
       style="fill:#000000;stroke-width:0.264583"
       d="m 165.25665,79.529968 c -0.89535,-0.555116 -1.04811,-2.711004 -0.25869,-3.651032 1.80504,-2.149446 6.14567,-1.133091 6.14567,1.439005 0,2.295717 -3.58146,3.641457 -5.88698,2.212027 z"
       id="path20122" /><path
       style="fill:#000000;stroke-width:0.264583"
       d="m 130.54112,80.066758 c -1.60462,-0.4076 -2.9102,-2.693106 -2.24666,-3.932935 0.18737,-0.350113 0.48554,-0.636569 0.6626,-0.636569 0.17706,0 0.66295,-0.177861 1.07977,-0.395246 1.63647,-0.853482 4.01828,-0.242305 4.57234,1.173271 1.20945,3.090061 -0.51224,4.694699 -4.06805,3.791479 z"
       id="path20118" /><path
       style="fill:#000000;stroke-width:0.264583"
       d="m 71.131127,80.162178 c -3.591708,-0.90288 -4.204036,-2.290546 -2.029283,-4.598779 2.337025,-2.480463 8.550389,1.013029 6.328762,3.558376 -1.113073,1.275263 -2.260576,1.552933 -4.299479,1.040403 z"
       id="path20110" /><path
       style="fill:#000000;stroke-width:0.264583"
       d="m 81.205595,80.103938 c -0.821399,-0.691155 -1.191242,-3.095554 -0.611563,-3.97583 0.36972,-0.561441 2.425991,-1.424605 3.393762,-1.424605 1.692588,0 3.812083,1.898288 3.812083,3.414224 0,1.957431 -4.881216,3.427661 -6.594282,1.986211 z"
       id="path20102" /><path
       style="fill:#000000;stroke-width:0.264583"
       d="m 95.472793,80.837988 c -2.553348,-0.70007 -4.255984,-3.578051 -3.423356,-5.786531 0.361802,-0.959646 1.812433,-2.46462 2.375625,-2.46462 1.170961,0 5.545648,5.508019 5.545648,6.982331 0,1.05446 -2.602317,1.78855 -4.497917,1.26882 z"
       id="path20092" /><path
       style="fill:#000000;stroke-width:0.264583"
       d="m 106.32071,81.397298 c -0.96135,-0.34783 -3.175,-2.988347 -3.175,-3.787246 0,-1.036042 1.13593,-2.906549 1.7651,-2.906549 0.0977,0 0.40784,-0.208359 0.68924,-0.46302 1.21271,-1.097489 4.4289,-0.470718 6.34306,1.236138 2.42913,2.166046 -2.28353,7.128727 -5.6224,5.920677 z"
       id="path20084" /><path
       style="fill:#000000;stroke-width:0.264583"
       d="m 44.46113,81.265168 c -0.42892,-0.42891 -0.40152,-1.40006 0.0501,-1.77485 0.20216,-0.167782 0.4284,-0.569314 0.50274,-0.892291 0.0743,-0.322976 0.38787,-1.242075 0.69672,-2.04244 0.30886,-0.800365 0.61565,-1.863199 0.681761,-2.361851 0.244608,-1.844953 1.095227,-1.73641 3.994928,0.509767 2.011945,1.558502 1.754272,4.438262 -0.554707,6.199405 -1.002556,0.76469 -4.718482,1.0153 -5.371522,0.36226 z"
       id="path20080" /><path
       style="fill:#000000;stroke-width:0.264583"
       d="m 155.7978,81.753368 c -2.26794,-0.74204 -3.175,-2.05447 -3.175,-4.593936 0,-3.655978 3.38676,-5.240816 5.72604,-2.679504 3.24692,3.555098 1.48017,8.59239 -2.55104,7.27344 z"
       id="path20068" /><path
       style="fill:#000000;stroke-width:0.264583"
       d="m 58.364981,81.761178 c -0.400182,-0.15436 -0.727604,-0.39285 -0.727604,-0.52997 0,-0.13713 -0.297657,-0.52517 -0.661459,-0.86234 -1.596207,-1.479309 0.629854,-7.650195 2.582881,-7.160014 1.086139,0.272603 3.303022,2.587048 3.503965,3.658171 0.545317,2.906793 -2.263579,5.833103 -4.697783,4.894153 z"
       id="path20064" /><path
       style="fill:#000000;stroke-width:0.264583"
       d="m 143.49468,82.112758 c -3.44831,-0.75428 -5.29889,-4.925726 -3.27781,-7.388582 0.85043,-1.036312 3.02096,-1.093084 4.08191,-0.106765 1.37339,1.276784 2.8533,2.334734 4.02151,2.874865 1.61695,0.747615 1.37498,1.664047 -0.79072,2.994732 -0.5457,0.33531 -0.99219,0.70455 -0.99219,0.82055 0,0.19121 -0.82173,0.57577 -1.85208,0.86675 -0.21828,0.0616 -0.75406,0.034 -1.19062,-0.0615 z"
       id="path20056" /><path
       style="fill:#000000;stroke-width:0.264583"
       d="m 117.43321,81.938498 c -1.58158,-0.54815 -1.85208,-0.80266 -1.85208,-1.74269 0,-1.115561 2.82363,-5.492315 3.54333,-5.492315 0.0735,0 0.45475,-0.297656 0.8473,-0.661458 0.99154,-0.918922 1.61619,-0.830212 2.78176,0.395055 1.70636,1.793758 1.55402,3.998897 -0.42551,6.159178 -1.52228,1.66129 -2.89116,2.03666 -4.8948,1.34223 z"
       id="path20052" /><path
       style="fill:#000000;stroke-width:0.264583"
       d="m 164.72478,91.493688 c -0.96115,-0.89123 -0.78277,-3.28764 0.24524,-3.29452 0.16978,-0.001 0.34837,-0.11434 0.39688,-0.25158 0.0485,-0.13724 0.62859,-0.39333 1.28908,-0.5691 3.42426,-0.91125 6.11147,1.79993 3.93814,3.97327 -1.14852,1.14851 -4.6914,1.23418 -5.86934,0.14193 z"
       id="path20008" /><path
       style="fill:#000000;stroke-width:0.264583"
       d="m 118.44013,91.682328 c -1.23066,-0.43845 -2.85934,-1.7363 -2.85863,-2.27795 2e-4,-0.15468 0.47599,-0.81701 1.05731,-1.47185 2.23927,-2.52249 6.63688,-1.11836 6.60644,2.10939 -0.0193,2.04349 -1.88552,2.6806 -4.80512,1.64041 z"
       id="path20006" /><path
       style="fill:#000000;stroke-width:0.264583"
       d="m 105.92383,91.759428 c -1.47925,-0.75138 -2.20022,-2.40016 -1.5173,-3.46993 1.00254,-1.57043 4.7458,-2.77921 5.68818,-1.83683 0.20471,0.20471 0.89783,0.54914 1.54025,0.76539 1.62656,0.54754 1.65893,1.17557 0.14108,2.73722 -2.1892,2.25238 -3.91957,2.78583 -5.85221,1.80415 z"
       id="path20004" /><path
       style="fill:#000000;stroke-width:0.264583"
       d="m 82.905085,92.329978 c -2.877447,-1.09455 -4.034126,-4.54395 -1.893001,-5.64524 1.959472,-1.00786 2.518886,-1.21361 3.351165,-1.23256 2.118563,-0.0482 4.230378,1.81917 4.230378,3.74077 0,1.99027 -3.552722,3.94946 -5.688542,3.13703 z"
       id="path19998" /><path
       style="fill:#000000;stroke-width:0.264583"
       d="m 69.36598,91.764348 c -1.344901,-1.40361 -1.423699,-2.02791 -0.457237,-3.62259 0.981612,-1.61967 1.808559,-2.14903 3.554376,-2.27531 2.359432,-0.17067 4.020169,2.06822 3.177733,4.28399 -1.139256,2.99647 -4.19667,3.78284 -6.274872,1.61391 z"
       id="path19992" /><path
       style="fill:#000000;stroke-width:0.264583"
       d="m 45.43887,91.702858 c -2.43981,-2.55863 -2.41019,-4.1687 0.096,-5.21583 1.764258,-0.73716 6.07258,-0.12433 7.224544,1.02763 0.468056,0.46806 0.493514,1.81027 0.04936,2.60241 -1.25599,2.24001 -2.191816,2.83854 -4.441717,2.84081 -1.71977,0.002 -1.736645,-0.005 -2.928147,-1.25502 z"
       id="path19988" /><path
       style="fill:#000000;stroke-width:0.264583"
       d="m 154.93607,92.958648 c -0.71768,-0.21529 -3.10702,-2.44356 -3.10702,-2.89755 0,-0.12781 -0.0893,-0.27206 -0.19844,-0.32057 -0.51289,-0.22795 -1.68764,-2.3538 -1.6087,-2.91113 0.0874,-0.61665 0.0874,-0.61665 5.44516,-0.68827 l 5.35781,-0.0716 v 0.91045 c 0,1.12986 -1.59804,4.34293 -2.60718,5.24208 -0.8444,0.75237 -2.20849,1.05856 -3.28163,0.73662 z"
       id="path19984" /><path
       style="fill:#000000;stroke-width:0.264583"
       d="m 142.17176,93.032668 c -1.22371,-0.30097 -2.03921,-2.21593 -1.62992,-3.82738 0.16947,-0.66726 1.58234,-2.33108 1.97948,-2.33108 0.13591,0 0.39532,-0.17859 0.57648,-0.39688 0.47625,-0.57385 2.88012,-0.51516 3.60167,0.0879 3.0129,2.51826 -0.45339,7.46953 -4.52771,6.46742 z"
       id="path19980" /><path
       style="fill:#000000;stroke-width:0.264583"
       d="m 93.289981,93.030358 c -0.545703,-0.22388 -0.992188,-0.50997 -0.992188,-0.63574 0,-0.12578 -0.173199,-0.22868 -0.384886,-0.22868 -0.710065,0 -0.796767,-1.71639 -0.150162,-2.97271 1.048385,-2.03697 3.997283,-4.36747 5.088239,-4.02121 0.741627,0.23538 2.323118,1.9784 2.324711,2.56214 7.94e-4,0.25467 0.101217,0.46303 0.223377,0.46303 0.122164,0 0.360289,0.30325 0.529167,0.6739 1.339471,2.93981 -2.99344,5.65464 -6.638258,4.15927 z"
       id="path19962" /><path
       style="fill:#000000;stroke-width:0.264583"
       d="m 129.98212,93.446048 c -0.93387,-0.66344 -1.44058,-2.03252 -1.42703,-3.85563 0.0174,-2.33637 1.25677,-3.50526 3.71979,-3.50816 2.33726,-0.003 2.83704,0.58302 2.93808,3.44359 0.0946,2.67739 -0.1501,3.07342 -2.43391,3.93984 -1.79612,0.6814 -1.81029,0.6813 -2.79693,-0.0196 z"
       id="path19954" /><path
       style="fill:#000000;stroke-width:0.264583"
       d="m 57.031293,93.812538 c -0.947878,-0.58536 -1.123119,-1.32446 -0.606941,-2.55984 0.227137,-0.54362 0.596749,-2.13044 0.821362,-3.52627 0.485537,-3.01733 0.630494,-3.23341 2.169173,-3.23341 1.587662,0 2.481887,0.58567 3.117474,2.04178 0.290936,0.66653 0.648036,1.34518 0.793557,1.50812 2.347915,2.62894 1.407716,4.21654 -3.439583,5.80797 -1.636326,0.53723 -1.929379,0.53329 -2.855042,-0.0383 z"
       id="path19944" /><path
       style="fill:#000000;stroke-width:0.264583"
       d="m 152.8301,104.1384 c -2.42466,-2.77968 -0.22952,-6.384262 3.50381,-5.753512 1.31161,0.22159 1.84514,0.93692 1.84514,2.473852 0,2.31682 -4.03225,4.78916 -5.34895,3.27966 z"
       id="path19914" /><path
       style="fill:#000000;stroke-width:0.264583"
       d="m 141.57809,104.43086 c -3.65495,-1.80183 -1.94577,-6.414462 2.38428,-6.434512 3.03362,-0.014 4.66962,1.71768 3.43672,3.637822 -1.73355,2.69987 -3.90304,3.7422 -5.821,2.79669 z"
       id="path19908" /><path
       style="fill:#000000;stroke-width:0.264583"
       d="m 129.20715,105.04425 c -2.19773,-0.85998 -2.70654,-2.1462 -1.12448,-2.84254 0.82082,-0.36128 0.8659,-0.45782 0.99218,-2.12471 0.15366,-2.028202 0.53582,-2.619382 1.69327,-2.619382 0.7208,0 2.27548,1.20133 2.27548,1.7583 0,0.28312 2.15888,3.004202 2.3835,3.004202 0.60182,0 1.14425,1.32526 0.80324,1.96245 -0.59987,1.12087 -4.9857,1.65899 -7.02319,0.86169 z"
       id="path19898" /><path
       style="fill:#000000;stroke-width:0.264583"
       d="m 93.752972,105.06965 c -2.962722,-0.72408 -4.074102,-1.37122 -4.092628,-2.38307 -0.0079,-0.43198 3.673067,-4.192892 5.415544,-5.533142 0.436563,-0.33579 0.951082,-0.76189 1.143379,-0.9469 1.249989,-1.20259 2.794322,0.41983 3.261794,3.42672 0.617079,3.969222 -1.911599,6.369132 -5.728089,5.436392 z"
       id="path19896" /><path
       style="fill:#000000;stroke-width:0.264583"
       d="m 117.5124,104.89297 c -1.00164,-0.72558 -1.9313,-2.34534 -1.9313,-3.36493 0,-1.621302 3.11768,-3.598262 5.73412,-3.636082 1.73517,-0.0251 1.9292,0.20114 1.93475,2.255762 0.0113,4.19053 -3.03049,6.70626 -5.73757,4.74525 z"
       id="path19888" /><path
       style="fill:#000000;stroke-width:0.264583"
       d="m 83.30193,105.26288 c -0.509323,-0.19614 -1.146172,-0.36567 -1.415222,-0.37674 -1.047726,-0.0431 -2.288945,-0.85507 -2.288945,-1.49734 0,-0.64523 1.006801,-2.82127 1.377204,-2.97661 0.115663,-0.0485 0.210296,-0.20565 0.210296,-0.34921 0,-0.500702 1.535467,-2.488042 2.195071,-2.841052 1.214255,-0.64985 3.625763,1.23871 3.625763,2.839492 0,0.57366 -0.879499,4.36168 -1.192313,5.13532 -0.222869,0.55119 -1.186429,0.57656 -2.511854,0.0662 z"
       id="path19884" /><path
       style="fill:#000000;stroke-width:0.264583"
       d="m 70.2549,105.16805 c -2.845769,-1.30455 -3.084058,-5.420512 -0.394338,-6.811422 0.937342,-0.48472 3.05738,-0.46955 4.012758,0.0287 0.416817,0.21738 0.904613,0.39524 1.083996,0.39524 0.963681,0 1.577189,1.04329 1.210246,2.058062 -1.161629,3.21243 -3.928978,5.23875 -5.912662,4.3294 z"
       id="path19880" /><path
       style="fill:#000000;stroke-width:0.264583"
       d="m 58.894313,104.9921 c -2.200695,-1.49541 -3.171036,-5.450632 -1.906989,-7.773102 0.867187,-1.59331 1.222644,-1.65614 2.765861,-0.48893 0.625295,0.47294 1.387298,1.03849 1.693344,1.25677 0.306044,0.21828 0.59613,0.48617 0.644636,0.59531 0.04851,0.10914 0.227103,0.20164 0.396875,0.20556 0.865156,0.02 2.094077,1.495482 2.121662,2.547422 0.08534,3.25456 -3.207242,5.36131 -5.715389,3.65697 z"
       id="path19876" /><path
       style="fill:#000000;stroke-width:0.264583"
       d="m 168.128,105.73878 c -3.96522,-0.6295 -5.83296,-6.118792 -2.77827,-8.165282 0.42092,-0.28198 0.76564,-0.602 0.76606,-0.71114 5.3e-4,-0.10914 0.34868,-0.19844 0.77392,-0.19844 2.12921,0 5.48658,6.839962 4.18778,8.531752 -0.3647,0.47505 -1.75994,0.73196 -2.94949,0.54311 z"
       id="path19868" /><path
       style="fill:#000000;stroke-width:0.264583"
       d="m 106.0052,105.8582 c -1.3729,-1.23386 -1.84278,-3.49736 -1.1397,-5.49011 0.21828,-0.618682 0.39688,-1.364902 0.39688,-1.658272 0,-0.67058 1.4111,-2.0459 2.09913,-2.0459 1.96882,0 3.06332,1.80211 3.05316,5.027092 -0.008,2.60986 -0.39349,3.42533 -2.00717,4.24857 -1.28657,0.65636 -1.59297,0.64598 -2.4023,-0.0814 z"
       id="path19852" /><path
       style="fill:#000000;stroke-width:0.264583"
       d="m 43.87904,105.97673 c -1.05484,-1.22424 -1.39781,-4.31767 -0.64583,-5.82505 0.56915,-1.140892 3.124553,-3.752342 3.671804,-3.752342 2.187102,0 4.884346,3.862222 4.27958,6.127992 -0.672687,2.52023 -5.956534,5.01505 -7.305554,3.4494 z"
       id="path19848" /><path
       style="fill:#000000;stroke-width:0.264583"
       d="m 94.282168,116.8704 c -3.4886,-0.88559 -4.544049,-3.20883 -2.402607,-5.28857 1.399035,-1.35872 4.648372,-1.46479 5.919925,-0.19323 0.196316,0.19631 0.512448,0.35694 0.702517,0.35694 1.290896,0 1.152961,2.50411 -0.223137,4.05089 -0.900292,1.01195 -2.523138,1.44804 -3.996698,1.07397 z"
       id="path19788" /><path
       style="fill:#000000;stroke-width:0.264583"
       d="m 72.321752,116.86907 c -3.152799,-0.78884 -4.335619,-2.84989 -2.897045,-5.04808 0.210926,-0.3223 0.387464,-0.73902 0.392306,-0.92604 0.01725,-0.66658 0.979762,-1.5405 1.489313,-1.35224 1.344689,0.49681 4.587301,4.62538 4.587301,5.84066 0,1.08701 -1.940084,1.89398 -3.571875,1.4857 z"
       id="path19784" /><path
       style="fill:#000000;stroke-width:0.264583"
       d="m 46.289416,116.66797 c -1.432236,-0.79382 -1.854196,-3.34542 -0.735456,-4.44739 2.743128,-2.70201 3.936671,-2.70609 5.012578,-0.0171 1.120362,2.80006 -1.793187,5.84126 -4.277122,4.46452 z"
       id="path19780" /><path
       style="fill:#000000;stroke-width:0.264583"
       d="m 166.11655,117.31653 c 0,-0.13729 -0.35719,-0.46062 -0.79375,-0.7185 -0.43656,-0.25788 -0.79375,-0.6218 -0.79375,-0.80871 0,-0.1869 -0.10462,-0.33983 -0.23248,-0.33983 -0.12787,0 -0.38044,-0.35719 -0.56127,-0.79375 -0.18083,-0.43656 -0.41792,-0.79375 -0.52688,-0.79375 -0.29207,0 -0.88277,-2.29145 -0.67666,-2.62493 0.19123,-0.30942 2.78619,-0.34489 3.83388,-0.0524 0.35529,0.0992 1.4338,0.0221 2.3967,-0.17139 2.84048,-0.57067 3.54379,-0.0727 2.87574,2.03619 -1.10096,3.47551 -2.03739,4.49724 -4.13247,4.50894 -0.76398,0.004 -1.38906,-0.10457 -1.38906,-0.24187 z"
       id="path19768" /><path
       style="fill:#000000;stroke-width:0.264583"
       d="m 128.94259,117.14549 c -1.52751,-0.55334 -1.73547,-0.93617 -1.32368,-2.4367 0.42693,-1.55567 1.03111,-2.7364 1.71859,-3.35856 0.29212,-0.26437 0.53113,-0.58647 0.53113,-0.71579 0,-0.77024 1.30212,-1.60756 2.25855,-1.45235 3.02216,0.49043 3.80906,5.3389 1.25139,7.71051 -0.85223,0.79023 -2.66702,0.8937 -4.43598,0.25289 z"
       id="path19764" /><path
       style="fill:#000000;stroke-width:0.264583"
       d="m 117.72633,116.87639 c -2.78573,-1.59993 -3.60526,-5.68536 -1.37213,-6.84016 0.71465,-0.36956 3.05477,0.004 3.82156,0.60924 0.16509,0.13041 0.75958,0.31999 1.32109,0.42128 1.04768,0.189 2.28637,1.23678 2.28637,1.93399 0,0.21142 0.18745,0.77944 0.41657,1.26227 0.67282,1.41786 0.42648,2.31226 -0.72565,2.63468 -0.53379,0.14937 -1.05965,0.36089 -1.16857,0.47003 -0.4891,0.49007 -3.41757,0.17586 -4.57924,-0.49133 z"
       id="path19760" /><path
       style="fill:#000000;stroke-width:0.264583"
       d="m 153.24522,117.86764 c -2.22439,-1.85826 -1.41195,-5.63488 1.54359,-7.1754 2.80433,-1.46171 5.24232,0.0672 5.24232,3.28749 0,0.6321 -1.70102,2.7906 -2.20343,2.79603 -0.17056,0.002 -1.01149,0.35903 -1.86875,0.79375 -1.80737,0.91653 -1.95416,0.93266 -2.71373,0.29811 z"
       id="path19752" /><path
       style="fill:#000000;stroke-width:0.264583"
       d="m 105.46596,117.85764 c -1.86801,-1.1982 -2.43614,-3.72734 -1.30928,-5.8285 0.93243,-1.73863 4.6162,-2.15487 6.37221,-0.72002 1.0351,0.8458 1.42576,3.76918 0.69303,5.18612 -0.8939,1.72861 -4.02838,2.47052 -5.75596,1.3624 z"
       id="path19750" /><path
       style="fill:#000000;stroke-width:0.264583"
       d="m 142.31975,118.44061 c -2.47585,-0.50189 -4.44187,-4.48331 -2.99226,-6.05967 1.46741,-1.59572 4.86664,-2.02812 7.28454,-0.92664 1.55201,0.70702 1.88587,1.31023 1.66147,3.00186 -0.36527,2.75351 -3.0762,4.56777 -5.95375,3.98445 z"
       id="path19746" /><path
       style="fill:#000000;stroke-width:0.264583"
       d="m 81.145847,117.86315 c -1.941616,-2.11936 -2.204585,-4.10233 -0.720408,-5.43236 1.950463,-1.7479 3.460774,-2.9426 3.948438,-3.12334 0.522221,-0.19355 1.8385,0.74811 1.8385,1.31525 0,0.14964 0.160086,0.33351 0.355745,0.40859 1.63803,0.62857 0.61191,4.86327 -1.414079,5.83577 -0.61441,0.29493 -1.49384,0.82261 -1.890011,1.13406 -0.778745,0.6122 -1.472314,0.56703 -2.118185,-0.13797 z"
       id="path19742" /><path
       style="fill:#000000;stroke-width:0.264583"
       d="m 60.812377,118.60004 c -0.94111,-0.80947 -1.14353,-0.93716 -3.286451,-2.07315 -0.666305,-0.35322 -1.211466,-0.74017 -1.211466,-0.85989 0,-0.11973 -0.392906,-0.21769 -0.873125,-0.21769 -1.687219,0 -2.000097,-1.1474 -0.648229,-2.37722 0.472943,-0.43025 1.008724,-0.78576 1.190625,-0.79002 0.181901,-0.004 0.330729,-0.12682 0.330729,-0.27234 0,-0.14552 0.164015,-0.26458 0.364479,-0.26458 0.200462,0 0.50732,-0.17212 0.681903,-0.38248 0.644906,-0.77706 2.956084,-1.05842 3.986168,-0.48527 2.198962,1.22354 2.829877,3.77326 1.785995,7.21775 -0.471133,1.55459 -0.97323,1.66383 -2.320628,0.50489 z"
       id="path19738" /><path
       style="fill:#000000;stroke-width:0.264583"
       d="m 117.82614,128.40874 c -2.91158,-1.34238 -3.24918,-3.79121 -0.66168,-4.79974 0.90535,-0.35288 3.98855,-0.46772 4.6367,-0.17271 0.6336,0.28839 1.45289,2.14125 1.45289,3.28576 0,1.86287 -3.01421,2.79952 -5.42791,1.68669 z"
       id="path19696" /><path
       style="fill:#000000;stroke-width:0.264583"
       d="m 105.40388,128.12193 c -1.94672,-1.70924 -0.79228,-5.0533 1.95263,-5.65618 0.98336,-0.21598 3.46626,0.35943 3.65322,0.84664 0.0716,0.18647 0.29595,0.33904 0.49867,0.33904 0.88657,0 0.39913,1.68333 -0.88983,3.07296 -2.19507,2.36652 -3.66302,2.75993 -5.21469,1.39754 z"
       id="path19692" /><path
       style="fill:#000000;stroke-width:0.264583"
       d="m 69.272241,128.21549 c -0.771276,-0.97703 -0.642893,-3.31846 0.214897,-3.91928 0.307806,-0.21559 0.765059,-0.5974 1.016119,-0.84846 0.428302,-0.4283 2.369333,-1.08158 3.290845,-1.10757 0.454652,-0.0128 1.305775,1.54612 1.305775,2.3917 0,2.81924 -4.315611,5.399 -5.827636,3.48361 z"
       id="path19688" /><path
       style="fill:#000000;stroke-width:0.264583"
       d="m 153.77468,129.06422 c -1.34338,-0.58878 -2.73719,-3.03154 -1.72977,-3.03154 0.11873,0 0.46742,-0.44758 0.77487,-0.99462 1.36527,-2.42916 3.29117,-2.83442 5.01795,-1.05591 1.71619,1.7676 1.50676,3.25604 -0.66009,4.6913 -1.30668,0.86551 -2.10945,0.9577 -3.40296,0.39077 z"
       id="path19676" /><path
       style="fill:#000000;stroke-width:0.264583"
       d="m 129.70819,128.78487 c -2.94872,-1.91199 -2.12477,-5.94811 1.21878,-5.97014 1.76296,-0.0116 4.74082,1.34608 5.40356,2.46365 0.40297,0.67953 0.38877,0.7239 -0.4658,1.4552 -0.48479,0.41487 -1.22856,1.05196 -1.65283,1.41576 -1.71414,1.46985 -2.94839,1.64402 -4.50371,0.63553 z"
       id="path19672" /><path
       style="fill:#000000;stroke-width:0.264583"
       d="m 94.679043,129.12471 c -1.43029,-0.67407 -3.175,-3.22545 -3.175,-4.64297 0,-1.0182 0.783733,-1.354 3.042709,-1.30369 1.018646,0.0227 2.603296,-0.006 3.521442,-0.0636 2.364826,-0.14854 2.676036,0.62412 1.352545,3.35809 -1.149292,2.37411 -3.061843,3.44387 -4.741696,2.65218 z"
       id="path19668" /><path
       style="fill:#000000;stroke-width:0.264583"
       d="m 57.505085,129.1035 c -1.654154,-0.72531 -2.525414,-3.71446 -1.519611,-5.21353 1.177732,-1.75533 3.480962,-2.62117 5.424028,-2.03901 1.237683,0.37082 1.39352,0.56431 1.7233,2.13963 0.788222,3.76528 -2.30078,6.57171 -5.627717,5.11291 z"
       id="path19664" /><path
       style="fill:#000000;stroke-width:0.264583"
       d="m 83.22821,129.09632 c -1.707912,-0.89023 -2.836667,-1.78056 -2.836667,-2.2375 0,-0.1277 -0.178593,-0.3804 -0.396875,-0.56156 -0.569928,-0.473 -0.521583,-2.45096 0.07306,-2.9891 3.081031,-2.7883 8.9603,2.72856 6.390032,5.99613 -0.714047,0.90776 -1.141844,0.88021 -3.229547,-0.20797 z"
       id="path19646" /><path
       style="fill:#000000;stroke-width:0.264583"
       d="m 48.613865,129.81563 c -1.518062,-0.23463 -3.676485,-3.46258 -3.676485,-5.49823 0,-1.87869 0.79398,-2.78264 2.444143,-2.78264 2.50888,0 4.13675,1.57468 4.472202,4.32608 0.336529,2.76025 -0.531717,4.33612 -2.259475,4.10094 -0.160187,-0.0218 -0.601361,-0.0876 -0.980385,-0.14615 z"
       id="path19642" /><path
       style="fill:#000000;stroke-width:0.264583"
       d="m 168.40146,130.03222 c -3.91685,-2.21049 -5.10105,-5.06495 -3.16851,-7.63757 1.3282,-1.76811 4.63058,-0.57717 5.58775,2.01512 1.26265,3.41961 1.09109,4.3474 -1.04867,5.67105 -0.53779,0.33268 -0.70551,0.32673 -1.37057,-0.0486 z"
       id="path19636" /><path
       style="fill:#000000;stroke-width:0.264583"
       d="m 142.16732,129.27382 c -1.54102,-2.45245 -2.5091,-4.80415 -2.5091,-6.09526 0,-0.93157 0.10013,-1.10064 0.85989,-1.45193 1.35824,-0.62802 1.99261,-0.76421 2.17616,-0.46722 0.0936,0.15144 0.39814,0.27535 0.67677,0.27535 1.226,0 3.86372,3.54116 3.96346,5.32098 0.10272,1.83305 0.0106,2.07393 -1.1014,2.87944 -1.78138,1.29043 -3.0559,1.1458 -4.06578,-0.46136 z"
       id="path19632" /><path
       style="fill:#000000;stroke-width:0.264583"
       d="m 164.85239,140.44141 c -1.92109,-0.87128 -1.26795,-3.28973 1.36886,-5.06863 0.59726,-0.40293 1.33523,-0.98849 1.63993,-1.30124 1.6478,-1.69131 3.28245,-0.3322 3.28245,2.72917 0,2.67801 -3.69686,4.81736 -6.29124,3.6407 z"
       id="path19590" /><path
       style="fill:#000000;stroke-width:0.264583"
       d="m 141.77488,140.66903 c -3.60535,-1.25871 -4.19054,-2.64985 -2.01099,-4.7806 1.42088,-1.38907 1.42088,-1.38907 3.50188,-1.37739 4.14602,0.0233 6.42703,1.24191 5.59406,2.98866 -1.10827,2.32406 -4.78941,3.97075 -7.08495,3.16933 z"
       id="path19586" /><path
       style="fill:#000000;stroke-width:0.264583"
       d="m 105.53004,140.37261 c -2.7261,-1.33312 -3.95986,-6.62171 -1.37396,-5.88962 0.39018,0.11046 2.40639,0.16777 4.48046,0.12735 3.37978,-0.0659 3.79701,-0.025 4.02132,0.39416 0.518,0.96791 -0.40768,3.09981 -2.04963,4.72038 -1.31099,1.29393 -3.25079,1.54135 -5.07819,0.64773 z"
       id="path19582" /><path
       style="fill:#000000;stroke-width:0.264583"
       d="m 57.195189,140.72825 c -1.135705,-0.49403 -1.572117,-1.33035 -1.127612,-2.16092 0.184965,-0.34561 0.465011,-0.62855 0.622321,-0.62875 0.157311,-2e-4 0.821802,-0.47629 1.476645,-1.05797 0.654844,-0.58168 1.257001,-1.05776 1.338131,-1.05797 0.08113,-2e-4 0.525158,-0.53614 0.986734,-1.19099 1.115364,-1.58238 1.940153,-1.62606 2.696842,-0.14283 0.64606,1.26639 0.721212,3.49024 0.137668,4.07379 -0.218281,0.21828 -0.396875,0.50663 -0.396875,0.64078 0,1.29689 -3.883625,2.32969 -5.733854,1.52486 z"
       id="path19578" /><path
       style="fill:#000000;stroke-width:0.264583"
       d="m 45.76025,141.00928 c -2.91898,-1.61786 -0.69945,-6.50994 2.953543,-6.50994 2.176793,0 3.448809,3.912 1.831716,5.63332 -1.055598,1.12363 -3.523811,1.57579 -4.785259,0.87662 z"
       id="path19566" /><path
       style="fill:#000000;stroke-width:0.264583"
       d="m 130.92697,141.29151 c -1.30489,-0.68714 -1.85209,-1.10367 -1.85209,-1.4098 0,-0.17115 -0.14882,-0.36088 -0.33073,-0.42162 -0.46525,-0.15536 -0.46401,-5.00451 0.001,-5.15962 0.18117,-0.0604 0.32941,-0.27848 0.32941,-0.48463 0,-0.5458 3.205,-0.50973 4.28393,0.0482 3.1922,1.65075 4.03062,6.07663 1.38971,7.33599 -1.11148,0.53003 -2.90712,0.57301 -3.82156,0.0915 z"
       id="path19554" /><path
       style="fill:#000000;stroke-width:0.264583"
       d="m 93.449929,140.88688 c -1.894366,-1.37228 -2.046329,-5.28583 -0.264755,-6.81827 2.957468,-2.54391 8.356326,1.6954 7.303326,5.73473 -0.48694,1.86791 -4.997276,2.56224 -7.038571,1.08354 z"
       id="path19550" /><path
       style="fill:#000000;stroke-width:0.264583"
       d="m 70.709211,141.18007 c -1.680723,-0.96012 -2.135121,-1.54453 -2.518592,-3.23922 -0.484264,-2.14013 0.697465,-2.91718 4.41625,-2.90393 3.159456,0.0113 3.406013,0.20221 3.221959,2.49516 -0.264766,3.29843 -2.697311,5.03174 -5.119617,3.64799 z"
       id="path19546" /><path
       style="fill:#000000;stroke-width:0.264583"
       d="m 118.22696,141.66922 c -2.31294,-0.48981 -3.43958,-1.50426 -3.43958,-3.09704 0,-3.82186 6.52457,-7.28436 8.02322,-4.25781 1.5495,3.12925 0.58236,7.32872 -1.6878,7.32872 -0.24664,0 -0.79074,0.05 -1.20911,0.11112 -0.41838,0.0611 -1.1774,0.0229 -1.68673,-0.085 z"
       id="path19538" /><path
       style="fill:#000000;stroke-width:0.264583"
       d="m 155.52416,141.82004 c -3.56076,-1.64222 -4.69295,-4.69739 -2.63185,-7.10194 2.17164,-2.53351 4.27339,-1.68967 5.89371,2.36629 1.34467,3.36594 -0.48188,6.01777 -3.26186,4.73565 z"
       id="path19530" /><path
       style="fill:#000000;stroke-width:0.264583"
       d="m 81.534514,141.20948 c -1.396836,-1.49996 -1.446212,-2.15978 -0.330004,-4.40987 1.84689,-3.72303 2.409695,-3.98365 4.286274,-1.98484 2.284904,2.43372 2.479558,3.69349 0.900679,5.82905 -1.559436,2.10924 -3.2375,2.30468 -4.856949,0.56566 z"
       id="path19526" /><path
       style="fill:#000000;stroke-width:0.264583"
       d="m 142.56626,152.26078 c -2.69811,-0.56642 -2.97339,-3.15924 -0.518,-4.87906 1.65674,-1.16043 5.28287,0.66452 5.28287,2.65874 0,1.49197 -2.55751,2.68371 -4.76487,2.22032 z"
       id="path19494" /><path
       style="fill:#000000;stroke-width:0.264583"
       d="m 117.23093,152.23178 c -1.30223,-0.55582 -1.2959,-2.7021 0.0115,-3.91004 2.01723,-1.86376 6.27616,-0.92683 6.27616,1.3807 0,1.59623 -4.36243,3.35109 -6.2877,2.52934 z"
       id="path19490" /><path
       style="fill:#000000;stroke-width:0.264583"
       d="m 58.669667,152.55541 c -0.896501,-0.6015 -1.561457,-1.28487 -1.561457,-1.60469 0,-0.14035 -0.167367,-0.3194 -0.371925,-0.3979 -0.793459,-0.30448 -0.828717,-2.82431 -0.03952,-2.82431 0.190659,0 0.482293,-0.16344 0.648081,-0.3632 0.652447,-0.78615 5.268698,-0.71558 5.535433,0.0846 0.05107,0.15322 0.259262,0.27858 0.462645,0.27858 0.54915,0 0.756364,1.22895 0.404968,2.4018 -0.715785,2.38909 -3.295668,3.62111 -5.078227,2.4251 z"
       id="path19482" /><path
       style="fill:#000000;stroke-width:0.264583"
       d="m 130.13322,153.04897 c -2.74488,-0.83225 -3.12172,-2.01661 -1.6005,-5.03013 1.1184,-2.21554 1.91532,-2.38213 5.07204,-1.06027 4.30242,1.80162 4.20699,1.65452 2.41544,3.72307 -2.08797,2.41079 -3.65943,3.04272 -5.88698,2.36733 z"
       id="path19476" /><path
       style="fill:#000000;stroke-width:0.264583"
       d="m 82.727067,153.03825 c -3.026585,-0.46832 -3.310332,-4.35388 -0.420333,-5.75591 0.544033,-0.26393 0.990518,-0.56917 0.992187,-0.67831 0.01019,-0.66682 1.638356,-0.1081 2.628501,0.902 2.548429,2.59979 0.519091,6.10776 -3.200355,5.53222 z"
       id="path19472" /><path
       style="fill:#000000;stroke-width:0.264583"
       d="m 72.028154,153.01242 c -1.991857,-0.42319 -3.009492,-1.82852 -3.01195,-4.15943 -0.0019,-1.87652 0.09406,-1.93516 2.052134,-1.25307 2.664579,0.9282 3.502372,1.71738 3.502372,3.29914 0,1.85915 -0.761175,2.49184 -2.542556,2.11336 z"
       id="path19468" /><path
       style="fill:#000000;stroke-width:0.264583"
       d="m 153.80024,152.8706 c -1.96074,-1.27336 -4.00195,-4.64582 -3.3562,-5.54508 1.0589,-1.47458 7.37464,-2.03625 8.64231,-0.76858 0.2078,0.2078 0.49593,0.37782 0.64028,0.37782 0.96744,0 0.52231,2.7754 -0.7392,4.60895 -1.43946,2.09217 -3.28274,2.56369 -5.18719,1.32689 z"
       id="path19454" /><path
       style="fill:#000000;stroke-width:0.264583"
       d="m 94.612897,153.34873 c -0.400182,-0.24811 -0.727604,-0.60213 -0.727604,-0.78671 0,-0.18458 -0.110614,-0.33559 -0.245808,-0.33559 -0.438314,0 -1.105046,-2.89692 -1.023625,-4.44759 0.08821,-1.67989 0.536426,-2.08354 2.62456,-2.36362 1.577851,-0.21164 2.356657,0.8095 3.517496,4.61196 0.57944,1.89803 0.549904,2.05286 -0.56728,2.97374 -1.138981,0.93884 -2.423118,1.06368 -3.577739,0.34781 z"
       id="path19446" /><path
       style="fill:#000000;stroke-width:0.264583"
       d="m 47.055911,153.35269 c -2.183341,-0.77041 -4.363681,-3.96893 -3.836901,-5.62868 0.49,-1.54383 7.726771,-1.77892 9.457429,-0.30722 0.510868,0.43442 0.65881,2.54074 0.198438,2.82526 -0.145521,0.0899 -0.264584,0.36607 -0.264584,0.61363 0,0.67465 -1.189757,1.82603 -2.506948,2.42608 -1.36385,0.6213 -1.480008,0.62401 -3.047434,0.0709 z"
       id="path19442" /><path
       style="fill:#000000;stroke-width:0.264583"
       d="m 166.94265,153.89847 c -1.26986,-0.26282 -3.20735,-2.96897 -3.20735,-4.47983 0,-1.4979 2.01339,-4.07138 3.1853,-4.07138 1.67015,0 4.98536,5.444 4.27056,7.01282 -0.53871,1.18233 -2.51362,1.89745 -4.24851,1.53839 z"
       id="path19418" /><path
       style="fill:#000000;stroke-width:0.264583"
       d="m 106.453,153.92487 c -3.43071,-0.80723 -3.90753,-1.16301 -3.68643,-2.75057 0.79274,-5.69207 6.76062,-6.98806 9.39476,-2.04018 0.92602,1.73943 0.64262,3.3359 -0.72585,4.08884 -1.08511,0.59704 -3.80171,0.97974 -4.98248,0.70191 z"
       id="path19414" /><path
       style="fill:#000000;stroke-width:0.264583"
       d="m 167.57176,164.49531 c -2.27951,-0.53142 -4.63021,-2.18117 -4.63021,-3.24954 0,-1.1305 2.38951,-2.93976 3.86769,-2.9285 1.87996,0.0143 5.12814,2.4638 5.12814,3.86716 0,0.66194 -1.40881,2.21245 -2.01026,2.21245 -0.16766,0 -0.64715,0.0499 -1.06552,0.1109 -0.41837,0.061 -0.9988,0.0554 -1.28984,-0.0125 z"
       id="path19372" /><path
       style="fill:#000000;stroke-width:0.264583"
       d="m 106.34548,164.61932 c -1.99088,-0.57214 -4.30315,-3.86326 -3.71383,-5.286 0.88575,-2.1384 8.30996,-2.24306 9.88066,-0.13929 0.53412,0.7154 0.24943,2.8216 -0.38139,2.8216 -0.13967,0 -0.25396,0.11906 -0.25396,0.26458 0,0.14553 -0.23812,0.50271 -0.52917,0.79375 -0.29104,0.29105 -0.64822,0.52917 -0.79375,0.52917 -0.14552,0 -0.26458,0.097 -0.26458,0.21558 0,0.76665 -2.38058,1.2499 -3.94398,0.80061 z"
       id="path19368" /><path
       style="fill:#000000;stroke-width:0.264583"
       d="m 46.205397,164.56518 c -2.284347,-1.0137 -2.845527,-3.18644 -1.209057,-4.68113 0.80702,-0.7371 0.97613,-0.77884 3.155795,-0.77884 3.406691,0 4.048863,1.01785 2.587395,4.10105 -0.759664,1.60262 -2.684769,2.17959 -4.534133,1.35892 z"
       id="path19364" /><path
       style="fill:#000000;stroke-width:0.264583"
       d="m 116.90404,165.09417 c -2.19165,-0.72318 -2.59101,-1.42786 -1.63277,-2.88103 0.65962,-1.00031 2.4713,-2.5783 2.96042,-2.57855 0.22088,-1.2e-4 0.86467,-0.31487 1.43063,-0.69945 1.02225,-0.69463 1.03486,-0.6961 1.9135,-0.22292 0.48646,0.26198 0.88448,0.57664 0.88448,0.69924 0,0.12261 0.17859,0.22292 0.39688,0.22292 0.56163,0 0.52399,1.93346 -0.0556,2.85358 -1.56758,2.48876 -3.57074,3.37398 -5.89758,2.60621 z"
       id="path19344" /><path
       style="fill:#000000;stroke-width:0.264583"
       d="m 152.08951,165.22776 c -2.56951,-1.37243 0.97908,-6.72455 4.76662,-7.18922 2.59669,-0.31856 3.6953,4.88325 1.43517,6.79536 -1.28793,1.08961 -4.51545,1.29458 -6.20179,0.39386 z"
       id="path19334" /><path
       style="fill:#000000;stroke-width:0.264583"
       d="m 143.14903,165.30726 c -0.90872,-0.38209 -2.43248,-1.74574 -2.43248,-2.17688 0,-0.13709 -0.21749,-0.5332 -0.48331,-0.88025 -1.93814,-2.53037 -1.40077,-4.00478 1.25933,-3.45535 0.93655,0.19344 2.28062,0.25174 3.40177,0.14754 2.76548,-0.25703 3.31609,-0.0532 3.15228,1.1672 -0.17248,1.28502 -0.97921,3.49399 -1.27602,3.49399 -0.12827,0 -0.23322,0.16402 -0.23322,0.36448 0,0.97397 -2.19436,1.8413 -3.38835,1.33927 z"
       id="path19330" /><path
       style="fill:#000000;stroke-width:0.264583"
       d="m 129.99747,165.05861 c -2.86916,-1.38928 -2.96215,-4.0072 -0.21671,-6.10125 1.82972,-1.39559 4.57061,-0.76913 5.10856,1.16762 0.41568,1.49655 0.32842,2.30116 -0.43516,4.01255 -0.70613,1.58265 -0.70613,1.58265 -1.91822,1.57299 -0.72524,-0.006 -1.74486,-0.26763 -2.53847,-0.65191 z"
       id="path19326" /><path
       style="fill:#000000;stroke-width:0.264583"
       d="m 93.31184,164.92391 c -0.7386,-0.70585 -0.827836,-0.94821 -0.785854,-2.13434 0.07276,-2.05581 0.832731,-2.99045 3.662486,-4.50429 1.189358,-0.63627 3.517652,1.37121 3.517652,3.03295 0,3.09421 -4.358011,5.55165 -6.394284,3.60568 z"
       id="path19322" /><path
       style="fill:#000000;stroke-width:0.264583"
       d="m 80.656259,165.43621 c -2.881583,-1.20689 -2.337298,-3.96334 1.362739,-6.90138 2.132872,-1.69362 3.007201,-1.78007 4.681754,-0.46286 2.22925,1.75352 1.976424,4.83019 -0.563266,6.85446 -0.930899,0.74197 -4.200731,1.04608 -5.481227,0.50978 z"
       id="path19318" /><path
       style="fill:#000000;stroke-width:0.264583"
       d="m 59.357165,165.80814 c -1.78816,-0.38942 -2.669593,-1.77099 -2.395154,-3.75421 0.174155,-1.25851 0.899007,-2.94834 1.264696,-2.94834 0.112429,0 0.204417,-0.17859 0.204417,-0.39687 0,-0.21828 0.119062,-0.39688 0.264583,-0.39688 0.145521,0 0.502708,-0.23812 0.79375,-0.52916 0.764588,-0.76459 1.737879,-0.66424 2.65475,0.2737 0.752517,0.76982 0.784833,0.90098 0.784833,3.18554 0,3.94049 -0.93813,5.13978 -3.571875,4.56622 z"
       id="path19314" /><path
       style="fill:#000000;stroke-width:0.264583"
       d="m 71.999225,166.00723 c -3.216275,-1.79874 -4.347271,-4.25808 -3.082748,-6.7034 1.373351,-2.65577 3.317274,-2.10934 5.883592,1.65385 0.347337,0.50932 0.758376,1.00675 0.913419,1.10539 0.475064,0.30225 0.328782,2.66237 -0.222901,3.5963 -0.600173,1.01601 -2.040139,1.15948 -3.491362,0.34786 z"
       id="path19306" /><path
       style="fill:#000000;stroke-width:0.264583"
       d="m 82.243627,176.35194 c -2.040824,-0.55759 -2.422581,-1.90215 -1.036347,-3.65007 1.417008,-1.78672 2.788558,-2.13933 4.480057,-1.15178 0.507053,0.29603 1.249633,0.67943 1.650178,0.852 3.123075,1.34554 -1.501384,4.93139 -5.093888,3.94985 z"
       id="path19274" /><path
       style="fill:#000000;stroke-width:0.264583"
       d="m 45.20196,176.09355 c -1.19578,-0.65998 -1.42379,-2.42109 -0.54204,-4.18662 0.901,-1.8041 0.95702,-1.82115 4.244071,-1.2923 3.242355,0.52165 3.558432,0.85929 3.003003,3.20789 -0.535522,2.26441 -4.366207,3.56188 -6.705034,2.27103 z"
       id="path19270" /><path
       style="fill:#000000;stroke-width:0.264583"
       d="m 94.67177,176.64238 c -2.377051,-1.65287 -1.902748,-4.78656 1.01981,-6.73782 1.521814,-1.01605 4.27913,1.98834 4.27913,4.66257 0,2.08802 -3.378002,3.41096 -5.29894,2.07525 z"
       id="path19262" /><path
       style="fill:#000000;stroke-width:0.264583"
       d="m 117.40266,177.07921 c -2.26075,-0.87194 -1.72982,-5.34654 0.81824,-6.89611 0.75094,-0.45667 0.78793,-0.45231 1.77556,0.20897 2.61285,1.74948 3.44937,3.29743 2.68662,4.97148 -0.6263,1.37458 -3.63238,2.35128 -5.28042,1.71566 z"
       id="path19254" /><path
       style="fill:#000000;stroke-width:0.264583"
       d="m 106.10581,177.09732 c -1.33287,-0.56597 -2.43093,-2.47733 -2.43093,-4.23143 0,-1.26818 -0.024,-1.26289 4.89479,-1.07755 3.96875,0.14955 3.96875,0.14955 4.04926,0.84389 0.0443,0.38188 -0.10454,0.8794 -0.33073,1.10558 -0.22618,0.22618 -0.41124,0.5123 -0.41124,0.63582 0,0.12352 -0.51051,0.80474 -1.13448,1.51383 -1.21508,1.38085 -3.08498,1.86877 -4.63667,1.20987 z"
       id="path19250" /><path
       style="fill:#000000;stroke-width:0.264583"
       d="m 153.54884,176.73965 c -2.73792,-1.45466 -2.18316,-3.60172 1.34605,-5.20945 3.86025,-1.75855 6.42178,2.8704 2.92117,5.27888 -1.48065,1.01872 -2.24246,1.00632 -4.26722,-0.0694 z"
       id="path19242" /><path
       style="fill:#000000;stroke-width:0.264583"
       d="m 167.2255,177.44726 c -1.12671,-0.55525 -2.64538,-2.41005 -2.86261,-3.49618 -0.15478,-0.77389 -0.0388,-0.96957 1.3573,-2.28974 2.41221,-2.28103 3.36137,-2.0166 4.58855,1.27838 0.95685,2.56914 0.80719,3.40344 -0.78384,4.36967 -1.1355,0.68958 -1.17507,0.69196 -2.2994,0.13787 z"
       id="path19234" /><path
       style="fill:#000000;stroke-width:0.264583"
       d="m 57.436674,176.64695 c -1.511863,-1.67565 -1.447427,-2.30514 0.476578,-4.65586 0.511906,-0.62544 4.047456,-1.5104 4.860171,-1.21652 2.124313,0.76816 1.95249,5.43609 -0.203181,5.51986 -0.124579,0.005 -0.677495,0.36599 -1.228699,0.80255 -1.52877,1.21081 -2.508207,1.09793 -3.904869,-0.45003 z"
       id="path19230" /><path
       style="fill:#000000;stroke-width:0.264583"
       d="m 141.07827,177.95688 c -0.9885,-1.45922 -0.31394,-6.89772 0.99652,-8.03428 1.14247,-0.99087 2.74266,-0.63095 3.89578,0.87625 1.18201,1.54494 1.14504,6.39026 -0.0564,7.39399 -1.01172,0.84523 -4.20917,0.68921 -4.8359,-0.23596 z"
       id="path19204" /><path
       style="fill:#000000;stroke-width:0.264583"
       d="m 131.70192,178.21972 c -0.37414,-0.25371 -1.02777,-0.7887 -1.45251,-1.18888 -0.42473,-0.40019 -0.86451,-0.72761 -0.97727,-0.72761 -0.37761,0 -1.2536,-1.71133 -1.2546,-2.45098 -0.003,-2.05589 1.9823,-3.63765 4.55376,-3.62855 2.41118,0.009 2.88066,0.44345 3.05117,2.82655 0.27699,3.87124 -1.79877,6.60823 -3.92055,5.16947 z"
       id="path19200" /><path
       style="fill:#000000;stroke-width:0.264583"
       d="m 70.112491,177.88907 c -1.816253,-1.31568 -1.537036,-4.06322 0.732759,-7.21049 1.264351,-1.75314 2.080043,-1.73653 3.867697,0.0787 1.312971,1.33325 1.312971,1.33325 1.302637,3.25845 -0.0087,1.61209 -0.105474,2.02732 -0.595313,2.5531 -0.321738,0.34535 -0.584978,0.71275 -0.584978,0.81646 0,0.10371 -0.423524,0.43845 -0.941165,0.74386 -1.328523,0.78385 -2.46798,0.7115 -3.781637,-0.24011 z"
       id="path19196" /><path
       style="fill:#000000;stroke-width:0.264583"
       d="m 70.866543,188.43539 c -1.33382,-0.37268 -1.927677,-1.31398 -1.927677,-3.05546 0,-2.73351 2.194541,-4.74254 3.444568,-3.15339 0.285975,0.36355 0.805804,0.73446 1.155176,0.82422 0.917091,0.23564 1.361162,0.65538 1.958597,1.85128 0.29079,0.58208 0.601961,1.11787 0.691488,1.19063 1.077857,0.87599 0.13267,1.94908 -1.948532,2.2122 -0.691123,0.0874 -1.524561,0.21071 -1.852083,0.27407 -0.327522,0.0634 -1.012214,-10e-4 -1.521537,-0.14355 z"
       id="path19148" /><path
       style="fill:#000000;stroke-width:0.264583"
       d="m 129.81547,188.54576 c -0.96788,-0.60032 -2.05184,-2.67326 -2.24333,-4.29009 -0.18934,-1.59867 0.20014,-1.89131 1.54501,-1.16087 0.62846,0.34133 1.47311,0.48354 2.92372,0.49226 3.59934,0.0216 4.48841,2.17091 1.9486,4.71071 -0.85491,0.85492 -2.99087,0.98182 -4.174,0.24799 z"
       id="path19136" /><path
       style="fill:#000000;stroke-width:0.264583"
       d="m 59.191222,188.5576 c -2.389521,-1.48299 -2.252525,-6.43368 0.178032,-6.43368 2.471391,0 5.38983,3.8845 4.36172,5.80554 -0.536485,1.00243 -3.316806,1.38713 -4.539752,0.62814 z"
       id="path19132" /><path
       style="fill:#000000;stroke-width:0.264583"
       d="m 45.5626,188.0852 c -2.77467,-1.81912 -3.63155,-4.1387 -1.88199,-5.09459 1.36217,-0.74425 7.016158,-0.68364 8.050386,0.0863 1.433496,1.06716 1.124381,3.99528 -0.575803,5.45436 -1.000315,0.85846 -3.963296,0.62213 -5.592593,-0.44606 z"
       id="path19128" /><path
       style="fill:#000000;stroke-width:0.264583"
       d="m 154.63477,189.08189 c -1.15661,-0.18327 -3.59947,-2.72894 -3.59947,-3.75097 0,-2.098 3.64965,-3.21387 6.69929,-2.04828 4.8349,1.84791 2.26818,6.64982 -3.09982,5.79925 z"
       id="path19120" /><path
       style="fill:#000000;stroke-width:0.264583"
       d="m 107.25463,189.08535 c -0.76952,-0.21185 -3.11162,-1.57309 -3.78335,-2.1989 -1.07419,-1.00076 -1.01207,-3.17503 0.0907,-3.17503 0.2352,0 1.25642,-0.25174 2.26939,-0.55942 2.00793,-0.60989 3.51303,-0.43858 4.98726,0.56767 0.3638,0.24832 0.95911,0.54269 1.32292,0.65415 2.96492,0.90843 -1.84762,5.54825 -4.88692,4.71153 z"
       id="path19116" /><path
       style="fill:#000000;stroke-width:0.264583"
       d="m 94.419185,189.08617 c -0.215683,-0.0925 -0.548957,-0.32494 -0.740608,-0.51659 -0.191654,-0.19165 -0.555284,-0.49994 -0.808067,-0.68508 -2.124897,-1.55631 -1.160055,-3.59939 2.244784,-4.7534 4.266149,-1.44594 5.012456,-1.28962 4.940026,1.03467 -0.107065,3.43606 -3.06839,6.02132 -5.636135,4.9204 z"
       id="path19112" /><path
       style="fill:#000000;stroke-width:0.264583"
       d="m 164.63644,188.83681 c -1.98696,-1.34839 -2.13067,-2.03162 -0.74281,-3.53163 1.26401,-1.36615 4.2526,-2.6521 6.16357,-2.6521 1.70434,0 1.94076,3.52129 0.35304,5.25823 -0.54889,0.60048 -1.1967,1.09177 -1.43959,1.09177 -0.24289,0 -0.5152,0.11906 -0.60514,0.26459 -0.3464,0.56048 -2.6626,0.29287 -3.72907,-0.43086 z"
       id="path19108" /><path
       style="fill:#000000;stroke-width:0.264583"
       d="m 140.4655,189.01662 c -1.39732,-1.39733 0.0857,-4.53326 2.6323,-5.56634 0.50932,-0.20661 1.05036,-0.53941 1.2023,-0.73955 0.52774,-0.69512 2.03901,-0.2981 2.29838,0.60381 0.80733,2.80738 -0.70858,5.06151 -3.89755,5.79555 -0.43657,0.10049 -0.99602,0.24267 -1.24324,0.31597 -0.24794,0.0735 -0.69284,-0.11009 -0.99219,-0.40944 z"
       id="path19104" /><path
       style="fill:#000000;stroke-width:0.264583"
       d="m 118.49155,190.12582 c -3.11923,-2.17524 -4.47087,-4.39038 -3.28134,-5.37762 0.20401,-0.1693 0.37092,-0.47184 0.37092,-0.67231 0,-0.20046 0.16867,-0.36447 0.37483,-0.36447 0.20615,0 0.41451,-0.0893 0.46302,-0.19844 0.2113,-0.47542 1.84597,-1.12448 2.83202,-1.12448 1.01735,0 2.97445,0.69528 3.1652,1.12448 0.0485,0.10914 0.22974,0.19844 0.40274,0.19844 0.173,0 0.75839,0.36585 1.30087,0.81301 1.50341,1.23924 1.36394,1.81501 -0.99926,4.12515 -2.18253,2.13353 -3.21452,2.46264 -4.629,1.47624 z"
       id="path19088" /><path
       style="fill:#000000;stroke-width:0.264583"
       d="m 82.50821,190.68074 c -1.444009,-0.59196 -2.711336,-4.07038 -2.249353,-6.17378 0.190485,-0.86727 2.318327,-2.11846 3.602776,-2.11846 3.284628,0 5.137775,6.11678 2.351746,7.76253 -0.827823,0.489 -3.034781,0.80452 -3.705169,0.52971 z"
       id="path19082" /><path
       style="fill:#000000;stroke-width:0.264583"
       d="m 166.27583,200.25844 c -2.11497,-1.03597 -2.41856,-2.64174 -0.84662,-4.47807 1.10222,-1.28761 2.16444,-1.20275 3.8533,0.30786 3.24356,2.90118 0.93616,6.10151 -3.00668,4.17021 z"
       id="path19048" /><path
       style="fill:#000000;stroke-width:0.264583"
       d="m 58.232689,200.46995 c -0.618463,-0.21892 -1.124479,-0.50718 -1.124479,-0.64057 0,-0.13339 -0.178594,-0.24253 -0.396875,-0.24253 -0.218281,0 -0.396875,-0.12757 -0.396875,-0.28349 0,-0.15591 -0.184724,-0.4682 -0.410498,-0.69398 -0.809641,-0.80964 -0.405011,-2.54417 0.643136,-2.75694 0.491754,-0.0998 0.968004,-0.2949 1.058333,-0.43349 0.473821,-0.72699 2.904612,-1.17599 3.729281,-0.68884 0.440319,0.2601 0.800581,0.5663 0.800581,0.68045 0,0.21724 0.341556,0.65109 1.615485,2.05199 2.144903,2.35868 -1.594016,4.39642 -5.518089,3.0074 z"
       id="path19044" /><path
       style="fill:#000000;stroke-width:0.264583"
       d="m 46.11508,200.61059 c -1.31411,-0.63843 -1.9166,-3.45984 -0.94607,-4.43038 0.30916,-0.30916 0.56505,-0.65141 0.56862,-0.76055 0.0266,-0.80962 3.505785,-1.47697 3.793345,-0.72761 0.08376,0.21829 0.367696,0.39688 0.630962,0.39688 1.049322,0 1.904786,1.95336 1.417159,3.23592 -0.654931,1.7226 -3.861822,3.06412 -5.464016,2.28574 z"
       id="path19040" /><path
       style="fill:#000000;stroke-width:0.264583"
       d="m 79.121543,200.85685 c -0.535805,-0.53581 0.191006,-2.06375 0.981681,-2.06375 0.158576,0 0.288319,-0.20054 0.288319,-0.44564 0,-0.24509 0.2573,-0.97714 0.571778,-1.62676 0.314479,-0.64963 0.627523,-1.76127 0.695653,-2.47031 0.206949,-2.15377 1.031116,-2.06243 3.54793,0.39321 2.468066,2.40807 2.708246,4.70393 0.626685,5.9904 -1.033918,0.639 -6.126806,0.80809 -6.712046,0.22285 z"
       id="path19024" /><path
       style="fill:#000000;stroke-width:0.264583"
       d="m 130.20701,201.26152 c -1.15485,-0.16203 -3.24876,-2.18928 -3.24876,-3.14534 0,-0.82458 0.77314,-2.23351 1.22562,-2.23351 0.17478,0 0.35962,-0.12551 0.41075,-0.27892 0.15787,-0.47359 2.36847,-0.81767 4.07748,-0.63465 2.77812,0.29751 3.80945,1.78383 2.73315,3.93891 -1.10313,2.20881 -2.31594,2.75791 -5.19824,2.35351 z"
       id="path19018" /><path
       style="fill:#000000;stroke-width:0.264583"
       d="m 118.58539,201.30796 c -1.96916,-0.58535 -3.88993,-3.28363 -3.74536,-5.26143 l 0.0797,-1.0899 4.0923,0.0792 c 5.61226,0.10864 6.3194,0.57059 5.03996,3.29247 -1.13619,2.41716 -3.33218,3.61411 -5.46657,2.97965 z"
       id="path19010" /><path
       style="fill:#000000;stroke-width:0.264583"
       d="m 139.79936,201.03324 c -1.03682,-1.03682 -1.30225,-2.6642 -0.53799,-3.29848 0.21828,-0.18115 0.39688,-0.43954 0.39688,-0.57419 0,-0.26924 0.92551,-1.17291 2.33604,-2.28091 0.50187,-0.39422 1.06604,-0.8656 1.2537,-1.0475 0.18767,-0.1819 0.46878,-0.33073 0.62469,-0.33073 0.15592,0 0.28348,-0.12591 0.28348,-0.2798 0,-0.79079 2.24734,-0.12032 2.71157,0.80897 0.63456,1.27024 0.64288,4.64831 0.0137,5.56352 -1.59163,2.31522 -5.42667,3.09452 -7.08208,1.43912 z"
       id="path19004" /><path
       style="fill:#000000;stroke-width:0.264583"
       d="m 94.215373,201.63737 c -1.18686,-1.48735 -1.394371,-4.04383 -0.553017,-6.81302 0.683573,-2.24988 3.468786,-2.01497 4.001241,0.33747 0.07327,0.32371 0.384879,1.56136 0.692465,2.75034 0.607841,2.34961 0.494263,3.25818 -0.471929,3.77527 -0.732068,0.39179 -3.344625,0.35614 -3.66876,-0.0501 z"
       id="path19000" /><path
       style="fill:#000000;stroke-width:0.264583"
       d="m 71.909455,201.72304 c -1.556663,-0.48577 -2.154944,-0.94274 -3.143136,-2.40078 -0.345199,-0.50932 -0.786501,-1.0573 -0.980673,-1.21774 -0.194172,-0.16043 -0.531519,-0.71885 -0.74966,-1.24094 -0.631698,-1.51186 -0.31601,-1.64236 3.973179,-1.64236 3.676603,0 3.676603,0 4.253013,1.02721 0.645338,1.15004 1.25648,3.83915 1.015328,4.46757 -0.299148,0.77958 -3.05843,1.41572 -4.368051,1.00704 z"
       id="path18996" /><path
       style="fill:#000000;stroke-width:0.264583"
       d="m 156.12351,201.73818 c -0.91227,-0.40295 -1.79929,-0.87325 -1.97115,-1.04511 -0.17186,-0.17186 -0.45414,-0.31247 -0.6273,-0.31247 -0.17315,0 -0.57731,-0.55843 -0.89813,-1.24095 -0.80018,-1.70231 -0.39982,-2.5128 2.0437,-4.13725 4.12043,-2.73925 4.35188,-2.54912 4.40325,3.61718 0.0366,4.3877 0.003,4.42311 -2.95037,3.1186 z"
       id="path18992" /><path
       style="fill:#000000;stroke-width:0.264583"
       d="m 107.11446,203.90439 c -1.32626,-0.46316 -2.64583,-1.2427 -2.64583,-1.56302 0,-0.2053 -0.11448,-0.37327 -0.25439,-0.37327 -0.13991,0 -0.38127,-0.47123 -0.53636,-1.04717 -0.15508,-0.57594 -0.39779,-1.11874 -0.53936,-1.20623 -0.66403,-0.4104 -0.28053,-2.78239 0.5764,-3.56507 4.07,-3.71737 9.22574,-1.06661 8.28894,4.26166 -0.53635,3.05062 -2.38157,4.36889 -4.8894,3.4931 z"
       id="path18978" /><path
       style="fill:#000000;stroke-width:0.264583"
       d="m 165.67178,211.77713 c -2.17407,-0.54178 -2.9306,-3.6622 -1.00505,-4.14548 1.53421,-0.38507 4.83417,-0.002 5.42259,0.62981 1.16839,1.25412 0.22742,3.49622 -1.46731,3.49622 -0.32298,0 -0.92954,0.0516 -1.34791,0.1146 -0.41837,0.063 -1.13942,0.0202 -1.60232,-0.0951 z"
       id="path18950" /><path
       style="fill:#000000;stroke-width:0.264583"
       d="m 93.519983,212.28897 c -1.063075,-0.33396 -2.01594,-1.29959 -2.01594,-2.04294 0,-1.2402 2.861292,-3.51618 4.418632,-3.51475 0.723958,7.9e-4 3.724434,1.6156 4.110125,2.21219 1.19093,1.84209 -3.548597,4.27668 -6.512817,3.3455 z"
       id="path18942" /><path
       style="fill:#000000;stroke-width:0.264583"
       d="m 117.78577,212.33601 c -1.9096,-1.23067 -2.50417,-2.11704 -1.80776,-2.695 0.21828,-0.18115 0.39687,-0.594 0.39687,-0.91743 0,-2.14272 3.82847,-2.20437 6.2694,-0.10096 1.66621,1.43582 1.80918,1.84977 0.92068,2.66556 -2.09657,1.925 -3.90838,2.2535 -5.77919,1.04783 z"
       id="path18932" /><path
       style="fill:#000000;stroke-width:0.264583"
       d="m 80.898832,212.27327 c -3.767418,-2.39407 -2.035353,-4.97516 3.355834,-5.0008 3.804939,-0.0181 5.371317,0.58809 5.030325,1.94671 -0.198205,0.78971 -2.256311,2.94087 -3.056694,3.1949 -0.299797,0.0952 -0.545087,0.28405 -0.545087,0.41976 0,0.63702 -3.555336,0.22045 -4.784378,-0.56057 z"
       id="path18928" /><path
       style="fill:#000000;stroke-width:0.264583"
       d="m 46.72718,213.31757 c -2.13922,-1.59623 -2.72855,-7.73003 -0.81269,-8.45844 1.1028,-0.41929 1.823983,-0.0952 2.845195,1.27866 0.512797,0.68986 1.053182,1.3981 1.200857,1.57386 0.147677,0.17576 0.268501,0.37815 0.268501,0.44975 0,0.0716 0.340493,0.64218 0.75665,1.26794 1.494145,2.24669 1.308209,3.21255 -0.758557,3.94039 -1.810962,0.63776 -2.590941,0.62613 -3.499956,-0.0522 z"
       id="path18910" /><path
       style="fill:#000000;stroke-width:0.264583"
       d="m 106.58529,213.98354 c -2.96945,-0.52119 -3.70416,-0.93822 -3.70416,-2.10251 0,-2.24028 2.20385,-5.69033 3.90816,-6.11808 1.48562,-0.37287 3.73052,0.93339 4.61859,2.68747 1.63361,3.22663 1.70775,4.47131 0.30133,5.05895 -0.98178,0.41022 -3.93252,0.68328 -5.12392,0.47417 z"
       id="path18904" /><path
       style="fill:#000000;stroke-width:0.264583"
       d="m 152.13303,214.05413 c -0.48841,-0.58849 -0.3176,-6.70289 0.19988,-7.15548 0.55516,-0.48554 5.59641,-0.84946 6.32984,-0.45694 0.37516,0.20078 0.55713,0.63632 0.64389,1.54117 0.0665,0.69371 0.28073,1.94306 0.47602,2.77633 0.63315,2.70163 0.37158,2.98102 -2.80112,2.99203 -1.5605,0.005 -2.87512,0.14056 -3.21687,0.33073 -0.74811,0.41628 -1.27046,0.40737 -1.63164,-0.0278 z"
       id="path18896" /><path
       style="fill:#000000;stroke-width:0.264583"
       d="m 70.026608,214.04624 c -2.198857,-0.97672 -2.609258,-3.92981 -0.998286,-7.18332 1.293283,-2.61192 2.784818,-2.49132 5.410096,0.43742 1.428721,1.59386 1.196727,4.41489 -0.488619,5.94157 -1.381257,1.25121 -2.432098,1.46666 -3.923191,0.80433 z"
       id="path18892" /><path
       style="fill:#000000;stroke-width:0.264583"
       d="m 143.97489,214.15378 c -1.3018,-0.59103 -2.72917,-1.60334 -2.72917,-1.93556 0,-0.12855 -0.1786,-0.41232 -0.39688,-0.6306 -2.16259,-2.1626 2.68165,-8.39103 5.01809,-6.45196 1.22684,1.01819 2.20853,4.97854 1.74619,7.0445 -0.5632,2.51663 -1.41931,2.98104 -3.63823,1.97362 z"
       id="path18882" /><path
       style="fill:#000000;stroke-width:0.264583"
       d="m 56.492604,214.27931 c -0.606105,-0.60611 -0.358733,-7.75011 0.28529,-8.23901 0.778809,-0.59121 6.547434,-0.50089 7.160447,0.11212 0.761641,0.76164 0.645007,6.97899 -0.145753,7.76975 -0.722718,0.72272 -6.644683,1.01244 -7.299984,0.35714 z"
       id="path18878" /><path
       style="fill:#000000;stroke-width:0.264583"
       d="m 130.53412,214.851 c -1.11901,-0.67158 -1.5382,-1.59646 -1.98741,-4.38488 -0.12616,-0.78313 -0.35659,-1.55109 -0.51206,-1.70656 -0.15548,-0.15548 -0.28268,-0.73093 -0.28268,-1.27879 0,-1.62829 1.00785,-1.76354 3.96875,-0.53259 0.3638,0.15124 0.98055,0.34294 1.37056,0.42599 1.24236,0.26455 1.57196,0.82542 1.38555,2.35775 -0.51841,4.2616 -2.05256,6.25349 -3.94271,5.11908 z"
       id="path18870" /><path
       style="fill:#000000;stroke-width:0.264583"
       d="m 145.08218,224.72226 c -0.29105,-0.12506 -1.14367,-0.23576 -1.89472,-0.24598 -3.21938,-0.0439 -3.74156,-4.75669 -0.6034,-5.44595 0.42474,-0.0933 0.84018,-0.27951 0.9232,-0.41384 0.2554,-0.41325 1.5959,-0.27054 2.1748,0.23153 0.68615,0.5951 1.64907,3.28053 1.64907,4.59899 0,1.34592 -0.89865,1.8555 -2.24895,1.27525 z"
       id="path18820" /><path
       style="fill:#000000;stroke-width:0.264583"
       d="m 83.467325,224.6683 c -1.204098,-0.4381 -3.094541,-2.88251 -3.066979,-3.9657 0.04163,-1.63599 5.511374,-2.38064 6.492116,-0.88383 0.874276,1.33431 -0.223584,4.33577 -1.785017,4.88009 -0.454364,0.15839 -0.838115,0.27859 -0.852779,0.2671 -0.01466,-0.0115 -0.368969,-0.14544 -0.787341,-0.29766 z"
       id="path18816" /><path
       style="fill:#000000;stroke-width:0.264583"
       d="m 168.10093,225.07537 c -2.63793,-0.59981 -4.8948,-2.94719 -4.8948,-5.09108 0,-2.2276 3.73728,-2.9989 5.52124,-1.13949 1.24656,1.29929 1.8871,2.12032 1.8871,2.41886 0,0.13173 0.10126,0.27919 0.22504,0.3277 0.27703,0.10857 1.62704,2.23632 1.62704,2.56438 0,0.53754 -3.13846,1.19866 -4.36562,0.91963 z"
       id="path18802" /><path
       style="fill:#000000;stroke-width:0.264583"
       d="m 57.473941,224.74645 c -2.044369,-1.24661 -0.85325,-4.18086 2.381618,-5.86697 2.445755,-1.2748 3.867234,-0.53846 3.867234,2.00325 0,3.12598 -3.703449,5.41585 -6.248852,3.86372 z"
       id="path18798" /><path
       style="fill:#000000;stroke-width:0.264583"
       d="m 47.120189,225.04513 c -0.327422,-0.0523 -0.595312,-0.20587 -0.595312,-0.34127 0,-0.1354 -0.178594,-0.24618 -0.396877,-0.24618 -0.21828,0 -0.39687,-0.17859 -0.39687,-0.39687 0,-0.21829 -0.10845,-0.39688 -0.24098,-0.39688 -0.38581,0 -1.34652,-2.2074 -1.34652,-3.09385 0,-1.19744 0.34644,-1.32591 3.958499,-1.46793 3.297045,-0.12963 3.297045,-0.12963 4.021347,0.59467 1.360199,1.3602 1.272117,2.94177 -0.206346,3.70511 -0.419124,0.2164 -0.821576,0.46343 -0.894337,0.54897 -0.139303,0.16376 -1.528101,0.69074 -2.645833,1.00396 -0.363802,0.10195 -0.929349,0.14257 -1.256771,0.0903 z"
       id="path18794" /><path
       style="fill:#000000;stroke-width:0.264583"
       d="m 127.92836,225.86879 c -0.29731,-0.2973 -0.19278,-2.03408 0.16454,-2.73403 0.18572,-0.3638 0.51109,-1.19592 0.72304,-1.84915 0.80745,-2.48853 4.03702,-3.91908 5.11916,-2.26753 0.68459,1.04483 0.84059,3.33521 0.30415,4.46567 -0.77948,1.64263 -5.33258,3.36336 -6.31089,2.38504 z"
       id="path18782" /><path
       style="fill:#000000;stroke-width:0.264583"
       d="m 118.89866,226.12441 c -0.96649,-0.1544 -3.47787,-1.79083 -4.02141,-2.62038 -0.87094,-1.32922 0.52457,-3.4964 2.96828,-4.60963 2.40285,-1.09463 4.72743,0.004 6.09695,2.88193 0.68038,1.42968 0.37023,2.28718 -1.36807,3.78232 -0.55521,0.47754 -2.42576,0.76546 -3.67575,0.56576 z"
       id="path18778" /><path
       style="fill:#000000;stroke-width:0.264583"
       d="m 154.52363,226.2916 c -1.90393,-0.37477 -4.0175,-1.93122 -4.0175,-2.95853 0,-0.77129 1.23601,-3.14256 2.16981,-4.16277 0.79473,-0.86826 0.9424,-0.922 2.54466,-0.92604 1.70098,-0.004 1.70098,-0.004 3.25575,1.68548 1.8765,2.03942 2.09697,3.32323 0.85121,4.95652 -1.14577,1.50218 -2.4193,1.87473 -4.80393,1.40534 z"
       id="path18774" /><path
       style="fill:#000000;stroke-width:0.264583"
       d="m 108.56967,226.23005 c -4.51499,-1.46855 -5.40781,-6.25179 -1.5345,-8.22103 1.25253,-0.63681 3.03907,-0.57131 3.47543,0.12741 2.33428,3.73777 1.05595,9.06838 -1.94093,8.09362 z"
       id="path18770" /><path
       style="fill:#000000;stroke-width:0.264583"
       d="m 70.60196,226.2313 c -2.306407,-1.07125 -2.965998,-2.72454 -1.989413,-4.98653 1.765554,-4.08942 5.660377,-3.96826 7.575484,0.23566 1.451478,3.18619 -2.224246,6.31234 -5.586071,4.75087 z"
       id="path18766" /><path
       style="fill:#000000;stroke-width:0.264583"
       d="m 94.206103,226.7175 c -1.279916,-0.7066 -1.908262,-1.53051 -1.90994,-2.50438 -7.93e-4,-0.52033 -0.184388,-1.29654 -0.407757,-1.72489 -0.637852,-1.2232 0.600133,-3.32222 1.959417,-3.32222 0.268221,0 0.875149,-0.13507 1.348729,-0.30016 2.243948,-0.78225 5.899148,1.3383 5.048048,2.9286 -0.15064,0.28148 -0.27389,0.88462 -0.27389,1.34031 0,1.37644 -1.448663,3.43959 -2.415135,3.43959 -0.255228,0 -0.537636,0.11906 -0.627573,0.26458 -0.225089,0.3642 -1.984412,0.28571 -2.721899,-0.12143 z"
       id="path18758" /><path
       style="fill:#000000;stroke-width:0.264583"
       d="m 83.169668,236.37998 c -4.097382,-0.69968 -4.78881,-3.32085 -1.534919,-5.81878 1.346435,-1.03363 2.961428,-0.75199 4.621514,0.80597 0.485185,0.45533 1.209577,1.13088 1.60976,1.50121 1.893138,1.75193 -1.247791,4.10049 -4.696355,3.5116 z"
       id="path18706" /><path
       style="fill:#000000;stroke-width:0.264583"
       d="m 166.9103,236.59537 c -3.01791,-0.81474 -3.79651,-3.49145 -1.56242,-5.37131 2.62756,-2.21095 6.09651,0.45172 4.72924,3.63003 -0.86645,2.01412 -1.29117,2.24765 -3.16682,1.74128 z"
       id="path18700" /><path
       style="fill:#000000;stroke-width:0.264583"
       d="m 131.45613,236.76081 c -0.3638,-0.20797 -0.86981,-0.38235 -1.12448,-0.3875 -0.25466,-0.005 -0.46302,-0.12844 -0.46302,-0.27396 0,-0.14552 -0.14882,-0.2691 -0.33073,-0.27463 -0.66747,-0.0203 -1.78593,-2.05758 -1.78593,-3.25315 0,-1.81437 1.56041,-3.51581 2.68909,-2.93214 1.12955,0.58411 5.51299,4.94159 5.51299,5.48033 0,1.31863 -3.08988,2.44595 -4.49792,1.64105 z"
       id="path18696" /><path
       style="fill:#000000;stroke-width:0.264583"
       d="m 70.469668,236.40966 c -2.312048,-1.59574 -2.146607,-4.06686 0.393153,-5.87235 2.899481,-2.06122 3.707894,-1.81573 4.368921,1.32668 0.526222,2.50156 0.500026,3.40218 -0.128966,4.4338 -0.728276,1.19445 -2.985587,1.24896 -4.633108,0.11187 z"
       id="path18692" /><path
       style="fill:#000000;stroke-width:0.264583"
       d="m 57.985402,236.89125 c -0.811837,-0.3271 -1.210649,-1.19891 -0.995839,-2.17694 0.167994,-0.76488 1.318075,-3.07588 1.680811,-3.37746 0.08751,-0.0728 0.502396,-0.63831 0.921959,-1.25677 1.228775,-1.81129 2.553303,-1.21198 3.773003,1.70717 1.194446,2.85872 -2.426515,6.29396 -5.379934,5.104 z"
       id="path18688" /><path
       style="fill:#000000;stroke-width:0.264583"
       d="m 47.277712,236.28076 c -2.679232,-0.91994 -3.073342,-1.39683 -2.494292,-3.01818 0.95343,-2.66966 1.844414,-3.40889 3.502357,-2.90584 3.323418,1.00837 4.408487,2.58188 3.526041,5.11326 -0.574956,1.64933 -1.5724,1.82768 -4.534106,0.81076 z"
       id="path18684" /><path
       style="fill:#000000;stroke-width:0.264583"
       d="m 94.959324,237.23674 c -2.043427,-0.40848 -4.588449,-4.67533 -3.667887,-6.14938 0.402283,-0.64416 0.144796,-0.59851 3.784481,-0.67098 1.600729,-0.0319 3.331403,-0.14551 3.845944,-0.25253 1.729218,-0.35966 1.931178,1.1801 0.587655,4.48029 -0.776986,1.90856 -2.645695,2.97332 -4.550193,2.5926 z"
       id="path18674" /><path
       style="fill:#000000;stroke-width:0.264583"
       d="m 140.98113,237.21869 c -0.68914,-0.77797 -0.19793,-6.98898 0.59572,-7.53257 0.82128,-0.56251 3.11086,0.0365 4.05072,1.05978 1.57613,1.71603 1.06434,4.93034 -0.94227,5.91794 -2.17526,1.07061 -3.12171,1.21238 -3.70417,0.55485 z"
       id="path18670" /><path
       style="fill:#000000;stroke-width:0.264583"
       d="m 154.16478,237.53102 c -1.22905,-0.52307 -1.7258,-1.5412 -2.09673,-4.2974 -0.45623,-3.39002 0.21265,-4.27802 3.22239,-4.27802 2.80905,0 3.15319,0.40932 3.15319,3.75039 0,4.157 -1.6025,5.96406 -4.27885,4.82503 z"
       id="path18666" /><path
       style="fill:#000000;stroke-width:0.264583"
       d="m 118.38907,237.51647 c -1.766,-0.9565 -2.56692,-2.65633 -2.05293,-4.35701 0.98623,-3.26322 1.1566,-3.50816 2.74639,-3.94838 1.24182,-0.34387 2.38823,0.17411 2.77404,1.25339 1.44756,4.04941 1.4108,4.6976 -0.36086,6.36248 -1.28576,1.20827 -1.89799,1.34416 -3.10664,0.68952 z"
       id="path18662" /><path
       style="fill:#000000;stroke-width:0.264583"
       d="m 104.61438,237.06656 c -0.37121,-0.48668 -0.67492,-1.21249 -0.67492,-1.61292 0,-1.65015 1.78419,-6.01491 2.69307,-6.58822 1.87733,-1.18419 4.96551,3.29073 3.97659,5.76226 -1.1645,2.91037 -4.57638,4.29845 -5.99474,2.43888 z"
       id="path18658" /><path
       style="fill:#000000;stroke-width:0.264583"
       d="m 153.32836,247.56463 c -0.27592,-0.27592 -0.2067,-2.4476 0.096,-3.01327 1.45045,-2.71018 6.09654,-0.31696 5.15342,2.65454 -0.17129,0.5397 -4.75524,0.85294 -5.24945,0.35873 z"
       id="path18646" /><path
       style="fill:#000000;stroke-width:0.264583"
       d="m 57.321242,247.33666 c -0.706387,-1.55035 1.140359,-3.82898 3.103253,-3.82898 1.882396,0 2.769132,0.98964 2.769132,3.0905 0,1.0692 -0.0026,1.07022 -3.129135,1.22284 -2.369415,0.11566 -2.478651,0.0964 -2.74325,-0.48436 z"
       id="path18636" /><path
       style="fill:#000000;stroke-width:0.264583"
       d="m 131.9853,248.34441 c -2.34394,-0.10064 -2.91042,-0.53957 -2.91042,-2.25514 0,-2.36442 1.96383,-3.822 4.23334,-3.14204 0.58208,0.1744 1.05833,0.43988 1.05833,0.58995 0,0.15008 0.17859,0.45146 0.39688,0.66974 0.82015,0.82015 0.54089,4.37589 -0.33577,4.27525 -0.25189,-0.0289 -1.35095,-0.0909 -2.44236,-0.13776 z"
       id="path18628" /><path
       style="fill:#000000;stroke-width:0.264583"
       d="m 81.361683,248.35836 c -0.55263,-0.55263 -0.161308,-3.43354 0.588359,-4.33152 1.106591,-1.32552 3.124259,-1.35 4.284038,-0.052 0.843931,0.94452 1.1254,3.57153 0.454547,4.24239 -0.337931,0.33793 -5.006457,0.4616 -5.326944,0.14111 z"
       id="path18624" /><path
       style="fill:#000000;stroke-width:0.264583"
       d="m 142.8829,248.53563 c -2.64589,-1.12703 -2.40775,-4.64245 0.37229,-5.49567 1.1833,-0.36317 1.43168,-0.24661 2.40632,1.12917 1.70842,2.41158 1.85934,2.92515 1.08669,3.6978 -0.76969,0.76969 -2.80257,1.12138 -3.8653,0.6687 z"
       id="path18610" /><path
       style="fill:#000000;stroke-width:0.264583"
       d="m 47.012731,248.14843 c -1.783071,-1.21163 -1.897171,-3.14325 -0.281149,-4.75927 1.185762,-1.18576 1.624084,-1.17976 2.589985,0.0355 0.426353,0.5364 1.162138,1.3521 1.63508,1.81267 2.240265,2.18163 -1.238564,4.74948 -3.943916,2.91115 z"
       id="path18606" /><path
       style="fill:#000000;stroke-width:0.264583"
       d="m 166.47004,248.6317 c -0.60595,-0.21475 -1.17587,-0.58367 -1.26649,-0.81983 -0.17992,-0.46885 1.06049,-4.21691 1.58684,-4.79485 0.83367,-0.9154 4.61783,1.7783 4.61783,3.28714 0,2.18641 -2.29035,3.26593 -4.93818,2.32754 z"
       id="path18594" /><path
       style="fill:#000000;stroke-width:0.264583"
       d="m 94.030322,248.09729 c -1.648426,-1.69733 -1.25254,-3.81989 0.970142,-5.20147 1.164043,-0.72355 1.685513,-0.57075 2.313835,0.678 0.311187,0.61846 0.66589,1.30307 0.78823,1.52135 1.411984,2.5193 1.362102,2.98595 -0.384135,3.59365 -1.799667,0.62629 -2.635544,0.49223 -3.688072,-0.59153 z"
       id="path18592" /><path
       style="fill:#000000;stroke-width:0.264583"
       d="m 118.49155,248.87107 c -1.75864,-0.61396 -1.85327,-0.98793 -0.77862,-3.07715 1.75206,-3.40616 1.91643,-3.5646 3.05932,-2.94912 2.79862,1.50716 3.16087,4.46791 0.73078,5.97281 -0.97226,0.60211 -1.4173,0.61001 -3.01148,0.0535 z"
       id="path18584" /><path
       style="fill:#000000;stroke-width:0.264583"
       d="m 106.03217,248.73188 c -1.4313,-1.24042 -2.08536,-3.53822 -1.24604,-4.37754 0.51969,-0.5197 5.6677,-0.43114 5.8719,0.10101 1.13194,2.94978 -2.39472,6.21011 -4.62586,4.27653 z"
       id="path18582" /><path
       style="fill:#000000;stroke-width:0.264583"
       d="m 71.660293,249.1425 c -1.773769,-0.52412 -3.567917,-2.40377 -3.067412,-3.21361 0.307202,-0.49706 4.010043,-2.67589 4.824359,-2.83875 1.221045,-0.24421 1.886427,1.10319 1.721099,3.48523 -0.08171,1.17732 -2.397329,2.88646 -3.478046,2.56713 z"
       id="path18578" /></g></svg>
