<?xml version="1.0" encoding="UTF-8" standalone="no"?>
<!-- Created with Inkscape (http://www.inkscape.org/) -->

<svg
   width="137.46175mm"
   height="198.10794mm"
   viewBox="0 0 137.46174 198.10794"
   version="1.1"
   id="svg18363"
   xml:space="preserve"
   xmlns="http://www.w3.org/2000/svg"
   xmlns:svg="http://www.w3.org/2000/svg"><defs
     id="defs18360" /><g
     id="layer1"
     transform="translate(-39.520889,-56.742418)"><path
       style="fill:#000000;stroke-width:0.264583"
       d="m 148.27657,60.330612 c -0.81695,-0.597363 -0.34327,-2.39513 0.8104,-3.075818 1.1644,-0.687012 1.58966,-0.683964 1.96324,0.01408 0.93832,1.753272 -1.25379,4.173085 -2.77364,3.061745 z"
       id="path20260" /><path
       style="fill:#000000;stroke-width:0.264583"
       d="m 100.30144,60.693823 c -0.396384,-0.641472 -0.436024,-1.600737 -0.0661,-1.600737 0.14552,0 0.26551,-0.148828 0.26665,-0.330729 10e-4,-0.181901 0.31931,-0.478039 0.70705,-0.658082 1.1119,-0.516298 2.5265,0.65882 2.41425,2.005531 -0.0807,0.967655 -0.0807,0.967655 -1.53587,1.043448 -1.22336,0.06372 -1.5079,-0.0095 -1.78594,-0.459431 z"
       id="path20256" /><path
       style="fill:#000000;stroke-width:0.264583"
       d="m 76.578604,60.395701 c -1.153922,-1.371359 -0.812427,-2.890115 0.649848,-2.890115 1.166651,0 2.602728,2.244535 2.071344,3.237434 -0.427958,0.799647 -1.915883,0.609737 -2.721192,-0.347319 z"
       id="path20254" /><path
       style="fill:#000000;stroke-width:0.264583"
       d="m 173.5624,61.055656 c -1.0322,-0.434007 -1.10085,-1.315848 -0.23595,-3.030983 0.73775,-1.463011 1.28845,-1.586436 2.34853,-0.526362 1.74488,1.744885 0.11284,4.493065 -2.11258,3.557345 z"
       id="path20250" /><path
       style="fill:#000000;stroke-width:0.264583"
       d="m 125.00854,61.308423 c -0.96159,-1.319403 -0.0818,-3.779671 1.22989,-3.439194 0.81873,0.212521 2.30729,1.547683 2.30729,2.06952 0,0.542769 -1.89201,2.067608 -2.55162,2.056443 -0.2701,-0.0046 -0.7136,-0.313619 -0.98556,-0.686769 z"
       id="path20244" /><path
       style="fill:#000000;stroke-width:0.264583"
       d="m 52.527503,61.261423 c -1.280489,-1.33654 -0.782934,-3.755835 0.772427,-3.755835 0.678548,0 2.485363,2.555931 2.485363,3.51581 0,1.112994 -2.26178,1.279636 -3.25779,0.240025 z"
       id="path20242" /><path
       style="fill:#000000;stroke-width:0.264583"
       d="m 161.06895,73.488153 c -0.52713,-0.635151 -0.43319,-2.152706 0.17064,-2.756532 0.71359,-0.713584 2.76029,0.181959 2.76029,1.207775 0,1.436992 -2.1019,2.547676 -2.93093,1.548757 z"
       id="path20142" /><path
       style="fill:#000000;stroke-width:0.264583"
       d="m 136.4899,73.13213 c -0.88546,-2.137675 2.2671,-3.262305 3.26701,-1.165463 0.59649,1.250849 0.20717,1.701368 -1.62216,1.877144 -1.25326,0.120423 -1.31043,0.09569 -1.64485,-0.711681 z"
       id="path20140" /><path
       style="fill:#000000;stroke-width:0.264583"
       d="m 112.99894,73.384177 c -0.79866,-1.278861 -0.1113,-3.18126 1.14782,-3.176783 0.75819,0.0027 1.76639,1.621779 1.54906,2.487668 -0.30705,1.223386 -2.08026,1.676479 -2.69688,0.689115 z"
       id="path20138" /><path
       style="fill:#000000;stroke-width:0.264583"
       d="m 88.38196,73.592257 c -0.757362,-0.757365 0.304078,-3.38667 1.367184,-3.38667 1.706896,0 2.692302,2.5489 1.269794,3.284508 -0.962742,0.497851 -2.1936,0.545537 -2.636978,0.102158 z"
       id="path20136" /><path
       style="fill:#000000;stroke-width:0.264583"
       d="m 65.044223,73.511087 c -0.506285,-0.610036 0.158824,-2.738813 0.971381,-3.109039 1.242253,-0.566008 3.148391,2.357067 2.057304,3.154889 -0.661082,0.483396 -2.613985,0.453832 -3.028685,-0.04585 z"
       id="path20134" /><path
       style="fill:#000000;stroke-width:0.264583"
       d="m 40.94161,73.835062 c -1.57653,-1.058929 -1.27692,-2.28495 0.75486,-3.088932 1.23149,-0.487301 1.65341,-0.05658 1.65341,1.687894 0,2.080046 -0.74881,2.515672 -2.40827,1.401038 z"
       id="path20126" /><path
       style="fill:#000000;stroke-width:0.264583"
       d="m 124.65103,84.487818 c -0.61207,-0.24628 -1.03129,-1.30369 -0.77828,-1.96305 0.49496,-1.28984 2.8104,-1.49917 3.88026,-0.3508 1.3905,1.49252 -0.89898,3.2003 -3.10198,2.31385 z"
       id="path20036" /><path
       style="fill:#000000;stroke-width:0.264583"
       d="m 99.989913,84.589748 c -0.710279,-0.90297 -0.695602,-1.01407 0.220077,-1.6661 1.26736,-0.90243 4.25864,-0.38876 4.25864,0.73132 0,1.54663 -3.4337,2.2633 -4.478717,0.93478 z"
       id="path20032" /><path
       style="fill:#000000;stroke-width:0.264583"
       d="m 76.590767,85.267688 c -0.934638,-0.73519 -0.878039,-1.40339 0.18773,-2.21629 1.094536,-0.83485 1.252574,-0.83547 2.55997,-0.0101 1.219597,0.76989 1.305708,1.22331 0.403643,2.12537 -0.818573,0.81858 -2.183524,0.86235 -3.151343,0.10106 z"
       id="path20030" /><path
       style="fill:#000000;stroke-width:0.264583"
       d="m 53.839505,85.538858 c -1.148792,-0.20011 -1.495036,-0.57871 -1.285586,-1.40574 0.492519,-1.94473 1.84518,-2.28398 2.892099,-0.72533 1.095074,1.63034 0.447834,2.48892 -1.606513,2.13107 z"
       id="path20028" /><path
       style="fill:#000000;stroke-width:0.264583"
       d="m 172.4004,85.794608 c -0.29262,-0.17044 -0.46302,-0.5903 -0.46302,-1.14092 0,-1.80875 2.76037,-2.27894 3.6909,-0.6287 0.77013,1.36577 -1.64654,2.69066 -3.22788,1.76962 z"
       id="path20020" /><path
       style="fill:#000000;stroke-width:0.264583"
       d="m 148.44238,85.762908 c -0.45309,-0.4531 -0.39225,-1.96828 0.10981,-2.73452 0.75925,-1.15877 3.54144,-0.56227 3.54144,0.75929 0,1.49057 -2.68395,2.94252 -3.65125,1.97523 z"
       id="path20018" /><path
       style="fill:#000000;stroke-width:0.264583"
       d="m 65.382448,96.188878 c -1.128498,-0.59615 -1.130538,-1.42981 -0.006,-2.457 1.047586,-0.9569 1.452837,-0.90661 2.25212,0.27944 1.372878,2.03721 0.0027,3.36556 -2.246111,2.17756 z"
       id="path19942" /><path
       style="fill:#000000;stroke-width:0.264583"
       d="m 112.9353,96.928468 c -0.29104,-0.29104 -0.54235,-0.67799 -0.55846,-0.85989 -0.20583,-2.32445 1.21262,-3.31856 2.51931,-1.76564 1.63411,1.94202 -0.1951,4.39128 -1.96085,2.62553 z"
       id="path19930" /><path
       style="fill:#000000;stroke-width:0.264583"
       d="m 88.395189,96.828568 c -0.862502,-0.92161 -0.830932,-2.47668 0.05479,-2.69898 1.560451,-0.39165 3.627982,1.55805 2.894825,2.72985 -0.476116,0.76096 -2.22571,0.74265 -2.949618,-0.0309 z"
       id="path19928" /><path
       style="fill:#000000;stroke-width:0.264583"
       d="m 40.71732,97.076798 c -0.80705,-0.97243 -0.23876,-1.86272 1.24349,-1.94806 1.37447,-0.0791 1.38907,-0.0719 1.38907,0.6866 0,1.35771 -1.82637,2.23286 -2.63256,1.26146 z"
       id="path19926" /><path
       style="fill:#000000;stroke-width:0.264583"
       d="m 160.67996,97.286748 c -1.80244,-1.94487 -0.0549,-3.93348 2.25672,-2.56799 1.05072,0.62067 1.00741,1.10472 -0.20472,2.28834 -1.1965,1.16835 -1.22481,1.17221 -2.052,0.27965 z"
       id="path19924" /><path
       style="fill:#000000;stroke-width:0.264583"
       d="m 135.69419,98.055718 c -1.89895,-0.74537 -0.18174,-3.77305 2.13996,-3.77305 0.72918,0 1.0011,0.1243 1.10009,0.50284 0.50356,1.92559 -1.50386,3.9517 -3.24005,3.27021 z"
       id="path19920" /><path
       style="fill:#000000;stroke-width:0.264583"
       d="m 148.9636,109.43227 c -0.77505,-0.13915 -1.63508,-0.98092 -1.62415,-1.58968 0.0209,-1.1631 2.42375,-1.87608 3.81443,-1.13182 1.70566,0.91285 -0.058,3.10428 -2.19028,2.7215 z"
       id="path19834" /><path
       style="fill:#000000;stroke-width:0.264583"
       d="m 172.63452,109.34472 c -0.88901,-0.6993 -0.88705,-1.52055 0.005,-2.28748 1.72501,-1.48225 3.64466,0.70767 2.17384,2.4799 -0.43104,0.51938 -1.38105,0.4355 -2.17931,-0.19242 z"
       id="path19830" /><path
       style="fill:#000000;stroke-width:0.264583"
       d="m 124.56155,109.50375 c -2.20014,-1.19665 -0.98389,-3.28391 1.80135,-3.09139 0.73089,0.0505 0.77827,0.73503 0.1625,2.34741 -0.46513,1.21791 -0.83493,1.358 -1.96385,0.74398 z"
       id="path19828" /><path
       style="fill:#000000;stroke-width:0.264583"
       d="m 77.487461,109.17959 c -1.520399,-1.93287 0.48238,-3.80082 2.2162,-2.06699 0.996839,0.99683 0.897668,1.85279 -0.286911,2.4763 -0.880576,0.4635 -1.315284,0.37127 -1.929289,-0.40931 z"
       id="path19826" /><path
       style="fill:#000000;stroke-width:0.264583"
       d="m 53.536335,109.40082 c -1.305298,-0.80628 -1.765766,-1.48353 -1.672254,-2.45954 0.15335,-1.60063 2.193327,-0.98489 3.586575,1.08255 1.019228,1.51243 -0.234765,2.41444 -1.914321,1.37699 z"
       id="path19824" /><path
       style="fill:#000000;stroke-width:0.264583"
       d="m 101.42592,110.21248 c -1.630748,-0.33724 -2.040683,-2.36981 -0.62081,-3.07814 1.16514,-0.58124 1.82139,-0.52081 2.71805,0.25032 0.76421,0.65722 0.76879,0.67753 0.35067,1.55434 -0.44208,0.92705 -1.48913,1.47175 -2.44791,1.27348 z"
       id="path19820" /><path
       style="fill:#000000;stroke-width:0.264583"
       d="m 137.21082,121.51357 c -0.72557,-0.42261 -0.54728,-1.37262 0.48364,-2.57702 1.04983,-1.2265 1.40953,-1.33538 2.05504,-0.6221 1.4096,1.55759 -0.72933,4.25296 -2.53868,3.19912 z"
       id="path19724" /><path
       style="fill:#000000;stroke-width:0.264583"
       d="m 161.12529,121.57058 c -0.73517,-0.73518 -0.0252,-3.55344 1.06698,-4.23553 1.31962,-0.82412 2.17346,1.84434 1.09215,3.41322 -0.93069,1.35035 -1.43791,1.54353 -2.15913,0.82231 z"
       id="path19720" /><path
       style="fill:#000000;stroke-width:0.264583"
       d="m 113.37081,121.41509 c -0.68995,-0.63942 -0.90418,-1.68649 -0.5395,-2.63683 0.47589,-1.24012 4.33732,0.36387 4.33732,1.80168 0,1.43626 -2.54528,1.99597 -3.79782,0.83515 z"
       id="path19718" /><path
       style="fill:#000000;stroke-width:0.264583"
       d="m 89.056647,121.6956 c -1.284245,-0.97488 0.38041,-3.07127 2.438766,-3.07127 1.240081,0 1.47076,2.21067 0.321818,3.0841 -0.581084,0.44174 -2.171497,0.43436 -2.760584,-0.0128 z"
       id="path19716" /><path
       style="fill:#000000;stroke-width:0.264583"
       d="m 41.03477,121.6209 c -1.25699,-0.87683 -0.58021,-2.96769 0.96722,-2.98814 0.92423,-0.0122 2.40622,1.20382 2.40622,1.97442 0,1.27497 -2.096,1.90481 -3.37344,1.01372 z"
       id="path19714" /><path
       style="fill:#000000;stroke-width:0.264583"
       d="m 66.020721,121.84326 c -0.390734,-0.23709 -0.710428,-0.58208 -0.710428,-0.76666 0,-0.18457 -0.113667,-0.33559 -0.252595,-0.33559 -0.434565,0 -0.638045,-1.81341 -0.255235,-2.27467 0.808725,-0.97445 2.436466,0.0256 2.752182,1.69092 0.324043,1.70923 -0.323186,2.42063 -1.533924,1.686 z"
       id="path19712" /><path
       style="fill:#000000;stroke-width:0.264583"
       d="m 173.05459,133.02901 c -0.86006,-0.60241 -0.74692,-2.49854 0.14909,-2.49854 0.22876,0 0.8071,-0.14145 1.28519,-0.31433 2.08053,-0.75233 3.43381,1.54334 1.70105,2.8856 -0.59055,0.45747 -2.43961,0.41457 -3.13533,-0.0727 z"
       id="path19620" /><path
       style="fill:#000000;stroke-width:0.264583"
       d="m 148.28069,132.62684 c -1.27608,-1.51655 -0.70347,-2.89572 1.19628,-2.88132 1.60298,0.0121 2.35208,0.67294 2.35208,2.07482 0,1.82499 -2.25927,2.33849 -3.54836,0.8065 z"
       id="path19618" /><path
       style="fill:#000000;stroke-width:0.264583"
       d="m 124.5063,132.97787 c -1.70552,-1.89252 0.69272,-4.36004 2.65035,-2.72692 0.74906,0.62489 0.80962,2.12023 0.11146,2.75205 -0.64179,0.58082 -2.22876,0.56637 -2.76181,-0.0251 z"
       id="path19616" /><path
       style="fill:#000000;stroke-width:0.264583"
       d="m 101.51272,132.97487 c -0.95571,-0.42715 -1.27062,-1.01035 -1.06981,-1.98126 0.0808,-0.39081 0.40221,-0.46302 2.06074,-0.46302 1.96498,0 1.96498,0 1.96498,0.86724 0,1.53114 -1.39428,2.27502 -2.95591,1.57704 z"
       id="path19614" /><path
       style="fill:#000000;stroke-width:0.264583"
       d="m 52.522444,132.86907 c -0.437589,-1.67335 2.645428,-3.06723 3.997679,-1.80742 0.313513,0.29209 0.502746,0.7064 0.420513,0.92069 -0.50705,1.32135 -4.115168,2.04549 -4.418192,0.88673 z"
       id="path19612" /><path
       style="fill:#000000;stroke-width:0.264583"
       d="m 77.282689,133.44391 c -2.020766,-1.23209 -0.343553,-3.43885 2.02062,-2.6586 1.625963,0.53661 1.74171,2.3131 0.187333,2.87517 -1.12209,0.40575 -1.199771,0.39813 -2.207953,-0.21657 z"
       id="path19610" /><path
       style="fill:#000000;stroke-width:0.264583"
       d="m 137.01678,145.27191 c -1.95363,-0.98847 -1.00678,-2.81799 1.46404,-2.82886 1.51086,-0.007 1.97115,0.30876 1.97115,1.35074 0,1.41986 -1.91866,2.24543 -3.43519,1.47812 z"
       id="path19510" /><path
       style="fill:#000000;stroke-width:0.264583"
       d="m 161.08947,145.34761 c -1.087,-1.087 -0.51303,-2.91042 0.91614,-2.91042 1.8137,0 2.49807,1.70548 1.1094,2.76466 -1.06652,0.81348 -1.33826,0.83304 -2.02554,0.14576 z"
       id="path19508" /><path
       style="fill:#000000;stroke-width:0.264583"
       d="m 112.99885,145.34961 c -1.09219,-1.01752 -0.46183,-2.91284 0.96878,-2.91284 0.73771,0 1.6135,0.69348 1.6135,1.27761 0,0.17044 0.11906,0.30989 0.26458,0.30989 0.57732,0 0.24529,1.07877 -0.40854,1.32736 -1.45938,0.55485 -1.84093,0.55454 -2.43832,-0.002 z"
       id="path19506" /><path
       style="fill:#000000;stroke-width:0.264583"
       d="m 65.0956,145.33691 c -1.413201,-1.31659 -0.07598,-2.77984 2.199068,-2.40632 0.949135,0.15583 1.066702,0.25966 1.139436,1.00637 0.162179,1.665 -2.055725,2.59504 -3.338504,1.39995 z"
       id="path19504" /><path
       style="fill:#000000;stroke-width:0.264583"
       d="m 89.321231,145.67577 c -1.427941,-0.88533 -0.513945,-3.2326 1.256771,-3.22757 0.671711,0.002 0.871447,0.17053 1.299099,1.09675 0.505346,1.09449 0.505346,1.09449 -0.334905,1.84526 -0.971333,0.86788 -1.228428,0.90094 -2.220965,0.28556 z"
       id="path19502" /><path
       style="fill:#000000;stroke-width:0.264583"
       d="m 41.99227,145.72807 c -1.26292,-0.66171 -0.78487,-3.02664 0.6118,-3.02664 1.25326,0 2.00985,1.89535 1.07654,2.69687 -0.77957,0.66948 -0.96927,0.70653 -1.68834,0.32977 z"
       id="path19500" /><path
       style="fill:#000000;stroke-width:0.264583"
       d="m 173.2603,156.80122 c -1.74354,-0.64108 -1.53973,-2.39258 0.33309,-2.86263 0.74413,-0.18677 2.04816,0.78941 2.04816,1.53321 0,0.96469 -1.33945,1.71249 -2.38125,1.32942 z"
       id="path19406" /><path
       style="fill:#000000;stroke-width:0.264583"
       d="m 148.85248,157.23231 c -0.7015,-0.40858 -1.25508,-1.63509 -0.96885,-2.14655 0.5597,-1.00013 4.53674,-0.81846 4.68595,0.21405 0.20761,1.43667 -2.3159,2.74863 -3.7171,1.9325 z"
       id="path19402" /><path
       style="fill:#000000;stroke-width:0.264583"
       d="m 124.47511,156.86594 c -0.58866,-0.8984 -0.53538,-1.53533 0.18506,-2.21214 1.20905,-1.13585 3.07779,-0.35868 3.08775,1.28414 0.009,1.51288 -2.43541,2.20604 -3.27281,0.928 z"
       id="path19400" /><path
       style="fill:#000000;stroke-width:0.264583"
       d="m 100.79843,157.16215 c -1.038675,-1.25153 -0.5622,-2.49361 1.03872,-2.70772 2.31383,-0.30946 3.28839,0.75678 2.20417,2.41151 -0.4929,0.75227 -2.69729,0.95362 -3.24289,0.29621 z"
       id="path19398" /><path
       style="fill:#000000;stroke-width:0.264583"
       d="m 76.860676,157.03424 c -1.098624,-1.21396 -0.0034,-2.84074 1.755307,-2.60724 1.27731,0.16959 1.77556,0.5891 1.77556,1.49498 0,1.4693 -2.496145,2.25561 -3.530867,1.11226 z"
       id="path19396" /><path
       style="fill:#000000;stroke-width:0.264583"
       d="m 53.778037,157.84043 c -2.363269,-1.224 -1.08517,-3.88324 1.429364,-2.97398 1.481212,0.53561 1.78575,0.94627 1.341207,1.80856 -0.709115,1.37548 -1.622861,1.75984 -2.770571,1.16542 z"
       id="path19390" /><path
       style="fill:#000000;stroke-width:0.264583"
       d="m 64.847273,169.24911 c -0.496504,-0.20035 -0.397804,-1.6122 0.149592,-2.13988 1.46122,-1.40859 2.953959,-1.72627 3.481319,-0.74089 0.921919,1.72263 -1.580568,3.7081 -3.630911,2.88077 z"
       id="path19296" /><path
       style="fill:#000000;stroke-width:0.264583"
       d="m 40.93399,168.94559 c -1.20198,-1.24595 -0.59946,-3.19174 0.99604,-3.21662 0.55441,-0.009 2.47818,1.83364 2.47818,2.37321 0,1.13601 -2.58626,1.76385 -3.47422,0.84341 z"
       id="path19294" /><path
       style="fill:#000000;stroke-width:0.264583"
       d="m 112.67071,169.51926 c -1.93866,-0.76106 -0.82843,-3.00534 1.48673,-3.00534 0.78428,0 2.21744,0.84833 2.21744,1.31258 0,1.21875 -2.2696,2.25594 -3.70417,1.69276 z"
       id="path19292" /><path
       style="fill:#000000;stroke-width:0.264583"
       d="m 89.060656,169.58811 c -0.903004,-0.6857 -1.265219,-2.03323 -0.707456,-2.63192 0.636487,-0.68319 2.692159,-0.69996 3.434643,-0.028 1.620454,1.46649 -0.97069,3.99374 -2.727187,2.65994 z"
       id="path19288" /><path
       style="fill:#000000;stroke-width:0.264583"
       d="m 160.36186,169.69185 c -0.99371,-0.60588 -0.99478,-0.60941 -0.44133,-1.45408 0.57805,-0.88222 2.16405,-1.76783 2.99347,-1.67153 1.0869,0.1262 1.16169,2.16356 0.11098,3.02333 -0.92074,0.75341 -1.55522,0.77778 -2.66312,0.10228 z"
       id="path19284" /><path
       style="fill:#000000;stroke-width:0.264583"
       d="m 136.81395,169.64265 c -0.47295,-0.29238 -0.86152,-0.66947 -0.86351,-0.83797 -0.002,-0.16851 -0.0725,-0.56326 -0.15676,-0.87723 -0.16397,-0.61122 0.66438,-1.67811 1.3029,-1.67811 0.19182,0 0.84667,0.38267 1.45521,0.85038 2.36182,1.81522 0.79458,4.10852 -1.73784,2.54293 z"
       id="path19282" /><path
       style="fill:#000000;stroke-width:0.264583"
       d="m 52.57807,180.97922 c -1.763784,-0.65113 -2.03073,-3.88196 -0.320744,-3.88196 0.827561,0 3.290681,2.19258 3.212362,2.85953 -0.100719,0.8577 -1.754172,1.44233 -2.891618,1.02243 z"
       id="path19190" /><path
       style="fill:#000000;stroke-width:0.264583"
       d="m 100.43373,181.57397 c -0.525253,-0.30594 -0.648064,-1.94989 -0.16784,-2.24668 0.53338,-0.32965 3.20485,-0.17786 3.44893,0.19596 0.953,1.45959 -1.57898,3.0421 -3.28109,2.05072 z"
       id="path19184" /><path
       style="fill:#000000;stroke-width:0.264583"
       d="m 76.683614,181.90992 c -1.195845,-0.96834 -0.423801,-3.22516 1.103307,-3.22516 1.853899,0 2.548838,2.49994 0.91099,3.27715 -1.134181,0.5382 -1.290421,0.53417 -2.014297,-0.052 z"
       id="path19180" /><path
       style="fill:#000000;stroke-width:0.264583"
       d="m 172.73113,182.46066 c -1.86008,-0.70807 -5.3e-4,-3.40971 2.1997,-3.19593 1.57758,0.15328 1.29756,1.99916 -0.43014,2.83552 -0.62858,0.3043 -1.19458,0.54386 -1.25778,0.53237 -0.0632,-0.0115 -0.2935,-0.0889 -0.51178,-0.17196 z"
       id="path19178" /><path
       style="fill:#000000;stroke-width:0.264583"
       d="m 124.64311,182.25081 c -0.46728,-0.3305 -0.59531,-0.67796 -0.59531,-1.61557 0,-2.20202 1.19324,-2.53522 3.22123,-0.89949 1.48405,1.197 -1.05336,3.6273 -2.62592,2.51506 z"
       id="path19176" /><path
       style="fill:#000000;stroke-width:0.264583"
       d="m 148.21864,182.53065 c -0.82043,-0.57465 -0.5099,-1.51504 0.95173,-2.88223 1.88464,-1.76285 3.36877,-1.18722 2.79838,1.08538 -0.41586,1.65693 -2.51435,2.66241 -3.75011,1.79685 z"
       id="path19174" /><path
       style="fill:#000000;stroke-width:0.264583"
       d="m 113.38486,193.22644 c -1.30001,-0.22655 -1.5653,-0.51881 -1.46102,-1.6096 0.11008,-1.15156 1.13343,-1.30595 2.86354,-0.43203 0.95701,0.48341 1.88604,1.78745 1.27343,1.78745 -0.0475,0 -0.4427,0.0966 -0.8783,0.21472 -0.4356,0.11809 -1.24454,0.13585 -1.79765,0.0395 z"
       id="path19074" /><path
       style="fill:#000000;stroke-width:0.264583"
       d="m 64.781127,193.56865 c -1.207892,-0.60535 -1.41396,-1.9523 -0.467239,-3.05407 0.796153,-0.92653 1.091785,-0.90379 1.838286,0.14147 1.596636,2.23562 1.753179,3.09039 0.568822,3.10591 -0.17,0.002 -0.467656,0.0641 -0.661458,0.13742 -0.193805,0.0734 -0.769088,-0.0755 -1.278411,-0.33073 z"
       id="path19072" /><path
       style="fill:#000000;stroke-width:0.264583"
       d="m 41.13672,193.64015 c -1.27132,-0.96289 -1.54658,-2.56254 -0.55297,-3.21357 0.8725,-0.57169 1.7176,-0.16426 2.33208,1.12431 0.93402,1.95865 -0.19736,3.28726 -1.77911,2.08926 z"
       id="path19070" /><path
       style="fill:#000000;stroke-width:0.264583"
       d="m 160.29997,193.57907 c -0.45607,-0.5798 -0.58181,-2.01413 -0.18119,-2.06675 0.0246,-0.003 0.46136,-0.16723 0.97069,-0.36445 1.84513,-0.71448 2.55551,-0.6881 2.75389,0.10227 0.56217,2.23988 -2.19038,4.04901 -3.54339,2.32893 z"
       id="path19064" /><path
       style="fill:#000000;stroke-width:0.264583"
       d="m 135.95574,193.51467 c -0.50839,-0.42145 -0.86558,-0.81147 -0.79375,-0.86671 2.14647,-1.65071 4.30103,-2.41809 4.60021,-1.63843 0.98437,2.56523 -1.64585,4.29625 -3.80646,2.50514 z"
       id="path19062" /><path
       style="fill:#000000;stroke-width:0.264583"
       d="m 89.134861,194.10192 c -1.055436,-0.41547 -1.774926,-1.74784 -1.467276,-2.71716 0.247261,-0.77904 3.676338,-0.79356 4.091771,-0.0173 0.73357,1.37069 -1.137264,3.31993 -2.624495,2.73449 z"
       id="path19060" /><path
       style="fill:#000000;stroke-width:0.264583"
       d="m 53.211427,205.08736 c -0.683004,-0.32964 -0.973286,-1.04061 -0.733425,-1.79634 0.220268,-0.694 3.551899,-0.79397 4.108526,-0.12327 1.033436,1.24521 -1.631714,2.76104 -3.375101,1.91961 z"
       id="path18970" /><path
       style="fill:#000000;stroke-width:0.264583"
       d="m 99.658475,205.01193 c -0.501237,-1.1001 0.296339,-1.72087 2.210995,-1.72087 1.85997,0 2.60437,0.82307 1.67409,1.85101 -0.77619,0.85768 -3.47621,0.76723 -3.885085,-0.13014 z"
       id="path18966" /><path
       style="fill:#000000;stroke-width:0.264583"
       d="m 76.349303,205.14012 c -0.61731,-0.72096 -0.573188,-1.55278 0.113974,-2.14875 1.545797,-1.34067 3.705678,0.17719 2.692591,1.89221 -0.579517,0.98104 -2.069605,1.11725 -2.806565,0.25654 z"
       id="path18964" /><path
       style="fill:#000000;stroke-width:0.264583"
       d="m 148.01149,205.52109 c -1.09009,-1.09009 -0.18768,-2.23006 1.76535,-2.23006 1.6198,0 2.03636,0.48754 1.47298,1.724 -0.43794,0.9612 -2.46623,1.27816 -3.23833,0.50606 z"
       id="path18960" /><path
       style="fill:#000000;stroke-width:0.264583"
       d="m 172.26811,205.75843 c -1.2829,-0.89491 -0.29286,-3.23727 1.21356,-2.87116 1.4731,0.35802 2.04006,1.85387 1.05166,2.7747 -0.68406,0.6373 -1.44353,0.66964 -2.26522,0.0965 z"
       id="path18956" /><path
       style="fill:#000000;stroke-width:0.264583"
       d="m 124.23226,205.82973 c -0.90146,-0.83544 -0.90569,-1.59224 -0.0135,-2.41906 1.66794,-1.54579 3.89635,0.40595 2.54287,2.22715 -0.70098,0.94323 -1.64164,1.0146 -2.52934,0.19191 z"
       id="path18954" /><path
       style="fill:#000000;stroke-width:0.264583"
       d="m 40.3376,216.3972 c -0.82116,-1.25325 -0.0371,-2.52285 1.55807,-2.52285 1.0174,0 1.45421,0.53519 1.45421,1.78177 0,1.51178 -2.15924,2.04299 -3.01228,0.74108 z"
       id="path18864" /><path
       style="fill:#000000;stroke-width:0.264583"
       d="m 136.48322,217.6503 c -1.33021,-0.50636 -0.78675,-2.14903 1.11284,-3.36369 0.82915,-0.53019 1.26841,-0.36516 1.26841,0.47654 0,0.32611 0.1265,0.71943 0.28112,0.87405 0.19844,0.19844 0.0142,0.56418 -0.62655,1.24354 -0.88916,0.94278 -1.23618,1.07396 -2.03582,0.76956 z"
       id="path18856" /><path
       style="fill:#000000;stroke-width:0.264583"
       d="m 88.652499,217.43128 c -0.938003,-0.65701 -0.732549,-1.36021 0.654386,-2.23978 1.465715,-0.92953 1.438923,-0.92595 2.215999,-0.29671 1.534279,1.24239 -1.230222,3.6853 -2.870385,2.53649 z"
       id="path18854" /><path
       style="fill:#000000;stroke-width:0.264583"
       d="m 112.34705,217.74458 c -1.15362,-0.87622 -0.96166,-3.07643 0.26841,-3.07643 0.88936,0 2.96567,1.28198 2.96567,1.8311 0,1.22043 -2.16783,2.05519 -3.23408,1.24533 z"
       id="path18850" /><path
       style="fill:#000000;stroke-width:0.264583"
       d="m 159.67289,217.72348 c -1.4267,-1.32223 -0.87943,-2.13116 1.60442,-2.37152 2.17448,-0.21043 2.98716,0.0634 2.98716,1.00664 0,1.85472 -3.07631,2.76918 -4.59158,1.36488 z"
       id="path18848" /><path
       style="fill:#000000;stroke-width:0.264583"
       d="m 65.192728,217.70148 c -1.271915,-1.27192 -1.136501,-3.29797 0.220425,-3.29797 0.78872,0 3.224969,1.87692 3.480247,2.68122 0.431816,1.36054 -2.472804,1.84462 -3.700672,0.61675 z"
       id="path18846" /><path
       style="fill:#000000;stroke-width:0.264583"
       d="m 52.686824,228.36029 c -1.455859,-1.59062 -0.866111,-2.57969 1.538171,-2.57969 1.715259,0 2.017506,0.25484 1.717921,1.44847 -0.400783,1.59685 -2.243846,2.23716 -3.256092,1.13122 z"
       id="path18754" /><path
       style="fill:#000000;stroke-width:0.264583"
       d="m 147.71267,229.54682 c -0.41676,-0.28942 -1.17529,-1.45797 -1.17529,-1.81061 0,-0.51829 1.72592,-1.1619 3.11577,-1.1619 1.45065,0 1.94139,0.77804 1.39583,2.21298 -0.33788,0.8887 -2.45594,1.37089 -3.33631,0.75953 z"
       id="path18746" /><path
       style="fill:#000000;stroke-width:0.264583"
       d="m 124.05811,229.17025 c -0.66539,-0.7142 -0.66575,-0.77312 -0.009,-1.47781 1.19564,-1.28336 3.47162,-1.33586 3.65726,-0.0844 0.22527,1.51872 -2.57238,2.71674 -3.64802,1.56217 z"
       id="path18744" /><path
       style="fill:#000000;stroke-width:0.264583"
       d="m 100.98465,229.2991 c -2.446815,-1.00549 -1.299822,-2.70931 1.83033,-2.71891 2.08814,-0.006 2.2476,0.15168 1.67425,1.65971 -0.19174,0.50433 -2.09273,1.64468 -2.47335,1.4837 -0.0334,-0.0141 -0.49749,-0.20517 -1.03123,-0.4245 z"
       id="path18742" /><path
       style="fill:#000000;stroke-width:0.264583"
       d="m 171.20978,229.7546 c -0.96785,-0.41104 -0.76114,-1.38448 0.52917,-2.49202 1.90493,-1.63512 3.17065,-1.58077 3.31993,0.14256 0.15506,1.79003 -2.0283,3.12274 -3.8491,2.34946 z"
       id="path18738" /><path
       style="fill:#000000;stroke-width:0.264583"
       d="m 76.582086,229.6832 c -1.348748,-2.1015 -0.03628,-3.79827 2.048843,-2.64876 1.680734,0.92658 1.820497,1.12535 1.334585,1.89804 -0.940768,1.49599 -2.660253,1.87751 -3.383428,0.75072 z"
       id="path18736" /><path
       style="fill:#000000;stroke-width:0.264583"
       d="m 87.733731,253.26023 c -0.841134,-0.31403 -0.875856,-0.49662 -0.317979,-1.67225 1.090237,-2.29751 4.243729,-1.63125 4.037896,0.85311 -0.0819,0.98847 -0.0819,0.98847 -1.537105,1.03962 -0.800364,0.0281 -1.78263,-0.0711 -2.182812,-0.22048 z"
       id="path18562" /><path
       style="fill:#000000;stroke-width:0.264583"
       d="m 54.859252,253.41808 c -0.145521,-0.0442 -0.939266,-0.15629 -1.76388,-0.24914 -1.720545,-0.19374 -1.936667,-0.47833 -1.443968,-1.90147 0.775499,-2.23997 4.200035,-1.5332 4.200035,0.86683 0,0.71648 -0.543676,1.41994 -0.992187,1.28378 z"
       id="path18560" /><path
       style="fill:#000000;stroke-width:0.264583"
       d="m 159.94694,253.26845 c -0.41955,-1.60434 0.34134,-2.67078 1.93537,-2.71257 1.3813,-0.0362 2.17287,0.72092 2.21746,2.12102 0.0324,1.01724 0.0324,1.01724 -1.98451,1.09391 -1.88365,0.0716 -2.02691,0.0384 -2.16832,-0.50236 z"
       id="path18554" /><path
       style="fill:#000000;stroke-width:0.264583"
       d="m 126.68073,253.72731 c -0.0657,-0.0646 -0.65517,-0.14878 -1.31001,-0.18711 -2.3183,-0.13568 -2.91114,-1.37948 -1.30262,-2.73296 1.64333,-1.38276 3.76476,-0.4292 3.63202,1.63256 -0.0729,1.13181 -0.55655,1.74271 -1.01939,1.28751 z"
       id="path18552" /><path
       style="fill:#000000;stroke-width:0.264583"
       d="m 39.94893,253.20611 c -0.80619,-0.85816 -0.54616,-1.27365 1.40478,-2.2446 1.89801,-0.9446 2.39761,-1.02455 2.62932,-0.42073 0.87966,2.29238 -2.3684,4.43838 -4.0341,2.66533 z"
       id="path18550" /><path
       style="fill:#000000;stroke-width:0.264583"
       d="m 112.41531,253.89669 c -1.36226,-0.53564 -1.56724,-1.79158 -0.40605,-2.48793 2.56519,-1.5383 3.23097,-1.43723 3.49491,0.53057 0.20781,1.54934 -1.45184,2.60103 -3.08886,1.95736 z"
       id="path18548" /><path
       style="fill:#000000;stroke-width:0.264583"
       d="m 100.27181,253.59825 c -1.139287,-1.13928 -0.839757,-3.4903 0.41464,-3.25456 0.81558,0.15328 2.85203,1.52152 2.94012,1.97539 0.24764,1.27589 -2.36272,2.27122 -3.35476,1.27917 z"
       id="path18546" /><path
       style="fill:#000000;stroke-width:0.264583"
       d="m 64.781127,253.90729 c -0.703654,-0.25148 -1.058334,-0.94973 -1.058334,-2.08351 0,-1.61493 0.542026,-1.95643 1.701515,-1.07205 0.499956,0.38134 1.006252,0.69708 1.125103,0.70166 0.433501,0.0167 1.171607,1.33409 1.018217,1.81737 -0.203083,0.63987 -1.773443,0.99859 -2.786501,0.63653 z"
       id="path18544" /><path
       style="fill:#000000;stroke-width:0.264583"
       d="m 148.65405,254.01635 c -1.23344,-1.00172 -1.23202,-1.23461 0.0141,-2.32791 2.01848,-1.77093 3.16089,-1.46825 3.16089,0.83748 0,1.47561 -2.02358,2.42553 -3.175,1.49043 z"
       id="path18542" /><path
       style="fill:#000000;stroke-width:0.264583"
       d="m 76.152098,253.87125 c -0.655346,-0.534 -0.655346,-0.534 -0.163639,-1.45599 1.604031,-3.00769 3.873918,-3.18714 3.873918,-0.30626 0,1.65034 -2.430743,2.80485 -3.710279,1.76225 z"
       id="path18540" /><path
       style="fill:#000000;stroke-width:0.264583"
       d="m 136.63016,254.10308 c -1.30954,-0.86324 -1.53755,-1.5932 -0.90007,-2.88164 0.88438,-1.7875 2.86151,-1.06692 4.19705,1.52964 0.72215,1.404 -1.70698,2.40012 -3.29698,1.352 z"
       id="path18528" /><path
       style="fill:#000000;stroke-width:0.264583"
       d="m 173.07729,254.62964 c -1.33942,-0.56722 -1.84014,-2.94797 -0.86671,-4.12088 0.36277,-0.43711 1.3143,-0.52538 1.3143,-0.12191 0,0.14552 0.1151,0.26458 0.25577,0.26458 0.38142,0 1.94913,1.64288 2.29367,2.40365 0.5619,1.2407 -1.37833,2.26005 -2.99703,1.57456 z"
       id="path18524" /></g></svg>
