<?xml version="1.0" encoding="UTF-8" standalone="no"?>
<!-- Uploaded to: SVG Repo, www.svgrepo.com, Generator: SVG Repo Mixer Tools -->

<svg
   fill="#000000"
   height="800"
   width="800"
   version="1.2"
   id="Layer_1"
   viewBox="0 0 256 256"
   xml:space="preserve"
   xmlns="http://www.w3.org/2000/svg"
   xmlns:svg="http://www.w3.org/2000/svg"><defs
   id="defs1829" />
<g
   id="XMLID_2_">
	
	
	
	<g
   id="g1950"><path
     id="XMLID_5_"
     d="M 98.480842,128.03416 99.1,95.8 72.2,106.3 c -4.8,2 -10.1,0.2 -12.8,-4 L 35.7,66.4 C 32.6,61.5 34,55 38.9,51.9 43.7,48.8 50.2,50.2 53.3,55 l 19,28.8 36.9,-14.3 c 1.4,-0.6 2.7,-0.8 4.1,-0.8 L 134.6,68.6 170,12 c 2.7,-4.7 9.1,-6.2 14,-3.1 4.9,3.1 6.4,9.5 3.3,14.4 l -41.7,66.6 0.0907,44.97305 L 169,122.2 c 6.2,-3 14.2,2.1 15.8,8.6 l 11.5,46.2 c 1.6,6.6 -2.4,13.2 -8.9,14.8 -6.6,1.6 -13.2,-2.4 -14.9,-8.9 l -7.3,-29.5 -33.3,15.7 c -2.3,0.9 -5,1.4 -7.7,1.4 -2.9,0 -5.7,-0.3 -8.4,-1.1 l -29.7,68.3 c -2.7,6.3 -10.2,8.4 -16.7,4.8 -6.5,-3.7 -9.6,-11.7 10.90678,-62.42236 z" /></g><path
   id="XMLID_4_"
   d="m 119.1,64.8 c 10.2,0 18.5,-8.3 18.5,-18.5 0,-10.2 -8.3,-18.5 -18.5,-18.5 -10.2,0 -18.5,8.3 -18.5,18.5 0,10.2 8.3,18.5 18.5,18.5 z" />
	
</g>
</svg>
